<?xml version="1.0" encoding="UTF-8" standalone="no"?>
<svg
   width="582"
   height="472"
   viewBox="0 0 582 472"
   fill="none"
   version="1.1"
   id="svg46"
   sodipodi:docname="Apps.svg"
   inkscape:version="1.3.2 (091e20e, 2023-11-25, custom)"
   xmlns:inkscape="http://www.inkscape.org/namespaces/inkscape"
   xmlns:sodipodi="http://sodipodi.sourceforge.net/DTD/sodipodi-0.dtd"
   xmlns="http://www.w3.org/2000/svg"
   xmlns:svg="http://www.w3.org/2000/svg">
  <sodipodi:namedview
     id="namedview46"
     pagecolor="#ffffff"
     bordercolor="#000000"
     borderopacity="0.25"
     inkscape:showpageshadow="2"
     inkscape:pageopacity="0.0"
     inkscape:pagecheckerboard="0"
     inkscape:deskcolor="#d1d1d1"
     inkscape:zoom="1.565678"
     inkscape:cx="227.69689"
     inkscape:cy="282.62517"
     inkscape:window-width="1920"
     inkscape:window-height="974"
     inkscape:window-x="-11"
     inkscape:window-y="-11"
     inkscape:window-maximized="1"
     inkscape:current-layer="svg46" />
  <circle
     cx="284.764"
     cy="180.016"
     r="144.5"
     stroke="#4F9CF9"
     stroke-width="2"
     stroke-dasharray="15 15"
     id="circle1" />
  <circle
     cx="181.875"
     cy="325.516"
     r="144.5"
     stroke="#4F9CF9"
     stroke-width="2"
     stroke-dasharray="15 15"
     id="circle2" />
  <circle
     cx="400.125"
     cy="325.516"
     r="144.5"
     stroke="#4F9CF9"
     stroke-width="2"
     stroke-dasharray="15 15"
     id="circle3" />
  <circle
     cx="429.225"
     cy="183.134"
     r="36.375"
     fill="white"
     id="circle4" />
  <g
     clip-path="url(#clip0_9_2589)"
     id="g11">
    <path
       d="M423.379 184.413C420.861 184.413 418.812 186.461 418.812 188.98V200.392C418.812 202.91 420.861 204.959 423.379 204.959C425.898 204.959 427.946 202.91 427.946 200.392V188.98C427.946 186.461 425.898 184.413 423.379 184.413Z"
       fill="#FF4340"
       id="path4" />
    <path
       d="M416.257 184.413H411.835C409.397 184.413 407.414 186.396 407.414 188.834C407.414 191.272 409.397 193.255 411.835 193.255C414.273 193.255 416.257 191.272 416.257 188.834V184.413Z"
       fill="#FF4340"
       id="path5" />
    <path
       d="M407.4 177.288C407.4 179.807 409.449 181.855 411.967 181.855H423.38C425.898 181.855 427.947 179.807 427.947 177.288C427.947 174.77 425.898 172.721 423.38 172.721H411.967C409.449 172.721 407.4 174.77 407.4 177.288V177.288Z"
       fill="#36C6FF"
       id="path6" />
    <path
       d="M423.527 170.164H427.948V165.742C427.948 163.304 425.965 161.321 423.527 161.321C421.089 161.321 419.105 163.304 419.105 165.742C419.105 168.18 421.089 170.164 423.527 170.164Z"
       fill="#36C6FF"
       id="path7" />
    <path
       d="M435.071 181.855C437.589 181.855 439.638 179.806 439.638 177.288V165.876C439.638 163.357 437.589 161.309 435.071 161.309C432.552 161.309 430.504 163.357 430.504 165.876V177.288C430.504 179.806 432.552 181.855 435.071 181.855Z"
       fill="#0DC46E"
       id="path8" />
    <path
       d="M442.195 181.855H446.617C449.054 181.855 451.038 179.872 451.038 177.434C451.038 174.996 449.054 173.013 446.617 173.013C444.179 173.013 442.195 174.996 442.195 177.434V181.855Z"
       fill="#0DC46E"
       id="path9" />
    <path
       d="M451.05 188.98C451.05 186.461 449.001 184.413 446.483 184.413H435.071C432.552 184.413 430.504 186.461 430.504 188.98C430.504 191.498 432.552 193.547 435.071 193.547H446.483C449.001 193.547 451.05 191.498 451.05 188.98Z"
       fill="#FDCB02"
       id="path10" />
    <path
       d="M434.925 196.104H430.504V200.525C430.504 202.963 432.487 204.947 434.925 204.947C437.363 204.947 439.346 202.963 439.346 200.525C439.346 198.087 437.363 196.104 434.925 196.104Z"
       fill="#FDCB02"
       id="path11" />
  </g>
  <circle
     cx="36.375"
     cy="314.084"
     r="36.375"
     fill="white"
     id="circle11" />
  <g
     clip-path="url(#clip1_9_2589)"
     id="g14">
    <path
       d="M56.8351 301.808H37.7383C36.9853 301.808 36.3742 302.419 36.3742 303.172C36.3742 303.925 36.9853 304.536 37.7383 304.536H52.8603L44.4795 311.053L38.4694 307.231L37.0071 309.534L43.8274 313.872C44.0484 314.013 44.3049 314.084 44.5586 314.084C44.8532 314.084 45.1506 313.989 45.3961 313.798L55.4711 305.96V323.633H37.7383C36.9853 323.633 36.3742 324.244 36.3742 324.997C36.3742 325.75 36.9853 326.361 37.7383 326.361H56.8351C57.5881 326.361 58.1992 325.75 58.1992 324.997V303.172C58.1992 302.419 57.5881 301.808 56.8351 301.808Z"
       fill="#1976D2"
       id="path12" />
    <path
       d="M38.6093 293.937C38.2983 293.678 37.8809 293.566 37.4881 293.648L15.6631 297.74C15.0165 297.86 14.55 298.422 14.55 299.08V329.089C14.55 329.744 15.0165 330.309 15.6631 330.429L37.4881 334.521C37.5699 334.537 37.6545 334.546 37.7391 334.546C38.0555 334.546 38.3638 334.436 38.6093 334.232C38.9231 333.973 39.1031 333.585 39.1031 333.181V294.988C39.1031 294.581 38.9231 294.197 38.6093 293.937Z"
       fill="#2196F3"
       id="path13" />
    <path
       d="M26.8273 323.633C23.068 323.633 20.007 319.961 20.007 315.448C20.007 310.936 23.068 307.264 26.8273 307.264C30.5867 307.264 33.6476 310.936 33.6476 315.448C33.6476 319.961 30.5867 323.633 26.8273 323.633ZM26.8273 309.992C24.5712 309.992 22.7351 312.439 22.7351 315.448C22.7351 318.457 24.5712 320.905 26.8273 320.905C29.0835 320.905 30.9195 318.457 30.9195 315.448C30.9195 312.439 29.0835 309.992 26.8273 309.992Z"
       fill="#FAFAFA"
       id="path14" />
  </g>
  <circle
     cx="545.625"
     cy="314.084"
     r="36.375"
     fill="white"
     id="circle14" />
  <g
     clip-path="url(#clip2_9_2589)"
     id="g19">
    <path
       d="M545.586 306.048L536.527 321.761H536.502L541.748 328.159L529.976 333.098C529.745 332.97 529.566 332.791 529.464 332.612L523.936 322.375C523.655 321.812 523.885 321.377 523.962 321.121L538.779 295.53C538.882 295.376 539.035 295.223 539.24 295.094H539.265L546.866 297.449L545.586 306.048Z"
       fill="#59C36A"
       id="path15" />
    <path
       d="M567.45 321.761L557.187 328.159L554.756 321.761L545.586 306.048L539.265 295.095C539.444 294.967 539.674 294.89 539.879 294.89H551.378C551.634 294.967 552.146 294.941 552.479 295.53L567.296 321.121C567.398 321.3 567.45 321.531 567.45 321.761Z"
       fill="#FFDA2D"
       id="path16" />
    <path
       d="M552.48 295.531C552.147 294.942 551.635 294.968 551.379 294.891H545.587V306.049L554.757 321.762L557.189 328.16L567.451 321.762C567.451 321.531 567.399 321.301 567.297 321.122L552.48 295.531Z"
       fill="#FDBF00"
       id="path17" />
    <path
       d="M567.45 321.761C567.45 321.991 567.399 322.222 567.322 322.375L561.794 332.612C561.589 332.944 561.103 333.277 560.668 333.277H530.59C530.385 333.277 530.155 333.2 529.976 333.098L536.502 321.761H567.45Z"
       fill="#4086F4"
       id="path18" />
    <path
       d="M545.587 333.277H560.669C561.104 333.277 561.59 332.944 561.795 332.612L567.323 322.375C567.4 322.222 567.451 321.991 567.451 321.761H545.587V333.277H545.587Z"
       fill="#4175DF"
       id="path19" />
  </g>
  <circle
     cx="139.264"
     cy="183.134"
     r="36.375"
     fill="white"
     id="circle19" />
  <g
     clip-path="url(#clip3_9_2589)"
     id="g25">
    <path
       d="M126.013 193.968V190.46L131.937 193.89L139.264 187.031V202.62L126.013 193.968Z"
       fill="#0093EB"
       id="path20" />
    <path
       d="M118.921 184.693L126.638 177.678L139.265 185.472L131.938 192.332L118.921 184.693Z"
       fill="#0093EB"
       id="path21" />
    <path
       d="M126.637 177.677L117.439 170.662L130.69 163.647L140.043 169.883L126.637 177.677Z"
       fill="#0093EB"
       id="path22" />
    <path
       d="M152.514 194.046L139.263 202.62V187.031L146.824 193.578L152.514 189.993V194.046Z"
       fill="#0093EB"
       id="path23" />
    <path
       d="M146.824 192.019L139.263 185.472L151.968 177.365L159.607 183.913L146.824 192.019Z"
       fill="#0093EB"
       id="path24" />
    <path
       d="M151.968 177.366L140.042 169.883L149.396 163.647L161.088 170.662L151.968 177.366Z"
       fill="#0093EB"
       id="path25" />
  </g>
  <circle
     cx="291"
     cy="416.973"
     r="36.375"
     fill="white"
     id="circle25" />
  <g
     clip-path="url(#clip4_9_2589)"
     id="g35">
    <path
       d="M308.938 408.107H273.132C272.425 408.107 271.853 407.535 271.853 406.828V398.984C271.853 396.869 273.574 395.148 275.689 395.148H306.381C308.496 395.148 310.217 396.869 310.217 398.984V406.828C310.217 407.535 309.645 408.107 308.938 408.107Z"
       fill="#E3E7EA"
       id="path26" />
    <path
       d="M306.38 395.148H291.035V408.107H308.938C309.645 408.107 310.217 407.535 310.217 406.828V398.984C310.217 396.869 308.496 395.148 306.38 395.148Z"
       fill="#BABAC0"
       id="path27" />
    <path
       d="M271.804 422.173C271.804 422.171 271.804 422.17 271.804 422.17L269.26 410.05C269.081 408.899 269.388 407.748 270.104 406.904C270.846 406.035 271.92 405.549 273.045 405.549H308.955C310.08 405.549 311.154 406.035 311.896 406.904C312.612 407.748 312.919 408.899 312.74 409.999L310.196 422.176L312.74 434.296C312.919 435.447 312.612 436.598 311.896 437.442C311.154 438.312 310.08 438.798 308.955 438.798H273.045C271.92 438.798 270.846 438.312 270.104 437.442C269.388 436.598 269.081 435.447 269.26 434.348C269.26 434.348 271.76 422.384 271.804 422.173Z"
       fill="#4086F4"
       id="path28" />
    <path
       d="M271.804 422.17C271.804 422.17 271.804 422.171 271.804 422.173H310.196L312.74 409.999C312.919 408.899 312.612 407.748 311.896 406.904C311.154 406.035 310.08 405.549 308.955 405.549H273.045C271.92 405.549 270.846 406.035 270.104 406.904C269.388 407.748 269.081 408.899 269.26 410.05L271.804 422.17Z"
       fill="#4175DF"
       id="path29" />
    <path
       d="M278.212 402.821C278.918 402.821 279.491 402.248 279.491 401.542C279.491 400.836 278.918 400.263 278.212 400.263C277.506 400.263 276.933 400.836 276.933 401.542C276.933 402.248 277.506 402.821 278.212 402.821Z"
       fill="#FFF5F5"
       id="path30" />
    <path
       d="M303.788 402.821C304.494 402.821 305.067 402.248 305.067 401.542C305.067 400.836 304.494 400.263 303.788 400.263C303.082 400.263 302.509 400.836 302.509 401.542C302.509 402.248 303.082 402.821 303.788 402.821Z"
       fill="#E3E7EA"
       id="path31" />
    <path
       d="M285.885 431.125C283.722 431.125 281.782 429.755 281.062 427.714C280.826 427.049 281.174 426.318 281.841 426.083C282.504 425.846 283.237 426.197 283.472 426.863C283.833 427.882 284.803 428.567 285.885 428.567C287.294 428.567 288.442 427.42 288.442 426.01C288.442 424.6 287.294 423.452 285.885 423.452H284.295C283.589 423.452 283.016 422.88 283.016 422.173C283.016 421.467 283.589 420.895 284.295 420.895H285.885C287.294 420.895 288.442 419.747 288.442 418.337C288.442 416.927 287.294 415.779 285.885 415.779C284.803 415.779 283.833 416.465 283.472 417.484C283.237 418.151 282.503 418.501 281.841 418.263C281.174 418.028 280.826 417.298 281.061 416.632C281.782 414.592 283.722 413.222 285.885 413.222C288.706 413.222 291 415.516 291 418.337C291 419.863 290.328 421.235 289.264 422.173C290.328 423.111 291 424.484 291 426.01C291 428.831 288.706 431.125 285.885 431.125Z"
       fill="#FFF5F5"
       id="path32" />
    <path
       d="M281.841 418.263C282.503 418.501 283.237 418.151 283.472 417.484C283.833 416.465 284.803 415.779 285.885 415.779C287.294 415.779 288.442 416.927 288.442 418.337C288.442 419.747 287.294 420.895 285.885 420.895H284.295C283.589 420.895 283.016 421.466 283.016 422.173H289.264C290.328 421.235 291 419.863 291 418.337C291 415.516 288.706 413.222 285.885 413.222C283.722 413.222 281.782 414.592 281.062 416.632C280.825 417.298 281.174 418.028 281.841 418.263Z"
       fill="#E3E7EA"
       id="path33" />
    <path
       d="M298.674 431.125C297.967 431.125 297.395 430.553 297.395 429.846V416.889L295.547 418.122C294.957 418.512 294.164 418.354 293.773 417.767C293.381 417.179 293.54 416.386 294.128 415.994L297.964 413.436C298.356 413.175 298.862 413.15 299.277 413.373C299.693 413.595 299.953 414.028 299.953 414.5V429.846C299.953 430.553 299.381 431.125 298.674 431.125Z"
       fill="#FFF5F5"
       id="path34" />
    <path
       d="M295.547 418.122L297.395 416.89V422.173H299.953V414.501C299.953 414.029 299.693 413.595 299.277 413.373C298.862 413.151 298.356 413.176 297.964 413.437L294.128 415.994C293.54 416.387 293.381 417.179 293.773 417.768C294.164 418.355 294.957 418.512 295.547 418.122Z"
       fill="#E3E7EA"
       id="path35" />
  </g>
  <circle
     cx="287.882"
     cy="36.5947"
     r="36.375"
     fill="white"
     id="circle35" />
  <g
     clip-path="url(#clip5_9_2589)"
     id="g38">
    <path
       d="M304.252 20.2258H271.514V52.9633H304.252V20.2258Z"
       fill="#ECEFF1"
       id="path36" />
    <path
       d="M287.882 40.0376L304.25 52.9635V27.4446L287.882 40.0376Z"
       fill="#CFD8DC"
       id="path37" />
    <path
       d="M305.615 20.2261H304.251L287.882 33.1519L271.514 20.2261H270.149C267.891 20.2261 266.057 22.0594 266.057 24.3183V48.8714C266.057 51.1303 267.891 52.9636 270.149 52.9636H271.514V27.4447L287.882 40.035L304.251 27.442V52.9636H305.615C307.874 52.9636 309.707 51.1303 309.707 48.8714V24.3183C309.707 22.0594 307.874 20.2261 305.615 20.2261Z"
       fill="#F44336"
       id="path38" />
  </g>
  <circle
     cx="289.961"
     cy="278.748"
     r="51.9643"
     fill="white"
     id="circle38" />
  <defs
     id="defs46">
    <clipPath
       id="clip0_9_2589">
      <rect
         width="43.65"
         height="43.65"
         fill="white"
         transform="translate(407.4 161.309)"
         id="rect41" />
    </clipPath>
    <clipPath
       id="clip1_9_2589">
      <rect
         width="43.65"
         height="43.65"
         fill="white"
         transform="translate(14.55 292.259)"
         id="rect42" />
    </clipPath>
    <clipPath
       id="clip2_9_2589">
      <rect
         width="43.65"
         height="43.65"
         fill="white"
         transform="translate(523.8 292.259)"
         id="rect43" />
    </clipPath>
    <clipPath
       id="clip3_9_2589">
      <rect
         width="43.65"
         height="43.65"
         fill="white"
         transform="translate(117.439 161.309)"
         id="rect44" />
    </clipPath>
    <clipPath
       id="clip4_9_2589">
      <rect
         width="43.65"
         height="43.65"
         fill="white"
         transform="translate(269.175 395.148)"
         id="rect45" />
    </clipPath>
    <clipPath
       id="clip5_9_2589">
      <rect
         width="43.65"
         height="43.65"
         fill="white"
         transform="translate(266.057 14.7698)"
         id="rect46" />
    </clipPath>
  </defs>
  <path
     d="m 291.72031,275.82235 0.008,19.51318 1.70547,0.006 0.052,-18.98905 14.11129,18.98326 2.15332,0.008 -14.94019,-20.18301 11.03775,-11.15071 -0.001,-2.44662 z m -25.48487,15.20054 1.02732,1.48705 4.67956,-1.41269 -2.59903,4.23688 2.01968,0.002 3.01534,-4.92105 12.7507,-3.99744 -0.13413,-1.74016 z m 8.51951,-4.40374 2.53328,-0.77634 14.47623,-22.86732 -0.0444,10.39532 1.71461,-1.72111 0.008,-14.54576 z"
     style="font-variation-settings:normal;vector-effect:none;fill:#5986ef;fill-opacity:1;fill-rule:evenodd;stroke-width:0.0985374;stroke-linecap:butt;stroke-linejoin:miter;stroke-miterlimit:4;stroke-dasharray:none;stroke-dashoffset:0;stroke-opacity:1;-inkscape-stroke:none;stop-color:#000000"
     id="path6-5" />
</svg>
