<svg width="315" height="52" viewBox="0 0 315 52" fill="none" xmlns="http://www.w3.org/2000/svg">
<path d="M293.764 27.7684C293.336 27.811 292.903 27.8402 292.484 27.9041C292.211 27.944 292.095 27.827 291.913 27.7658C291.852 27.7445 291.787 27.7019 291.731 27.7072C291.307 27.7498 290.883 27.7977 290.459 27.8455C290.33 27.9493 290.247 28.0876 290.048 28.1381C289.854 28.186 289.625 28.186 289.408 28.2099C289.123 28.2392 288.837 28.2685 288.552 28.2951C288.409 28.3084 288.292 28.3589 288.245 28.4546C288.236 28.4706 288.331 28.5105 288.383 28.5344C288.556 28.6142 288.725 28.7046 288.915 28.7658C289.097 28.8243 289.322 28.7286 289.516 28.8031C289.953 28.9706 289.958 28.968 290.291 28.9361C290.576 28.9068 290.862 28.8749 291.147 28.8536C291.203 28.8483 291.268 28.8882 291.329 28.9095C291.51 28.968 291.627 29.101 291.896 29.0504C292.099 29.0105 292.324 29.0026 292.536 28.9813C292.713 29.0584 292.877 29.1462 293.068 29.2074C293.245 29.2659 293.297 29.3111 293.202 29.3882C293.115 29.46 292.994 29.4893 292.834 29.4946C292.691 29.4973 292.549 29.5212 292.406 29.5345C292.332 29.5425 292.263 29.5478 292.194 29.5558C291.921 29.5851 291.921 29.585 291.424 29.4148C291.229 29.3483 291.009 29.4414 290.823 29.3776C290.697 29.335 290.589 29.2712 290.468 29.226C290.416 29.2074 290.334 29.2047 290.269 29.21C290.053 29.2286 289.836 29.2419 289.629 29.2765C289.482 29.3004 289.395 29.3749 289.413 29.4494C289.417 29.4787 289.521 29.5212 289.581 29.5239C289.72 29.5292 289.867 29.492 290.001 29.5106C290.131 29.5292 290.265 29.5824 290.36 29.6409C290.555 29.7632 290.775 29.6542 290.961 29.6861C291.156 29.7207 291.316 29.8271 291.502 29.8909C291.549 29.9069 291.64 29.8803 291.714 29.8723C291.926 29.8537 292.138 29.8377 292.35 29.8191C292.527 29.8962 292.717 29.9654 292.877 30.0532C293.167 30.2128 293.479 30.2739 293.855 30.1968C294.067 30.1542 294.275 30.1702 294.443 30.2739C294.616 30.3803 294.815 30.3697 295.036 30.3484C295.239 30.3271 295.447 30.2686 295.654 30.3431C296.104 30.508 296.109 30.516 296.641 30.4521C296.801 30.4335 296.922 30.4282 297.043 30.4894C297.155 30.5452 297.277 30.5931 297.393 30.6463C297.605 30.6277 297.822 30.6091 298.034 30.5878C298.306 30.5585 298.457 30.5958 298.522 30.7447C298.561 30.8351 298.579 30.9176 298.674 30.9788C298.786 31.0532 298.907 31.0506 299.072 31.0293C299.227 31.0107 299.34 30.9814 299.405 30.8857C299.431 30.8458 299.483 30.8085 299.53 30.7766C299.569 30.7527 299.63 30.7155 299.664 30.7208C299.729 30.7314 299.816 30.7607 299.837 30.7952C300.049 31.1171 300.049 31.1197 300.266 31.2128C300.504 31.3166 300.75 31.4096 300.966 31.5267C301.161 31.6304 301.356 31.5852 301.568 31.5852C301.728 31.5852 301.832 31.6544 301.819 31.7235C301.81 31.7634 301.749 31.8219 301.697 31.8272C301.274 31.8804 300.845 31.9256 300.417 31.9629C300.365 31.9682 300.3 31.9203 300.24 31.8964C300.119 31.8485 300.01 31.774 299.881 31.7581C299.751 31.7421 299.599 31.782 299.457 31.7953C299.314 31.8086 299.163 31.8432 299.033 31.8219C298.903 31.8007 298.799 31.7235 298.678 31.673C298.622 31.649 298.544 31.6145 298.496 31.6225C298.181 31.6863 297.947 31.5985 297.722 31.4815C297.675 31.4575 297.592 31.4416 297.532 31.4469C297.03 31.4921 296.533 31.5453 296.031 31.5958C295.828 31.6171 295.663 31.524 295.62 31.3671C295.598 31.2793 295.555 31.1915 295.555 31.1038C295.555 30.9442 295.317 30.8564 295.144 30.875C294.859 30.9016 294.569 30.9229 294.288 30.9628C294.058 30.9947 293.864 30.9628 293.708 30.8671C293.526 30.758 293.319 30.7793 293.111 30.8085C292.955 30.8298 292.912 30.9176 292.921 31.1384C292.929 31.3166 292.856 31.3724 292.575 31.4017C292.22 31.4389 291.861 31.4761 291.502 31.5054C291.446 31.5107 291.381 31.4655 291.324 31.4416C291.203 31.3937 291.095 31.3166 290.965 31.3006C290.836 31.282 290.684 31.3219 290.542 31.3378C290.399 31.3511 290.247 31.3884 290.118 31.3698C289.988 31.3511 289.88 31.2714 289.763 31.2208C289.707 31.1969 289.637 31.1623 289.581 31.1676C289.296 31.1889 289.01 31.2208 288.725 31.2501C288.405 31.282 288.405 31.282 287.95 31.1171C287.743 31.0426 287.535 31.1011 287.332 31.1224C287.116 31.1437 286.912 31.1543 286.744 31.0479C286.631 30.9788 286.506 30.9362 286.372 30.9495C286.013 30.9814 285.658 31.0213 285.299 31.0533C285.238 31.0586 285.156 31.0453 285.109 31.0213C284.879 30.9096 284.654 30.8218 284.334 30.8777C284.057 30.9256 283.759 30.9282 283.482 30.9734C283.331 30.9974 283.261 31.0825 283.292 31.149C283.309 31.1836 283.4 31.2235 283.46 31.2235C283.599 31.2261 283.75 31.1862 283.88 31.2022C284.148 31.2341 284.282 31.4575 284.633 31.3963C284.84 31.3591 285.057 31.3458 285.273 31.3352C285.329 31.3325 285.39 31.3831 285.45 31.4097C285.623 31.4815 285.775 31.5745 286.026 31.5267C286.233 31.4894 286.454 31.4788 286.666 31.4575C287.003 31.423 287.003 31.4256 287.44 31.5879C287.648 31.665 287.855 31.6038 288.059 31.5852C288.21 31.5719 288.353 31.5453 288.474 31.5825C288.66 31.6384 288.794 31.766 289.023 31.7581C289.239 31.7501 289.451 31.7129 289.668 31.6996C289.802 31.6916 289.927 31.7341 290.035 31.806C290.148 31.8778 290.269 31.9097 290.416 31.8937C290.628 31.8724 290.844 31.8459 291.061 31.8326C291.121 31.8299 291.19 31.8538 291.247 31.8751C291.368 31.923 291.484 31.9788 291.601 32.0294C291.813 32.0134 292.03 32.0081 292.237 31.9762C292.397 31.9523 292.51 31.9629 292.64 32.0161C292.804 32.0879 292.938 32.2156 293.206 32.1544C293.34 32.1251 293.496 32.1331 293.63 32.1065C293.794 32.0719 293.907 32.0852 294.024 32.165C294.244 32.3166 294.521 32.3193 294.807 32.2608C295.118 32.1969 295.352 32.2714 295.585 32.3885C295.832 32.5108 295.832 32.5081 296.022 32.8034C296.078 32.8885 296.238 32.9284 296.373 32.9124C296.597 32.8858 296.792 32.8991 296.957 33.0002C297.13 33.1092 297.337 33.096 297.549 33.0667C297.83 33.0268 298.111 32.9922 298.341 33.1465C298.453 33.221 298.574 33.2396 298.726 33.2209C299.154 33.1731 299.587 33.1438 300.006 33.0853C300.261 33.0481 300.408 33.1332 300.581 33.205C300.815 33.3034 301.07 33.3912 301.07 33.6013C301.07 33.6359 301.131 33.6758 301.183 33.7024C301.295 33.7582 301.416 33.8061 301.533 33.8593C301.706 33.9391 301.875 34.0056 302.113 33.963C302.32 33.9285 302.541 33.9178 302.753 33.8939C302.965 33.8699 303.16 33.8566 303.35 33.9577C303.57 34.0721 303.804 34.1811 304.055 34.2663C304.232 34.3274 304.466 34.2237 304.656 34.3062C304.773 34.3567 304.885 34.4152 305.011 34.4578C305.063 34.4764 305.145 34.4631 305.214 34.4578C305.357 34.4471 305.504 34.4392 305.642 34.4126C305.803 34.3833 305.924 34.3886 306.045 34.4498C306.157 34.5057 306.27 34.5828 306.399 34.5987C306.594 34.6227 306.81 34.5163 307.005 34.6386C307.104 34.6998 307.23 34.7583 307.36 34.7769C307.49 34.7956 307.641 34.7556 307.779 34.7583C307.84 34.7583 307.913 34.8009 307.948 34.8355C307.97 34.8541 307.939 34.9046 307.909 34.9312C307.87 34.9631 307.814 35.0057 307.758 35.011C307.329 35.0589 306.901 35.0988 306.473 35.144C306.218 35.1706 306.218 35.1706 305.703 35.003C305.582 34.9631 305.448 34.9711 305.296 34.9897C305.093 35.0136 304.885 35.0589 304.674 35.011C304.397 34.8301 304.055 34.8142 303.692 34.8833C303.54 34.9126 303.402 34.9126 303.289 34.862C303.051 34.761 302.8 34.6679 302.589 34.5482C302.424 34.4551 302.346 34.4471 302.277 34.5748C302.255 34.6147 302.234 34.6572 302.238 34.6945C302.264 34.8275 302.312 34.9578 302.338 35.0908C302.346 35.128 302.312 35.1706 302.29 35.2105C302.221 35.3222 302.13 35.3142 301.979 35.2211C301.827 35.128 301.646 35.0669 301.403 35.1094C301.196 35.1467 300.971 35.1413 300.763 35.1812C300.443 35.2397 300.218 35.1546 299.989 35.0403C299.941 35.0163 299.859 35.003 299.798 35.0083C299.154 35.0695 298.514 35.1387 297.869 35.1998C297.731 35.2131 297.605 35.1732 297.497 35.1014C297.385 35.0296 297.259 34.9924 297.121 35.0057C296.55 35.0615 295.979 35.1121 295.408 35.1812C295.174 35.2105 294.988 35.1759 294.828 35.0828C294.707 35.0136 294.595 34.9924 294.443 35.0004C294.279 35.0083 294.162 35.0349 294.08 35.1121C294.002 35.1866 294.058 35.2317 294.231 35.2903C294.417 35.3541 294.59 35.4366 294.768 35.511C294.91 35.5004 295.053 35.4791 295.192 35.4818C295.252 35.4818 295.308 35.5296 295.369 35.5562C295.542 35.6334 295.702 35.7105 295.949 35.668C296.156 35.6307 296.377 35.6227 296.589 35.5988C296.883 35.5695 296.883 35.5696 297.359 35.7371C297.48 35.7797 297.61 35.777 297.765 35.7531C297.899 35.7344 298.038 35.7717 298.133 35.8515C298.172 35.8834 298.159 35.9366 298.077 36.1122C298.077 36.2425 298.168 36.184 298.198 36.0988C298.246 35.9765 298.155 35.9366 297.982 36.0031C297.861 36.051 297.8 36.1201 297.83 36.176C297.848 36.2052 297.93 36.2425 298.077 36.1122C298.458 35.9526 298.747 35.9339 299.024 35.8914C299.189 35.8674 299.292 35.8781 299.422 35.9472C299.578 36.0297 299.734 36.1175 299.989 36.0749C300.266 36.027 300.56 36.0217 300.841 35.9818C301.1 35.9446 301.235 36.0616 301.399 36.1308C301.598 36.2132 301.819 36.1201 302 36.168C302.191 36.2159 302.325 36.3329 302.545 36.3542C302.865 36.2824 303.069 36.4154 303.311 36.5031C303.501 36.5696 303.726 36.5111 303.929 36.4818C304.159 36.4499 304.349 36.4792 304.509 36.575C304.691 36.684 304.894 36.6601 305.102 36.6361C305.586 36.5829 305.603 36.5749 305.885 36.7212C306.088 36.8276 306.283 36.7798 306.486 36.7665C306.663 36.8383 306.836 36.9154 307.022 36.9792C307.07 36.9952 307.161 36.9686 307.234 36.9606C307.446 36.9393 307.663 36.9181 307.874 36.8968C308.017 36.8835 308.169 36.8436 308.298 36.8595C308.428 36.8782 308.536 36.9553 308.653 37.0058C308.77 37.0564 308.891 37.1069 309.004 37.1601C309.177 37.2399 309.341 37.3064 309.583 37.2665C309.791 37.2319 310.007 37.2213 310.223 37.1973C310.496 37.1681 310.487 37.1761 310.993 37.3356C311.266 37.4234 311.547 37.317 311.824 37.3064C311.962 37.3011 312.096 37.3303 312.191 37.4075C312.23 37.4394 312.217 37.4926 312.23 37.5378C311.517 37.6096 310.799 37.6708 310.093 37.7585C309.821 37.7931 309.678 37.6974 309.531 37.6176C309.289 37.4899 308.969 37.6761 308.74 37.5112C308.601 37.4128 308.402 37.3569 308.164 37.4048C308.026 37.4314 307.879 37.4287 307.736 37.4527C307.373 37.5112 307.04 37.5138 306.75 37.3303C306.65 37.2665 306.508 37.2319 306.404 37.1707C306.283 37.1042 306.166 37.067 306.023 37.0803C305.379 37.1441 304.738 37.208 304.098 37.2771C304.042 37.2824 303.986 37.3223 303.938 37.3516C303.817 37.4261 303.856 37.4846 304.051 37.5325C304.115 37.5484 304.167 37.583 304.228 37.6096C304.345 37.6601 304.453 37.7399 304.583 37.7585C304.712 37.7772 304.864 37.7399 305.007 37.7266C305.149 37.7133 305.301 37.6734 305.431 37.6894C305.56 37.708 305.668 37.7851 305.789 37.833C305.846 37.857 305.915 37.8969 305.971 37.8942C306.257 37.8782 306.538 37.849 306.823 37.825C307.001 37.8969 307.152 38.0006 307.364 38.0245C307.498 38.0405 307.641 38.0112 307.779 38.0165C307.84 38.0192 307.918 38.0591 307.948 38.0937C307.965 38.115 307.909 38.1682 307.866 38.1947C307.701 38.2958 307.477 38.2772 307.273 38.3091C307.053 38.3437 306.854 38.3331 306.685 38.2293C306.572 38.1602 306.447 38.1229 306.309 38.1362C305.949 38.1708 305.595 38.2107 305.236 38.24C305.175 38.2453 305.102 38.2214 305.045 38.2027C304.591 38.0405 304.591 38.0352 304.271 38.0697C303.8 38.1203 303.8 38.1203 303.484 37.9793C303.423 37.9527 303.358 37.9022 303.307 37.9048C302.805 37.9474 302.307 37.9899 301.81 38.0511C301.646 38.0697 301.533 38.0697 301.412 38.0006C301.308 37.9421 301.187 37.8756 301.057 37.8596C300.923 37.8437 300.776 37.8836 300.633 37.8969C300.491 37.9102 300.339 37.9447 300.214 37.9234C300.084 37.9022 299.971 37.8277 299.859 37.7745C299.742 37.7187 299.617 37.7213 299.457 37.7426C298.964 37.8037 298.959 37.7958 298.47 37.6309C298.414 37.6123 298.341 37.591 298.28 37.5963C297.921 37.6282 297.566 37.6681 297.207 37.7C297.069 37.7133 296.935 37.6788 296.84 37.6016C296.801 37.5697 296.814 37.5165 296.788 37.4128C296.758 37.3888 296.792 37.4314 296.801 37.4713C296.866 37.466 296.944 37.4713 296.991 37.45C297.112 37.3995 297.173 37.333 297.142 37.2771C297.125 37.2478 297.043 37.2106 296.991 37.2106C296.896 37.2106 296.814 37.2691 296.788 37.4128C296.515 37.5005 296.225 37.5192 295.944 37.5617C295.78 37.5883 295.676 37.575 295.546 37.5059C295.391 37.4208 295.231 37.3383 294.975 37.3808C294.698 37.4287 294.404 37.4367 294.119 37.474C293.79 37.5165 293.647 37.2771 293.371 37.2824C293.085 37.2878 292.8 37.333 292.514 37.3649C292.263 37.3915 292.263 37.3915 291.744 37.2186C291.554 37.1548 291.329 37.2479 291.143 37.1814C291.017 37.1388 290.909 37.075 290.788 37.0298C290.736 37.0111 290.654 37.0111 290.589 37.0165C290.23 37.0484 289.867 37.0697 289.521 37.1282C289.127 37.1973 288.829 37.1229 288.547 36.9659C288.193 36.9952 287.834 37.0111 287.483 37.0617C287.228 37.0989 287.081 37.0112 286.908 36.9393C286.847 36.9154 286.796 36.8755 286.731 36.8649C286.666 36.8542 286.588 36.8755 286.519 36.8835C286.233 36.9127 285.939 36.926 285.662 36.9739C285.32 37.0351 285.191 36.817 284.927 36.7904C284.749 36.9207 284.654 37.0989 284.304 37.1122C284.018 37.1228 283.733 37.1654 283.447 37.1947C283.305 37.208 283.162 37.2239 283.019 37.2372C282.79 37.2612 282.682 37.3649 282.729 37.5245C282.755 37.6123 282.777 37.7 282.799 37.7878C282.842 37.9447 282.734 38.0777 282.552 38.0963C282.05 38.1469 281.553 38.2001 281.051 38.2453C280.917 38.2586 280.787 38.2133 280.679 38.1415C280.567 38.0697 280.441 38.0378 280.303 38.0511C279.801 38.1016 279.304 38.1549 278.802 38.2001C278.745 38.2054 278.672 38.1788 278.616 38.1575C278.495 38.1096 278.378 38.0538 278.261 38.0033C277.976 38.0272 277.694 38.0431 277.413 38.075C276.959 38.1229 276.959 38.1256 276.626 37.9793C276.565 37.9527 276.505 37.9022 276.449 37.9048C276.232 37.9155 276.02 37.9421 275.804 37.966C275.168 38.0352 275.168 38.0352 274.982 37.9554C274.813 37.8809 274.662 37.7905 274.407 37.833C274.13 37.8809 273.836 37.8968 273.55 37.9234C273.338 37.9421 273.126 37.9634 272.914 37.9687C272.858 37.9713 272.798 37.9208 272.737 37.8942C272.564 37.8117 272.395 37.7452 272.157 37.7905C272.019 37.8171 271.872 37.8224 271.729 37.8357C271.357 37.8729 271.357 37.8729 270.747 37.7133C270.687 37.6974 270.613 37.6787 270.553 37.6867C270.051 37.7346 269.553 37.7878 269.052 37.833C268.991 37.8383 268.918 37.8224 268.857 37.8091C268.174 37.6548 268.174 37.6548 267.447 37.7293C267.17 37.7559 267.161 37.7665 266.872 37.6256C266.742 37.5644 266.634 37.5351 266.482 37.5537C265.911 37.6176 265.336 37.6601 264.769 37.7346C264.514 37.7665 264.367 37.6867 264.194 37.6149C264.133 37.591 264.069 37.5378 264.017 37.5405C263.446 37.591 262.875 37.6522 262.304 37.7027C262.252 37.708 262.187 37.6548 262.126 37.6309C262.009 37.583 261.897 37.5112 261.767 37.4952C261.633 37.4793 261.486 37.5192 261.339 37.5325C260.98 37.567 260.98 37.5644 260.565 37.4075C260.508 37.3862 260.435 37.3569 260.379 37.3622C259.808 37.4154 259.232 37.4607 258.666 37.5378C258.341 37.5803 258.121 37.5032 257.891 37.3915C257.844 37.3676 257.762 37.3569 257.701 37.3622C257.057 37.4234 256.416 37.4926 255.772 37.5537C255.638 37.567 255.508 37.5218 255.4 37.4527C255.227 37.3436 255.024 37.3569 254.807 37.3808C254.31 37.4367 254.305 37.4341 254.011 37.3064C253.951 37.2798 253.899 37.2452 253.834 37.2319C253.773 37.2186 253.696 37.2266 253.631 37.2319C253.345 37.2585 253.06 37.2878 252.774 37.317C252.489 37.3463 252.199 37.3623 251.918 37.4075C251.572 37.4633 251.407 37.2904 251.165 37.2106C250.81 37.2452 250.447 37.2665 250.097 37.3223C249.828 37.3649 249.703 37.2479 249.526 37.1867C249.465 37.1654 249.4 37.1202 249.344 37.1255C248.699 37.184 248.055 37.2479 247.415 37.3197C247.259 37.3356 247.155 37.3144 247.025 37.2505C246.736 37.1069 246.723 37.1122 246.238 37.1654C246.026 37.1894 245.823 37.2106 245.641 37.1016C245.481 37.0032 245.287 36.9792 245.057 37.0111C244.776 37.051 244.486 37.0723 244.201 37.0989C243.915 37.1282 243.63 37.1681 243.344 37.1814C243.115 37.1947 242.977 37.0697 242.795 37.0058C242.739 36.9872 242.661 36.9845 242.596 36.9899C242.31 37.0138 242.016 37.0324 241.74 37.0776C241.402 37.1335 241.216 36.9872 240.978 36.9021C240.926 36.8835 240.84 36.8941 240.775 36.9021C240.273 36.95 239.776 37.0032 239.274 37.0537C239.096 36.9819 238.915 36.9127 238.737 36.8409C238.452 36.8675 238.166 36.8968 237.881 36.9234C237.665 36.9446 237.444 36.9526 237.241 36.9925C236.977 37.0457 236.847 36.9207 236.67 36.8595C236.609 36.8383 236.544 36.793 236.488 36.7984C236.129 36.8276 235.77 36.8595 235.415 36.9048C235.078 36.95 234.944 36.7106 234.667 36.7132C234.382 36.7159 234.087 36.7505 233.811 36.7984C233.49 36.8542 233.265 36.7691 233.036 36.6547C232.989 36.6308 232.906 36.6175 232.846 36.6228C232.487 36.6547 232.132 36.6946 231.773 36.7265C231.713 36.7319 231.639 36.7186 231.579 36.7026C230.895 36.5457 230.895 36.543 230.597 36.575C230.385 36.5962 230.168 36.6228 229.952 36.6361C229.892 36.6414 229.818 36.6175 229.762 36.5962C229.312 36.434 229.312 36.4313 228.987 36.4632C228.702 36.4925 228.416 36.5217 228.131 36.551C227.954 36.4792 227.772 36.41 227.595 36.3382C227.24 36.3728 226.876 36.3994 226.526 36.4473C226.362 36.4685 226.254 36.4606 226.128 36.3941C225.972 36.3143 225.817 36.2212 225.557 36.2664C225.28 36.3143 224.986 36.3196 224.705 36.3595C224.368 36.4074 224.229 36.1653 223.957 36.168C223.671 36.1707 223.377 36.2052 223.1 36.2531C222.78 36.309 222.555 36.2239 222.326 36.1095C222.278 36.0856 222.196 36.0723 222.136 36.0776C221.348 36.1547 220.565 36.2318 219.778 36.3143C219.294 36.3648 219.294 36.3675 218.372 36.2212C218.307 36.2105 218.238 36.1999 218.173 36.2052C217.888 36.2292 217.594 36.2478 217.317 36.293C216.979 36.3489 216.793 36.2052 216.555 36.1174C216.504 36.0988 216.421 36.1095 216.352 36.1148C216.136 36.1334 215.924 36.1574 215.708 36.1787C215.422 36.2079 215.137 36.2372 214.851 36.2664C214.674 36.1973 214.492 36.1254 214.315 36.0563C213.96 36.0909 213.597 36.1095 213.246 36.1653C212.978 36.2079 212.853 36.0962 212.675 36.0324C212.615 36.0111 212.55 35.9659 212.494 35.9685C211.849 36.027 211.205 36.0882 210.564 36.1627C210.301 36.1946 210.179 36.0749 210.002 36.0137C209.942 35.9951 209.872 35.9605 209.816 35.9659C209.388 36.0031 208.96 36.0483 208.531 36.0935C208.289 36.1201 208.289 36.1201 207.761 35.9552C207.701 35.9366 207.632 35.918 207.571 35.9233C206.213 36.0563 204.859 36.1973 203.501 36.3302C203.362 36.3435 203.237 36.3036 203.129 36.2318C203.016 36.16 202.891 36.1228 202.752 36.1361C202.181 36.1919 201.606 36.2425 201.039 36.3116C200.806 36.3409 200.62 36.3063 200.46 36.2132C200.339 36.144 200.226 36.1175 200.075 36.1334C199.789 36.1653 199.504 36.1919 199.218 36.2212C198.933 36.2504 198.647 36.2797 198.362 36.309C198.076 36.3382 197.786 36.3542 197.505 36.3994C197.159 36.4553 196.991 36.2904 196.753 36.2079C196.324 36.2478 195.896 36.2877 195.472 36.3302C194.901 36.3861 194.33 36.4473 193.759 36.5005C193.707 36.5058 193.642 36.4579 193.582 36.434C193.405 36.3675 193.275 36.2744 193.011 36.3037C191.731 36.4446 190.441 36.5643 189.157 36.7026C188.889 36.7319 188.772 36.6175 188.59 36.5563C188.53 36.5377 188.46 36.5005 188.404 36.5058C187.69 36.5723 186.977 36.6467 186.263 36.7186C185.973 36.7478 185.973 36.7478 185.489 36.5829C185.432 36.5643 185.359 36.5403 185.298 36.5457C184.368 36.6361 183.443 36.7319 182.513 36.825C182.374 36.8383 182.249 36.801 182.136 36.7292C182.028 36.6574 181.898 36.6175 181.764 36.6308C180.908 36.7159 180.047 36.7984 179.195 36.8915C178.966 36.9181 178.775 36.8941 178.611 36.7984C178.494 36.7292 178.377 36.6999 178.23 36.7159C176.945 36.8462 175.661 36.9713 174.376 37.1096C174.129 37.1362 173.956 37.0856 173.801 36.9979C173.675 36.9287 173.567 36.9154 173.411 36.926C173.247 36.9393 173.148 36.9686 173.057 37.0484C172.94 37.1521 172.866 37.2824 172.589 37.2904C172.304 37.2984 172.014 37.3303 171.733 37.3756C171.465 37.4208 171.339 37.3011 171.171 37.2292C171.045 37.1787 170.928 37.1707 170.768 37.1947C170.621 37.2159 170.53 37.2612 170.444 37.3463C170.254 37.5271 170.236 37.5271 170.003 37.4128C169.877 37.3516 169.765 37.3037 169.626 37.3143C169.055 37.3675 168.484 37.4261 167.913 37.4872C167.585 37.5218 167.58 37.5271 167.334 37.3942C167.213 37.3277 167.096 37.2957 166.953 37.3117C165.383 37.4713 163.813 37.6256 162.243 37.7931C162 37.8197 161.836 37.7639 161.663 37.6841C161.607 37.6575 161.55 37.6202 161.486 37.6096C161.421 37.5989 161.347 37.6096 161.278 37.6149C160.136 37.7293 158.99 37.8383 157.852 37.966C157.592 37.9953 157.454 37.9102 157.277 37.841C157.216 37.8171 157.164 37.7798 157.099 37.7692C157.034 37.7612 156.957 37.7798 156.887 37.7878C155.745 37.9022 154.599 38.0112 153.461 38.1389C153.189 38.1682 153.072 38.0564 152.895 37.9979C152.834 37.9767 152.769 37.9367 152.713 37.9421C152.354 37.9713 151.999 38.0112 151.64 38.0458C150.784 38.1336 149.927 38.216 149.071 38.3065C148.742 38.341 148.599 38.1043 148.322 38.1149C147.963 38.1282 147.609 38.1814 147.25 38.2187C146.964 38.2479 146.679 38.2746 146.393 38.3065C146.112 38.3357 146.112 38.3357 145.411 38.1814C145.351 38.1681 145.277 38.1495 145.217 38.1548C144.217 38.2533 143.214 38.3517 142.219 38.4581C141.99 38.482 141.799 38.4687 141.635 38.3703C141.518 38.3012 141.397 38.2666 141.254 38.2825C139.753 38.4341 138.257 38.5857 136.756 38.7347C136.699 38.74 136.626 38.7134 136.57 38.6921C136.449 38.6443 136.332 38.5884 136.215 38.5379C136.128 38.599 136.016 38.6549 135.96 38.724C135.882 38.8171 135.778 38.8437 135.614 38.8597C135.449 38.8757 135.346 38.8703 135.216 38.8012C135.06 38.7161 134.9 38.6496 134.645 38.6762C133.075 38.8437 131.504 38.9953 129.934 39.1603C129.675 39.1868 129.554 39.0698 129.372 39.0086C129.311 38.99 129.242 38.9608 129.186 38.9661C128.541 39.0273 127.901 39.0938 127.257 39.1576C125.47 39.3385 123.684 39.5114 121.901 39.7029C121.577 39.7374 121.356 39.6709 121.127 39.5566C121.08 39.5326 120.997 39.5193 120.937 39.5246C118.437 39.7747 115.936 40.0273 113.44 40.28C113.306 40.2933 113.177 40.2507 113.068 40.1816C112.956 40.1098 112.831 40.0752 112.692 40.0885C111.55 40.2029 110.408 40.3173 109.266 40.4343C108.981 40.4636 108.976 40.4662 108.682 40.3385C108.622 40.3119 108.557 40.2614 108.509 40.2667C108.41 40.28 108.315 40.3465 108.245 40.4369C108.176 40.5327 108.068 40.5593 107.908 40.5779C107.744 40.5965 107.635 40.5886 107.51 40.5247C107.35 40.4449 107.203 40.3678 106.943 40.3944C103.66 40.7348 100.377 41.062 97.0937 41.3998C96.8299 41.4264 96.7087 41.3147 96.527 41.2535C96.4665 41.2349 96.406 41.2083 96.3411 41.2029C96.2719 41.1976 96.1983 41.2136 96.1291 41.2216C90.774 41.7615 85.4188 42.3041 80.0637 42.844C79.7436 42.876 79.7479 42.876 79.3975 43.1207C79.3542 43.1499 79.298 43.1898 79.2374 43.1951C77.598 43.3653 75.9543 43.5302 74.3105 43.6952C73.5968 43.767 72.8831 43.8415 72.1693 43.9106C71.9141 43.9345 71.9141 43.9346 71.3042 44.2218C71.2523 44.2458 71.1917 44.2777 71.1311 44.283C68.2762 44.5729 65.4212 44.8628 62.562 45.1474C62.337 45.1687 62.1554 45.2166 62.0516 45.3442C61.978 45.4347 61.8829 45.4879 61.7401 45.5038C59.7417 45.706 57.7433 45.9108 55.7405 46.1076C55.5026 46.1315 55.3598 46.206 55.243 46.3177C55.204 46.355 55.1694 46.3975 55.1132 46.4241C55.0613 46.448 54.9834 46.456 54.9186 46.464C53.2056 46.6369 51.4927 46.8151 49.7754 46.98C49.5202 47.0039 49.4163 47.1023 49.2909 47.2061C49.2476 47.2407 49.2173 47.2885 49.1611 47.3125C49.1048 47.3338 49.0227 47.3337 48.9535 47.3391C47.526 47.4827 46.0986 47.629 44.6711 47.7726C44.3942 47.7593 44.3337 47.9136 44.1996 48.0067C44.152 48.0386 44.1174 48.0811 44.0612 48.1024C44.0007 48.1237 43.9227 48.121 43.8492 48.1263C42.7072 48.2407 41.5652 48.3631 40.4189 48.4695C40.1551 48.4934 40.1031 48.629 39.9604 48.7221C39.9128 48.7514 39.8653 48.7966 39.8091 48.8046C39.0953 48.8817 38.3816 48.9535 37.6679 49.0227C37.43 49.0466 37.43 49.044 37.0104 49.3073C36.9628 49.3366 36.9065 49.3685 36.8459 49.3765C35.7775 49.4882 34.7048 49.5946 33.632 49.7036C33.4936 49.7169 33.3984 49.7807 33.3292 49.8712C33.26 49.9616 33.1605 50.0201 33.0221 50.0334C32.1656 50.1212 31.3091 50.2116 30.4526 50.2914C30.2147 50.3127 30.059 50.3792 29.9552 50.4989C29.8773 50.5893 29.7822 50.6345 29.6308 50.6505C28.7743 50.7356 27.9178 50.8287 27.057 50.9032C26.8061 50.9244 26.6763 51.0149 26.5725 51.1266C26.4903 51.217 26.3951 51.2489 26.2351 51.2649C24.6649 51.4192 23.0904 51.5734 21.5245 51.7436C21.2606 51.7729 21.1265 51.6798 20.9535 51.6133C20.7069 51.5202 20.4777 51.4191 20.4777 51.2117C20.4777 51.1798 20.4042 51.1425 20.3522 51.1159C19.9673 50.9165 19.9673 50.9165 19.9067 50.7037C19.8721 50.5734 19.8332 50.4404 19.8029 50.3074C19.7466 50.0893 19.6082 50.0334 19.2102 50.0733C19.0675 50.0866 18.9247 50.1052 18.782 50.1159C18.57 50.1345 18.41 50.0467 18.3711 49.8871C18.3494 49.7993 18.3235 49.7116 18.3019 49.6238C18.5182 49.6025 18.5138 49.5999 18.8945 49.2781C19.0545 49.1424 19.0546 49.1424 18.7474 49.0067C18.6307 48.9562 18.5182 48.9003 18.3927 48.8525C18.3365 48.8312 18.263 48.8179 18.2024 48.8232C17.8434 48.8551 17.4887 48.8924 17.134 48.9296C16.563 48.9881 16.5629 48.9881 15.9833 48.7168C15.9357 48.6955 15.8622 48.6557 15.8708 48.6344C15.9184 48.536 16.0352 48.4934 16.1823 48.4827C16.3985 48.4668 16.6105 48.4402 16.8224 48.4189C16.9652 48.4056 17.1079 48.3897 17.2507 48.3764C17.3848 48.2753 17.5233 48.1769 17.6487 48.0732C17.8477 47.9136 17.8476 47.9082 17.5751 47.7965C17.4021 47.7221 17.2161 47.6556 17.0387 47.5864C16.8268 47.6077 16.6105 47.6316 16.3985 47.6502C16.1303 47.6742 16.0222 47.6236 15.953 47.4508C15.8924 47.2991 15.966 47.1688 16.1736 47.1369C16.3856 47.105 16.5846 47.0837 16.6928 46.9481C16.7966 46.8178 16.9782 46.7672 17.2032 46.7566C17.3459 46.7486 17.4886 46.73 17.6314 46.714C17.8174 46.6927 17.9169 46.5571 17.878 46.4055C17.8564 46.3071 17.8131 46.2246 17.6444 46.2033C16.896 46.1102 16.8873 46.1129 16.5153 45.932C16.4807 45.9161 16.4548 45.8682 16.4678 45.8443C16.4894 45.8044 16.537 45.7459 16.5889 45.7379C17.0864 45.6794 17.5838 45.6262 18.0813 45.5863C18.2457 45.573 18.3668 45.5543 18.423 45.4559C18.5009 45.3203 18.4663 45.1953 18.3149 45.1022C18.2673 45.0729 18.1894 45.0357 18.1375 45.0384C17.5665 45.0862 16.9998 45.1474 16.4288 45.1953C16.3769 45.2006 16.2818 45.1554 16.2602 45.1208C16.2169 45.057 16.2818 44.9719 16.4332 44.9426C16.6322 44.9027 16.8355 44.9 16.9696 44.767C17.1556 44.5782 17.3848 44.4053 17.5924 44.2245C17.627 44.1926 17.6833 44.1314 17.6704 44.126C17.5622 44.0675 17.4368 44.0223 17.3243 43.9665C17.134 43.8734 17.1339 43.743 17.1772 43.618C17.2118 43.517 17.3416 43.4771 17.5016 43.4771C17.5708 43.4771 17.6573 43.4771 17.7136 43.4531C17.8606 43.3946 17.9082 43.3201 17.8347 43.2643C17.7914 43.2324 17.7136 43.1872 17.6617 43.1925C16.736 43.2803 15.8059 43.3653 14.8846 43.4744C14.612 43.5063 14.4867 43.4052 14.3223 43.3334C14.1969 43.2776 14.08 43.2563 13.9243 43.2962C13.7772 43.3334 13.6345 43.3122 13.5437 43.2244C13.4701 43.1526 13.5999 43.0914 13.9503 43.0223C14.0151 43.009 14.0886 43.001 14.1362 42.9744C14.638 42.6871 14.638 42.6845 14.984 42.6472C15.3214 42.6126 15.3215 42.61 15.4989 42.4557C15.5811 42.3839 15.6718 42.3121 15.7497 42.2376C15.78 42.2083 15.8319 42.1551 15.8146 42.1392C15.7195 42.0567 15.5897 42.0381 15.4383 42.0568C15.1009 42.102 14.7029 42.0647 14.5256 42.3174C14.4564 42.4132 14.3482 42.4398 14.1925 42.4557C12.6266 42.61 11.0607 42.7749 9.49047 42.9238C9.23526 42.9478 9.11853 43.0462 9.01904 43.1552C8.93253 43.2457 8.83734 43.2723 8.67297 43.2882C8.50859 43.3042 8.37876 43.3122 8.2836 43.2244C8.22736 43.1712 8.27496 43.0967 8.40473 43.0223C8.59073 42.9159 8.55611 42.7829 8.49555 42.6579C8.45229 42.5754 8.3182 42.5169 8.17545 42.5222C7.9635 42.5329 7.76025 42.5621 7.58289 42.4557C7.47908 42.3945 7.34928 42.352 7.23249 42.2988C7.00756 42.1897 6.78261 42.078 6.46684 42.1498C6.25056 42.1232 6.09916 42.0275 5.92613 41.953C5.63631 41.8307 5.61036 41.812 5.81799 41.6817C6.05158 41.5354 5.86986 41.3439 5.99963 41.2003C6.13806 41.046 6.32845 40.9104 6.49715 40.7668C6.54041 40.7295 6.57935 40.6949 6.62261 40.6577C6.52312 40.6045 6.4323 40.538 6.3155 40.5008C6.16411 40.4529 6.08624 40.3944 6.09489 40.2295C6.06461 40.2055 6.0775 40.2667 6.11211 40.2827C6.15104 40.2986 6.24627 40.2853 6.29386 40.2667C6.41497 40.2162 6.47547 40.1497 6.44519 40.0938C6.42789 40.0646 6.34576 40.0273 6.29386 40.0273C6.19869 40.0273 6.11652 40.0859 6.09056 40.2295C5.60609 40.3385 5.10423 40.3917 4.60246 40.4343C4.55055 40.4396 4.4857 40.3864 4.42514 40.3598C4.22616 40.2694 4.22614 40.272 3.64217 40.2454C3.58161 40.2428 3.49947 40.2056 3.46919 40.1683C3.34374 40.0061 3.3481 39.8279 3.28754 39.655C3.40001 39.5433 3.51239 39.4342 3.62918 39.3252C3.86277 39.1044 4.16563 38.9102 4.34731 38.6682C4.30838 38.5379 4.25646 38.4075 4.44679 38.3011C4.9875 38.1682 4.98321 38.1682 5.13028 38.0405C5.54987 37.6788 5.96511 37.3144 6.402 36.9579C6.51879 36.8649 6.51881 36.8143 6.31117 36.7744C6.24629 36.7638 6.17699 36.7611 6.10778 36.7665C5.89149 36.7851 5.67521 36.8329 5.46326 36.8223C5.2513 36.8143 5.09558 36.6973 4.92255 36.6255C4.7452 36.551 4.56785 36.4739 4.3905 36.3967C4.1872 36.4047 3.98393 36.4792 3.78062 36.3595C3.6249 36.2664 3.43026 36.1999 3.2529 36.1228C3.387 35.9206 3.63793 35.7664 3.83258 35.5882C4.00993 35.4259 4.01416 35.4286 4.48998 35.3036C4.71492 35.2451 4.79278 34.9445 4.60246 34.8567C4.3732 34.7503 4.13101 34.6519 3.89742 34.5508C3.69412 34.5588 3.48653 34.6307 3.29187 34.511C3.14048 34.4205 2.96741 34.3593 2.71653 34.3939C2.29261 34.4524 1.86006 34.4817 1.43182 34.5296C1.28475 34.5455 1.12465 34.5349 1.05977 34.4445C1.01651 34.3806 1.14196 34.2929 1.28471 34.2742C1.50099 34.2476 1.69562 34.2157 1.80377 34.0827C1.90758 33.9498 2.09789 33.9098 2.32282 33.8912C2.38338 33.8859 2.45264 33.854 2.48292 33.8221C2.63865 33.6678 2.81169 33.5348 3.14476 33.5401C3.28318 33.4869 3.35667 33.4204 3.31342 33.3566C3.28746 33.322 3.19667 33.2768 3.14476 33.2822C2.78573 33.3087 2.42672 33.3353 2.07634 33.3832C1.91196 33.4045 1.78645 33.4098 1.68263 33.33C1.6091 33.2768 1.64803 33.205 1.78645 33.1279C1.90757 33.0614 1.94221 32.9842 1.93356 32.8938C1.91193 32.6837 1.78213 32.6225 1.36687 32.6358C1.0684 32.6464 0.994859 32.6119 0.929975 32.431C0.912672 32.3884 0.869491 32.3299 0.899771 32.3007C1.08577 32.1198 1.2069 31.8964 1.55728 31.8113C1.6957 31.7794 1.84271 31.7794 1.92923 31.7102C2.01574 31.6411 2.09364 31.5612 2.18448 31.4948C2.29695 31.415 2.37473 31.3405 2.32282 31.29C2.23631 31.1995 2.09794 31.1916 1.93789 31.2235C1.79947 31.2501 1.6524 31.2527 1.50965 31.2687C1.25444 31.2979 1.04685 31.2288 1.01657 31.1118C0.934385 30.8032 0.847846 30.4974 0.77431 30.1888C0.765659 30.1516 0.787228 30.1037 0.821833 30.0718C0.942951 29.9601 1.07277 29.8537 1.19822 29.7446C1.34529 29.6196 1.57891 29.6436 1.77789 29.6196C2.05906 29.5851 2.05896 29.5877 2.4353 29.3324C2.58237 29.2313 2.83759 29.2712 2.98899 29.1808C3.03657 29.1515 3.11011 29.1036 3.09713 29.077C3.07983 29.0425 2.99336 29.0158 2.92848 28.9999C2.86792 28.9839 2.7944 28.976 2.72952 28.9839C1.94225 29.0611 1.15932 29.1435 0.372053 29.218C0.237958 29.2313 0.0908811 29.1728 0.0432988 29.0903C-0.00428342 29.0132 0.00865132 28.9201 0 28.8323C0.125444 28.7233 0.268136 28.6222 0.376277 28.5052C0.458465 28.4147 0.553646 28.3748 0.718021 28.3695C0.934304 28.3615 1.14628 28.3296 1.38852 28.3057C1.83839 27.9174 2.27958 27.5104 2.76405 27.1221C2.9587 26.9652 2.9112 26.8056 2.95013 26.638C2.98906 26.4837 3.27886 26.5077 3.47352 26.4625C3.62924 26.4252 3.68108 26.3401 3.62052 26.2816C3.58592 26.247 3.5081 26.2071 3.44754 26.2071C3.30479 26.2071 3.16205 26.2311 3.0193 26.2444C2.87655 26.2577 2.71219 26.2497 2.5954 26.2949C2.48293 26.3375 2.40935 26.4279 2.33581 26.505C2.25363 26.5901 2.14556 26.6194 1.98119 26.6247C1.76923 26.63 1.55728 26.654 1.34533 26.6726C1.11174 26.5688 0.869453 26.4678 0.644519 26.3587C0.601262 26.3375 0.592565 26.2763 0.59689 26.2364C0.605542 26.1327 0.540674 26.0688 0.397927 26.0183C0.276808 25.9757 0.17731 25.9146 0.0648426 25.8614C0.151356 25.7896 0.246554 25.7204 0.315765 25.6432C0.467163 25.481 0.657513 25.364 0.986263 25.3693C1.11603 25.2656 1.21982 25.1379 1.38852 25.0661C1.54857 24.9969 1.8211 25.0661 1.94222 24.9091C2.00278 24.832 2.09367 24.7442 2.21046 24.7123C2.39646 24.6618 2.63869 24.6884 2.74684 24.5395C2.81172 24.4544 2.90685 24.3772 3.03229 24.3559C3.17504 24.332 3.32207 24.3267 3.42589 24.2761C3.48212 24.2496 3.54269 24.207 3.54269 24.1698C3.54269 24.1458 3.45624 24.1086 3.39568 24.0926C3.33945 24.074 3.26583 24.0607 3.20095 24.066C2.98466 24.082 2.77271 24.1112 2.55643 24.1272C2.49587 24.1325 2.42668 24.1139 2.36179 24.0979C2.17146 24.0554 2.18442 24.0022 2.33581 23.9064C2.48721 23.8133 2.59541 23.6936 2.72086 23.5846C2.85928 23.566 3.03228 23.5739 3.12744 23.5234C3.28749 23.441 3.39993 23.3213 3.5297 23.2175C3.67245 23.2016 3.81951 23.1963 3.95361 23.167C4.00984 23.1564 4.03581 23.0979 4.0834 23.0633C4.16991 22.9968 4.24351 22.901 4.3603 22.8691C4.55063 22.8212 4.78421 22.8399 4.89668 22.6936C4.96156 22.6085 5.06101 22.518 5.18213 22.5127C5.51953 22.5021 5.66228 22.3558 5.83531 22.2175C5.96508 22.1137 6.24193 22.1669 6.38468 22.0632C6.47984 21.9967 6.54909 21.9142 6.64426 21.8504C6.68319 21.8238 6.76535 21.8105 6.83023 21.8025C7.18494 21.7626 7.54395 21.7334 7.89866 21.6908C7.95489 21.6828 8.00684 21.643 8.0501 21.611C8.14094 21.5419 8.19711 21.4461 8.30957 21.4009C8.42204 21.3557 8.58207 21.3557 8.72049 21.3424C9.16603 21.3025 9.20067 21.3131 9.40398 21.087C9.56835 20.9035 9.97069 21.0339 10.1048 20.8317C10.1826 20.7147 10.3253 20.6189 10.5805 20.6056C10.9396 20.587 11.2943 20.5365 11.6533 20.5019C11.9734 20.47 11.9691 20.47 12.3151 20.2226C12.4709 20.1109 12.7002 20.1269 12.9035 20.1056C13.1198 20.0843 13.3187 20.0524 13.4225 19.9194C13.5263 19.7891 13.7167 19.7465 13.9373 19.7279C14.1406 19.7093 14.3699 19.7226 14.5299 19.6162C14.9192 19.3609 14.9149 19.3582 15.1874 19.3316C15.6157 19.289 16.0439 19.2465 16.4721 19.2013C16.7576 19.172 17.0561 19.1667 17.3243 19.1082C17.5189 19.0656 17.6054 18.9167 17.7309 18.813C18.0856 18.7731 18.4403 18.7331 18.795 18.6959C19.2924 18.6427 19.7942 18.5949 20.296 18.5443C20.5122 18.4432 20.5426 18.2198 20.9059 18.2092C21.1222 18.2039 21.3342 18.1693 21.5505 18.148C21.9095 18.1108 22.2642 18.0629 22.6232 18.0443C22.8957 18.031 22.9432 17.8873 23.086 17.7969C23.1336 17.765 23.1769 17.7198 23.2331 17.7118C23.7954 17.6373 24.375 17.6214 24.9244 17.5123C24.9806 17.5017 25.0325 17.4458 25.0455 17.4059C25.0542 17.3846 24.9806 17.3448 24.9331 17.3262C24.8768 17.3049 24.8033 17.2836 24.7427 17.2889C22.9563 17.4671 21.1698 17.648 19.3833 17.8262C19.1324 17.8528 19.1324 17.8501 18.5225 18.1427C18.4706 18.1666 18.41 18.1932 18.3451 18.2012C18.0596 18.2331 17.7698 18.2518 17.4886 18.2917C17.2594 18.3236 17.0691 18.2916 16.9047 18.1959C16.7879 18.1267 16.6667 18.1055 16.5197 18.1108C16.3553 18.1188 16.2472 18.148 16.152 18.2198C16.0266 18.3182 15.9617 18.4459 15.6978 18.4725C14.4823 18.5869 13.2667 18.7145 12.0556 18.8369C11.8869 18.7996 11.8047 18.7438 11.8479 18.6773C11.8739 18.6374 11.9258 18.5842 11.9777 18.5789C12.4752 18.523 12.9769 18.4752 13.4744 18.422C13.5436 18.414 13.6387 18.4193 13.6777 18.3927C13.868 18.273 13.9373 18.0788 14.2963 18.0655C14.504 18.0576 14.7159 18.0177 14.9149 17.9804C14.9711 17.9698 15.023 17.9139 15.036 17.874C15.0403 17.8528 14.9711 17.8129 14.9192 17.7942C14.7289 17.7171 14.5083 17.8102 14.318 17.757C14.2531 17.7384 14.1622 17.7118 14.1492 17.6799C14.1406 17.6506 14.2141 17.6028 14.266 17.5735C14.3136 17.5469 14.3784 17.523 14.4433 17.515C15.0143 17.4538 15.5854 17.39 16.1564 17.3421C16.39 17.3235 16.5543 17.257 16.6581 17.1346C16.736 17.0442 16.8311 16.9963 16.9782 16.983C17.9774 16.8846 18.9766 16.7756 19.9802 16.6851C20.2311 16.6639 20.3609 16.5761 20.4647 16.4617C20.5469 16.3713 20.6421 16.3394 20.8021 16.3234C22.2339 16.1851 23.657 16.0308 25.0888 15.8979C25.3527 15.8739 25.4306 15.7595 25.5647 15.6611C25.6123 15.6266 25.6425 15.584 25.703 15.5627C25.7636 15.5414 25.8415 15.5441 25.915 15.5388C27.057 15.4244 28.199 15.3021 29.3453 15.1957C29.6135 15.1717 29.6653 15.0387 29.8038 14.9456C29.8513 14.9164 29.8946 14.8685 29.9509 14.8605C30.8073 14.7701 31.6638 14.685 32.5203 14.5972C33.0913 14.5387 33.6622 14.4802 34.2332 14.4243C34.5144 14.3977 34.5144 14.3951 34.8951 14.1424C34.9383 14.1131 34.9989 14.0785 35.0552 14.0706C36.6989 13.9003 38.3383 13.7381 39.982 13.5705C40.1205 13.5573 40.2199 13.496 40.2891 13.4056C40.3584 13.3152 40.4579 13.254 40.592 13.2407C41.8767 13.1077 43.1614 12.9774 44.4505 12.8524C44.6841 12.8311 44.8484 12.7673 44.9522 12.6476C45.0301 12.5571 45.1252 12.5093 45.2723 12.496C46.557 12.3683 47.8418 12.2327 49.1309 12.1103C49.3774 12.0864 49.4985 11.9959 49.6196 11.8896C49.6629 11.8523 49.6975 11.7911 49.7494 11.7858C50.3896 11.7113 51.0255 11.6342 51.67 11.5837C51.9382 11.5624 52.029 11.4507 52.1372 11.3443C52.2237 11.2592 52.3232 11.2299 52.4876 11.2193C52.8466 11.1953 53.2013 11.1501 53.5517 11.1049C53.6036 11.097 53.6685 11.0384 53.6728 11.0012C53.6815 10.932 53.5819 10.8842 53.4176 10.8602C51.7046 11.0331 49.9874 11.206 48.2744 11.3789C47.9932 11.4081 47.9932 11.4081 47.6126 11.6608C47.5693 11.6901 47.5087 11.7247 47.4481 11.7326C45.8044 11.9002 44.165 12.0651 42.5213 12.2327C42.3828 12.246 42.2834 12.3071 42.2141 12.3976C42.1449 12.488 42.0454 12.5492 41.9113 12.5625C40.3411 12.7221 38.7709 12.8843 37.1963 13.0359C36.9628 13.0572 36.7984 13.1184 36.6946 13.2407C36.6167 13.3311 36.5216 13.379 36.3745 13.3923C34.8735 13.5413 33.3768 13.6982 31.8714 13.8418C31.72 13.8551 31.6076 13.778 31.6163 13.7062C31.6206 13.6689 31.6854 13.6078 31.7373 13.6025C32.5203 13.5147 33.2989 13.4242 34.0862 13.3578C34.3501 13.3365 34.4279 13.2194 34.562 13.121C34.6052 13.0865 34.6399 13.0412 34.6961 13.0226C34.7567 13.0013 34.8345 13.004 34.908 12.9987C36.7638 12.8098 38.6195 12.6183 40.4796 12.4401C40.7477 12.4135 40.7996 12.2832 40.938 12.1901C40.9856 12.1582 41.0289 12.1103 41.0851 12.105C41.6561 12.0412 42.2271 11.9853 42.798 11.9295C43.7973 11.8284 44.7965 11.7273 45.8 11.6262C46.0898 11.597 46.0899 11.597 46.4619 11.3469C46.5051 11.3177 46.5657 11.2805 46.622 11.2752C49.2649 11.0065 51.908 10.7379 54.5509 10.4719C54.6894 10.4586 54.7888 10.3974 54.858 10.307C54.9273 10.2192 55.0267 10.1554 55.1608 10.1394C58.7338 9.7777 62.3025 9.41596 65.8755 9.05955C66.1091 9.03561 66.2734 8.97975 66.3772 8.85474C66.4508 8.76431 66.5502 8.71644 66.6973 8.70048C70.625 8.30418 74.5527 7.90787 78.4847 7.50891C81.1277 7.24293 83.7707 6.97163 86.4137 6.71097C86.6559 6.68704 86.7857 6.60457 86.9068 6.49552C86.9457 6.45828 86.9847 6.3971 87.0366 6.39178C87.6032 6.32529 88.1699 6.26412 88.7365 6.20295C88.9139 6.27476 89.0912 6.34393 89.2686 6.41574C89.4027 6.31467 89.5325 6.21093 89.6666 6.10986C90.5231 6.03273 91.3666 5.91304 92.2317 5.8758C92.2879 5.87314 92.3484 5.92368 92.409 5.95028C92.8113 6.11785 93.0406 6.10455 93.2958 5.88113C93.3866 5.80133 93.4645 5.72952 93.6029 5.71622C94.0311 5.66834 94.4638 5.63642 94.8877 5.58057C95.117 5.55131 95.3072 5.5779 95.4716 5.67365C95.5884 5.74281 95.7096 5.77208 95.8523 5.75612C96.6396 5.67633 97.4225 5.59919 98.2098 5.51407C98.266 5.50876 98.3179 5.46352 98.3611 5.43161C98.452 5.36245 98.5299 5.28799 98.6164 5.21618C98.7332 5.2614 98.863 5.29598 98.9581 5.35449C99.0792 5.42365 99.1917 5.42363 99.356 5.40501C102.496 5.08318 105.641 4.76933 108.782 4.44484C109.05 4.41824 109.167 4.52996 109.348 4.58848C109.409 4.60976 109.469 4.63634 109.534 4.64166C109.604 4.64698 109.677 4.63104 109.746 4.62306C112.104 4.38368 114.461 4.14694 116.819 3.90756C117.13 3.87564 117.13 3.87564 117.593 4.04055C117.649 4.06183 117.723 4.08577 117.783 4.07779C118.856 3.97406 119.929 3.86236 120.997 3.75597C121.136 3.74267 121.253 3.78521 121.378 3.84639C121.625 3.96608 121.642 3.96609 121.823 3.79054C121.91 3.70809 122.001 3.65753 122.144 3.63359C122.299 3.607 122.425 3.615 122.546 3.66288C122.719 3.72937 122.844 3.84107 123.108 3.81181C124.25 3.6868 125.397 3.58308 126.534 3.45541C126.794 3.42615 126.932 3.51658 127.105 3.58307C127.166 3.60701 127.222 3.64425 127.287 3.65223C127.352 3.66021 127.43 3.64157 127.499 3.63359C128.926 3.48997 130.358 3.34902 131.781 3.19476C132.049 3.1655 132.166 3.27985 132.348 3.33836C132.408 3.35964 132.478 3.3969 132.534 3.39158C133.39 3.30912 134.251 3.22133 135.108 3.13355C135.415 3.10164 135.415 3.1043 135.882 3.26654C135.938 3.28782 136.012 3.3091 136.072 3.30378C137.072 3.20537 138.075 3.1043 139.074 3.00323C139.381 2.97131 139.381 2.97132 140.268 3.10963C140.333 3.12027 140.402 3.13624 140.467 3.13093C141.609 3.01655 142.755 2.90483 143.897 2.78248C144.127 2.75854 144.317 2.77981 144.481 2.87556C144.598 2.94472 144.719 2.97399 144.862 2.95803C146.147 2.8277 147.436 2.7027 148.716 2.56439C148.963 2.53779 149.123 2.59629 149.296 2.67342C149.352 2.70002 149.408 2.73726 149.473 2.7479C149.538 2.75854 149.612 2.74789 149.681 2.73991C150.966 2.60958 152.255 2.48724 153.535 2.34627C153.794 2.31701 153.933 2.40744 154.106 2.47394C154.167 2.49787 154.231 2.54575 154.283 2.54309C154.785 2.49788 155.287 2.45799 155.784 2.3915C156.052 2.35426 156.169 2.47659 156.351 2.53511C156.411 2.55372 156.481 2.59364 156.537 2.58832C157.61 2.48459 158.683 2.37555 159.751 2.26384C159.902 2.24788 160.015 2.27179 160.136 2.34095C160.296 2.43404 160.482 2.47128 160.716 2.44202C161.213 2.38084 161.715 2.3383 162.217 2.28776C162.511 2.25851 162.511 2.25852 163.41 2.39682C163.475 2.40746 163.545 2.42341 163.609 2.41809C164.466 2.33298 165.327 2.25053 166.179 2.15744C166.408 2.13084 166.598 2.15477 166.763 2.25052C166.88 2.31968 166.996 2.34895 167.143 2.33299C167.931 2.2532 168.714 2.1734 169.501 2.09361C169.786 2.06435 170.072 2.0138 170.357 2.0138C170.565 2.01646 170.717 2.14412 170.903 2.20796C170.954 2.22658 171.041 2.20532 171.11 2.2C172.109 2.09893 173.113 2.00583 174.108 1.89146C174.367 1.8622 174.506 1.95263 174.679 2.01912C174.739 2.04306 174.804 2.09094 174.856 2.08828C175.215 2.05902 175.57 2.01912 175.929 1.98455C176.357 1.94199 176.79 1.91007 177.214 1.85156C177.56 1.80368 177.689 2.03507 177.966 2.04305C178.178 2.05103 178.394 2.00582 178.606 1.98455C179.035 1.94199 179.463 1.89412 179.891 1.85688C180.043 1.84358 180.159 1.80101 180.207 1.70526C180.216 1.68664 180.142 1.64676 180.095 1.62282C179.519 1.35152 179.519 1.35151 178.94 1.41002C178.58 1.44726 178.226 1.4845 177.867 1.51642C177.806 1.52174 177.737 1.50046 177.676 1.48451C177.503 1.43929 177.521 1.3861 177.668 1.29035C177.815 1.1946 177.927 1.07758 178.053 0.968525C178.23 1.03768 178.403 1.10681 178.581 1.17596C178.723 1.16266 178.866 1.14673 179.009 1.13343C179.723 1.06428 180.436 0.992457 181.15 0.928622C181.202 0.923302 181.267 0.976506 181.327 1.0031C181.5 1.08024 181.656 1.14671 181.907 1.11746C182.547 1.04032 183.192 0.984467 183.832 0.917973C184.113 0.888715 184.113 0.888718 184.606 1.05362C184.662 1.07224 184.736 1.09352 184.796 1.0882C185.441 1.02703 186.081 0.960541 186.726 0.896706C186.864 0.883407 186.998 0.917983 187.098 0.995116C187.137 1.02703 187.128 1.08022 187.292 1.51642C187.803 1.87017 188.153 1.83295 188.508 1.80104C188.659 1.78774 188.793 1.77443 188.893 1.72123C188.945 1.69197 189.01 1.64941 189.01 1.61483C189.01 1.58823 188.915 1.54567 188.854 1.54035C188.426 1.48716 188.019 1.59888 187.599 1.62282C187.405 1.63346 187.236 1.54037 187.202 1.38876C187.193 1.3462 187.18 1.30099 187.167 1.25843C187.154 1.21588 187.145 1.17066 187.132 1.12811C186.964 1.11481 186.864 1.16267 186.791 1.25311C186.73 1.32758 186.644 1.41269 186.527 1.45259C186.41 1.49515 186.25 1.48718 186.107 1.50048C185.969 1.51378 185.817 1.54835 185.688 1.52973C185.558 1.50846 185.454 1.43131 185.333 1.38343C185.277 1.3595 185.207 1.32493 185.151 1.33025C184.654 1.37547 184.161 1.42067 183.668 1.47918C183.408 1.5111 183.278 1.39941 183.114 1.33025C182.984 1.27706 182.854 1.29034 182.833 1.41269C182.776 1.70526 182.975 1.82761 183.417 1.77175C183.78 1.72387 184.109 1.71592 184.394 1.89678C184.433 1.92072 184.524 1.93136 184.58 1.92604C184.935 1.89412 185.285 1.85422 185.64 1.8223C185.705 1.81698 185.774 1.82761 185.835 1.83824C186.717 1.98187 186.717 1.98455 187.016 1.95263C187.158 1.93667 187.297 1.92337 187.284 1.51908C187.556 1.08554 187.989 1.05629 188.408 0.992454C188.681 0.952557 188.798 1.06959 188.975 1.13077C189.036 1.15205 189.101 1.19459 189.157 1.18927C190.087 1.1015 191.012 1.0084 191.938 0.909985C192.094 0.894027 192.206 0.909988 192.327 0.979142C192.483 1.06691 192.656 1.12278 192.903 1.09086C193.396 1.02703 193.898 0.987142 194.399 0.933947C194.655 0.907349 194.655 0.907322 195.169 1.07223C195.226 1.09085 195.299 1.11213 195.36 1.10681C195.861 1.06159 196.359 1.00575 196.856 0.957876C196.995 0.944577 197.12 0.98181 197.228 1.05362C197.337 1.12544 197.466 1.16267 197.6 1.14937C198.102 1.1015 198.6 1.04832 199.097 1.00044C199.158 0.995122 199.231 1.01374 199.287 1.03236C199.815 1.19726 199.815 1.19724 200.057 1.17064C200.412 1.13074 200.775 1.11214 201.126 1.05895C201.468 1.00575 201.645 1.16001 201.878 1.24512C202.519 1.18394 203.163 1.13342 203.799 1.05895C204.059 1.02703 204.197 1.1148 204.37 1.18395C204.431 1.20789 204.491 1.25843 204.547 1.25577C204.764 1.24513 204.976 1.21588 205.188 1.1946C205.4 1.17332 205.616 1.15205 205.828 1.13077C206.07 1.2079 206.23 1.38876 206.576 1.32759C206.784 1.29035 207.004 1.28237 207.216 1.26109C207.428 1.23982 207.645 1.21854 207.857 1.19726C207.999 1.18396 208.146 1.17597 208.285 1.15203C208.54 1.11214 208.666 1.24248 208.847 1.301C208.908 1.31962 208.977 1.35151 209.033 1.34619C209.461 1.30896 209.894 1.27704 210.314 1.21587C210.638 1.16799 210.859 1.24779 211.088 1.3595C211.135 1.38344 211.218 1.39674 211.278 1.39142C211.78 1.3462 212.277 1.29033 212.775 1.24246C212.909 1.22916 213.039 1.27171 213.147 1.34087C213.259 1.41268 213.385 1.44728 213.523 1.43399C214.021 1.38611 214.522 1.3329 215.02 1.28502C215.08 1.2797 215.154 1.30099 215.21 1.32226C215.695 1.48717 215.695 1.48983 215.98 1.45791C216.049 1.44994 216.123 1.4446 216.192 1.43662C216.547 1.39938 216.915 1.3861 217.261 1.32226C217.659 1.25045 217.948 1.34089 218.23 1.49249C218.584 1.46058 218.948 1.44195 219.294 1.38876C219.553 1.34886 219.692 1.44993 219.865 1.51642C219.925 1.54036 219.99 1.58824 220.042 1.58292C220.544 1.5377 221.045 1.49782 221.539 1.43132C221.807 1.39409 221.924 1.51375 222.105 1.57493C222.166 1.59621 222.231 1.63346 222.287 1.62814C222.572 1.60687 222.858 1.57493 223.144 1.54568C223.477 1.5111 223.476 1.51376 223.918 1.676C224.125 1.75314 224.333 1.69196 224.536 1.67334C224.753 1.65206 224.956 1.63611 225.129 1.74516C225.237 1.81431 225.367 1.85687 225.501 1.84623C225.786 1.82229 226.076 1.79837 226.357 1.75847C226.582 1.72655 226.777 1.74782 226.941 1.84623C227.058 1.91539 227.179 1.94998 227.322 1.93403C227.962 1.87019 228.607 1.80367 229.247 1.7425C229.303 1.73718 229.381 1.76112 229.433 1.78506C229.554 1.83294 229.671 1.88612 229.788 1.93932C230.069 1.91538 230.359 1.90477 230.635 1.86753C230.93 1.83029 231.198 1.81699 231.427 1.96328C231.475 1.9952 231.544 2.04039 231.6 2.03773C231.816 2.02709 232.028 2.0005 232.24 1.97922C232.452 1.95794 232.669 1.93667 232.88 1.91539C233.127 1.98188 233.283 2.17338 233.629 2.11221C233.837 2.07497 234.057 2.06699 234.269 2.04572C234.481 2.02444 234.697 2.0005 234.909 1.98188C234.978 1.97656 235.056 1.96326 235.117 1.9739C235.182 1.98454 235.238 2.02178 235.294 2.04838C235.467 2.12551 235.627 2.20265 235.874 2.15744C236.082 2.1202 236.302 2.11222 236.514 2.08828C236.804 2.05902 236.804 2.05903 237.284 2.22659C237.479 2.29575 237.699 2.20532 237.885 2.26384C238.011 2.30373 238.119 2.37021 238.24 2.41543C238.292 2.43405 238.374 2.44201 238.435 2.43669C238.72 2.41276 239.01 2.38883 239.291 2.34893C239.52 2.31702 239.711 2.34893 239.871 2.44468C239.988 2.51384 240.104 2.54311 240.251 2.52715C240.965 2.45268 241.679 2.38882 242.388 2.30637C242.631 2.27711 242.825 2.32234 242.959 2.41809C243.189 2.583 243.513 2.38884 243.751 2.52183C243.898 2.60428 244.045 2.70004 244.313 2.66014C244.806 2.59099 245.308 2.55373 245.806 2.50585C245.983 2.57767 246.16 2.6495 246.342 2.72131C246.627 2.69205 246.913 2.66278 247.198 2.63618C247.41 2.6149 247.627 2.59096 247.839 2.57235C247.908 2.56703 247.981 2.55638 248.046 2.56968C248.111 2.58298 248.163 2.61757 248.224 2.64417C248.522 2.77449 248.522 2.77717 249.015 2.72397C249.227 2.70003 249.431 2.68407 249.608 2.79047C249.772 2.88888 249.967 2.90748 250.192 2.87823C250.616 2.82503 251.044 2.78514 251.477 2.7479C251.611 2.7346 251.736 2.77982 251.849 2.84897C252.017 2.95802 252.225 2.94739 252.437 2.91813C252.718 2.88089 252.995 2.84366 253.233 2.99261C253.28 3.02453 253.354 3.06972 253.406 3.06706C253.761 3.04578 254.12 3.02984 254.466 2.9793C254.812 2.92876 254.98 3.09366 255.218 3.17346C255.573 3.13888 255.932 3.1043 256.287 3.06972C256.356 3.06174 256.438 3.03782 256.499 3.05112C256.754 3.10697 256.901 3.30645 257.251 3.24528C257.455 3.2107 257.675 3.20007 257.887 3.19209C257.943 3.18943 258.017 3.23463 258.056 3.26921C258.078 3.28782 258.056 3.33836 258.03 3.36495C257.952 3.43943 257.857 3.5086 257.788 3.58574C257.779 3.59638 257.861 3.64423 257.909 3.66551C258.026 3.71339 258.16 3.70543 258.315 3.68415C258.449 3.66553 258.588 3.70276 258.683 3.78256C258.722 3.81447 258.709 3.86767 258.627 4.04321C258.627 4.17354 258.718 4.11501 258.748 4.0299C258.796 3.90755 258.705 3.86766 258.532 3.93415C258.411 3.98203 258.35 4.05119 258.38 4.10704C258.398 4.1363 258.48 4.17354 258.627 4.04321C259.007 3.88362 259.293 3.85438 259.579 3.82512C259.652 3.81714 259.739 3.79053 259.79 3.80649C259.976 3.87032 260.15 3.94747 260.331 4.01928C260.539 4.00332 260.733 3.96341 260.937 4.06714C261.222 4.21343 261.235 4.20013 261.512 4.17087C261.655 4.15492 261.798 4.14164 261.94 4.12834C262.083 4.11504 262.195 4.15493 262.321 4.2161C262.576 4.34111 262.598 4.3411 262.766 4.17087C262.866 4.06714 262.935 4.03258 263.061 4.08045C263.476 4.2427 263.48 4.25333 263.835 4.20545C264.129 4.16556 264.406 4.15492 264.622 4.30653C264.769 4.41292 264.817 4.38898 264.934 4.27727C265.245 3.98204 265.388 3.98735 265.972 4.20013C266.244 4.3012 266.526 4.19216 266.802 4.17886C267.036 4.16822 267.2 4.23205 267.218 4.39961C267.231 4.50334 267.27 4.57783 267.425 4.61241C267.486 4.62571 267.559 4.64432 267.62 4.639C267.979 4.60708 268.334 4.56984 268.693 4.5326C268.874 4.51398 268.974 4.389 268.939 4.22409C268.9 4.04854 268.969 3.98469 269.229 3.93415C269.385 3.90489 269.51 3.91024 269.636 3.95811C269.774 4.01131 269.735 4.05918 269.614 4.15493C269.324 4.38899 269.359 4.5326 269.731 4.69484C269.861 4.7507 269.964 4.80126 269.995 4.88371C270.012 4.92627 269.995 4.98212 270.034 5.01404C270.246 5.19224 270.54 5.30662 270.868 5.39174C271.184 5.31992 271.401 5.43959 271.643 5.53534C271.833 5.60981 272.058 5.546 272.261 5.5194C272.491 5.49014 272.681 5.51141 272.845 5.60982C272.962 5.67898 273.083 5.71088 273.226 5.69758C273.511 5.66833 273.801 5.64972 274.082 5.60716C274.325 5.56992 274.506 5.62313 274.658 5.71356C274.848 5.82793 275.06 5.75078 275.259 5.76674C275.527 5.78536 275.661 6.02207 276.012 5.95824C276.219 5.921 276.436 5.90771 276.652 5.89707C276.708 5.89441 276.777 5.93963 276.825 5.97155C277.054 6.11784 277.322 6.10985 277.617 6.0673C277.82 6.03804 278.019 6.01145 278.218 6.11252C278.546 6.28275 278.91 6.43171 279.256 6.58863C279.304 6.71098 279.269 6.85459 279.515 6.9264C279.645 6.96364 279.766 7.01951 279.866 7.08069C279.987 7.1525 280.099 7.17112 280.255 7.15251C280.536 7.11527 280.83 7.10726 281.107 7.05939C281.363 7.01683 281.523 7.10463 281.678 7.18708C281.804 7.25358 281.921 7.28548 282.072 7.2376C282.228 7.19239 282.34 7.22164 282.466 7.29345C282.643 7.39186 282.656 7.38124 283.244 7.4105C283.305 7.41316 283.378 7.45303 283.413 7.48761C283.43 7.50623 283.391 7.55945 283.361 7.58605C283.322 7.61797 283.261 7.65518 283.205 7.66316C282.565 7.73232 281.921 7.79349 281.28 7.86265C281.215 7.87063 281.146 7.88926 281.099 7.91586C281.047 7.94512 280.982 7.98499 280.982 8.02223C280.982 8.04882 281.068 8.08075 281.129 8.09937C281.319 8.16054 281.544 8.06746 281.73 8.13661C281.856 8.18183 281.959 8.24565 282.085 8.2882C282.137 8.30682 282.219 8.30417 282.284 8.29885C282.5 8.28023 282.712 8.25364 282.928 8.23768C282.989 8.23502 283.058 8.26163 283.114 8.28291C283.53 8.4425 283.53 8.44249 283.889 8.40791C284.031 8.39461 284.183 8.35471 284.317 8.37067C284.447 8.38663 284.559 8.45845 284.676 8.50366C284.918 8.59941 285.147 8.6925 285.165 8.89997C285.173 8.97976 285.316 9.0489 285.459 9.05422C285.597 9.05954 285.744 9.03031 285.887 9.01435C286.225 8.98243 286.225 8.98243 286.661 9.14468C286.783 9.18989 286.912 9.1952 287.068 9.16861C287.129 9.15797 287.202 9.16862 287.267 9.18192C287.479 9.22181 287.479 9.27234 287.341 9.36809C287.146 9.50906 287.163 9.52236 287.708 9.64205C287.916 9.68727 288.076 9.77239 288.249 9.84686C288.53 9.96655 288.526 9.96653 288.34 10.1235C288.297 10.158 288.258 10.1953 288.214 10.2325C288.089 10.3362 287.989 10.448 287.73 10.4586C287.444 10.4692 287.159 10.5118 286.873 10.5411C286.597 10.5703 286.523 10.6341 286.549 10.815C286.579 11.0331 286.636 11.057 287.133 11.0544C287.276 11.0544 287.401 11.0756 287.509 11.1475C287.457 11.2326 287.362 11.2991 287.224 11.315C286.869 11.3549 286.51 11.3895 286.155 11.4241C285.87 11.4533 285.584 11.4826 285.299 11.5119C285.122 11.5305 285.009 11.6688 285.057 11.8231C285.083 11.9108 285.104 11.9986 285.126 12.0864C285.173 12.2619 285.264 12.3071 285.554 12.2992C285.628 12.2965 285.697 12.2752 285.766 12.2805C286.047 12.2991 286.181 12.5199 286.519 12.4747C286.8 12.4375 287.094 12.4295 287.371 12.3816C287.626 12.339 287.769 12.4348 287.946 12.5066C288.007 12.5306 288.072 12.5811 288.124 12.5784C288.483 12.5492 288.842 12.5199 289.192 12.4694C289.356 12.4481 289.456 12.4641 289.586 12.5279C289.897 12.6822 289.906 12.6742 290.369 12.6263C290.706 12.5891 290.71 12.5944 291.143 12.7566C291.264 12.8019 291.394 12.8018 291.549 12.7806C291.753 12.754 291.965 12.7114 292.177 12.7513C292.242 12.762 292.324 12.7939 292.345 12.8285C292.358 12.8524 292.298 12.9109 292.246 12.9295C291.865 13.0678 291.42 13.0439 291.004 13.0998C290.875 13.1157 290.745 13.0652 290.637 12.9934C290.524 12.9216 290.403 12.8923 290.256 12.9056C289.971 12.9349 289.681 12.9535 289.4 12.996C289.157 13.0333 288.989 12.9721 288.82 12.8896C288.764 12.863 288.699 12.8125 288.643 12.8151C288.002 12.8683 287.358 12.9216 286.722 12.996C286.467 13.0279 286.32 12.9428 286.147 12.871C286.086 12.8471 286.026 12.7965 285.969 12.7992C285.753 12.8098 285.541 12.8391 285.325 12.8604C284.538 12.9402 283.755 13.02 282.967 13.0944C282.915 13.0998 282.851 13.0439 282.79 13.02C282.673 12.9721 282.552 12.9269 282.431 12.8816C282.215 12.9029 282.003 12.9295 281.786 12.9455C281.631 12.9561 281.492 12.9934 281.471 13.0944C281.458 13.1609 281.6 13.2221 281.752 13.2168C281.899 13.2115 282.046 13.1795 282.167 13.2141C282.768 13.3843 282.768 13.387 283.145 13.3524C283.473 13.3205 283.439 13.2939 283.729 13.4402C283.854 13.504 283.967 13.5413 284.109 13.5253C284.464 13.4881 284.823 13.4508 285.182 13.4189C285.238 13.4136 285.312 13.4402 285.368 13.4615C285.792 13.6211 285.792 13.6264 286.142 13.5865C286.601 13.5386 286.618 13.5253 286.925 13.6876C287.137 13.7993 287.332 13.7221 287.535 13.7168C287.769 13.8205 288.024 13.9137 288.236 14.0307C288.487 14.169 288.751 14.145 289.036 14.1051C289.248 14.0759 289.456 14.0652 289.629 14.1743C289.793 14.2754 289.992 14.286 290.217 14.2594C290.42 14.2355 290.628 14.1849 290.84 14.2434C290.896 14.2594 290.983 14.2993 290.978 14.3233C290.974 14.3605 290.918 14.4137 290.862 14.4297C290.464 14.5387 290.027 14.536 289.607 14.5866C289.551 14.5945 289.477 14.5653 289.421 14.544C289.3 14.4961 289.183 14.4403 289.067 14.3897C288.855 14.4057 288.638 14.411 288.431 14.4429C288.271 14.4669 288.149 14.4642 288.033 14.4004C287.924 14.3419 287.808 14.2701 287.678 14.2514C287.548 14.2328 287.397 14.2727 287.254 14.2887C287.111 14.3046 286.947 14.2966 286.835 14.3392C286.722 14.3818 286.653 14.4749 286.579 14.5493C286.497 14.6318 286.385 14.6584 286.22 14.6664C286.069 14.6744 285.948 14.6637 285.835 14.5892C285.788 14.5573 285.723 14.5334 285.658 14.5121C285.597 14.4935 285.528 14.4642 285.472 14.4695C284.827 14.5307 284.187 14.5972 283.543 14.6611C283.223 14.693 283.227 14.6929 282.561 14.536C282.5 14.5227 282.427 14.5041 282.366 14.5094C282.007 14.5413 281.652 14.5786 281.293 14.6158C280.93 14.6531 280.934 14.6477 280.316 14.4802C280.203 14.4483 280.039 14.4908 279.905 14.4855C279.624 14.4722 279.485 14.2488 279.156 14.2913C278.875 14.3286 278.581 14.3365 278.3 14.3844C278.045 14.427 277.898 14.3339 277.725 14.2621C277.664 14.2381 277.599 14.1849 277.547 14.1903C276.903 14.2488 276.263 14.3153 275.406 14.3233C275.194 14.3233 275.289 14.3791 275.428 14.3977C275.627 14.427 275.692 14.3711 275.583 14.2647C275.506 14.1903 275.393 14.153 275.302 14.1716C275.255 14.1823 275.194 14.2328 275.406 14.3233C275.631 14.4243 275.618 14.4802 275.657 14.5121C275.752 14.5892 275.886 14.6211 276.025 14.6105C276.241 14.5919 276.453 14.5653 276.669 14.5493C276.73 14.544 276.803 14.5626 276.86 14.5839C277.335 14.7488 277.34 14.7595 277.846 14.6956C278.006 14.677 278.123 14.677 278.248 14.7275C278.421 14.7967 278.547 14.9137 278.81 14.8765C279.161 14.8259 279.52 14.7967 279.879 14.7674C279.935 14.7621 279.996 14.81 280.06 14.8313C280.238 14.8951 280.368 15.0148 280.631 14.9643C280.835 14.9244 281.055 14.9137 281.272 14.9057C281.328 14.9031 281.414 14.9456 281.44 14.9802C281.492 15.0414 281.427 15.1132 281.28 15.1638C281.22 15.185 281.138 15.1797 281.068 15.1877C280.783 15.2169 280.497 15.2488 280.212 15.2728C280.061 15.2861 279.918 15.326 279.9 15.4244C279.887 15.4909 280.043 15.5494 280.19 15.5441C280.407 15.5361 280.623 15.5148 280.83 15.4803C281.198 15.4217 281.518 15.4377 281.817 15.6053C282.029 15.7223 282.016 15.6797 282.241 16.0255C282.297 16.1133 282.466 16.1213 282.613 16.1159C282.967 16.1026 283.132 16.1425 283.101 16.225C283.062 16.3261 282.937 16.358 282.777 16.3713C282.491 16.3925 282.206 16.4271 281.921 16.4564C281.851 16.4644 281.773 16.4803 281.709 16.475C281.644 16.4697 281.583 16.4378 281.527 16.4138C281.406 16.3633 281.302 16.2862 281.172 16.2675C281.042 16.2489 280.891 16.2888 280.748 16.3048C280.606 16.3181 280.454 16.358 280.324 16.3394C280.195 16.3207 280.086 16.241 279.97 16.1931C279.913 16.1691 279.844 16.1319 279.788 16.1345C279.502 16.1558 279.217 16.1904 278.932 16.217C278.581 16.2516 278.581 16.2516 278.157 16.0867C278.036 16.0388 277.911 16.0415 277.751 16.0628C277.405 16.1053 277.4 16.0973 276.769 15.943C276.708 15.9271 276.635 15.9085 276.574 15.9165C275.929 15.9776 275.289 16.0441 274.649 16.108C274.1 16.1638 274.1 16.1638 273.797 16.4298C273.572 16.6266 273.568 16.6266 273.788 16.7171C273.966 16.7915 274.126 16.9006 274.32 16.9405C274.502 16.9777 274.727 16.858 274.926 16.9804C275.025 17.0415 275.155 17.108 275.281 17.1187C275.48 17.132 275.692 17.0548 275.882 17.1719C275.977 17.2304 276.12 17.2916 276.241 17.2942C276.453 17.2996 276.669 17.257 276.881 17.2384C276.946 17.233 277.02 17.233 277.08 17.2463C277.145 17.2623 277.201 17.2942 277.257 17.3208C277.43 17.4113 277.617 17.4538 277.841 17.4086C278.209 17.3341 278.538 17.3714 278.823 17.5416C278.862 17.5655 278.957 17.5682 279.018 17.5576C279.174 17.531 279.308 17.5283 279.425 17.5788C279.472 17.6001 279.541 17.6373 279.533 17.6613C279.52 17.7012 279.468 17.7544 279.412 17.7677C279.005 17.8581 278.568 17.8687 278.149 17.9166C278.092 17.9219 278.023 17.8873 277.967 17.8634C277.846 17.8155 277.742 17.7358 277.612 17.7171C277.482 17.6985 277.331 17.7331 277.188 17.7464C277.046 17.7597 276.894 17.7996 276.764 17.7836C276.635 17.765 276.513 17.6985 276.41 17.64C276.289 17.5735 276.172 17.5655 276.012 17.5921C275.804 17.6267 275.588 17.632 275.376 17.6506C275.259 17.6001 275.142 17.5442 275.021 17.4963C274.965 17.4724 274.896 17.4432 274.835 17.4458C274.55 17.4671 274.264 17.499 273.979 17.5283C273.693 17.5575 273.693 17.5576 273.209 17.3926C273.152 17.374 273.079 17.3527 273.018 17.3581C272.659 17.39 272.305 17.4299 271.946 17.4618C271.807 17.4751 271.682 17.4378 271.569 17.366C271.461 17.2942 271.331 17.2543 271.197 17.2676C270.626 17.3235 270.055 17.3767 269.484 17.4432C269.255 17.4698 269.06 17.4458 268.905 17.3501C268.723 17.241 268.52 17.2676 268.308 17.2889C267.828 17.3421 267.823 17.3394 267.516 17.2038C267.455 17.1772 267.395 17.1266 267.339 17.1293C266.841 17.1692 266.34 17.2064 265.846 17.2703C265.587 17.3049 265.448 17.2118 265.275 17.1426C265.215 17.1187 265.15 17.0681 265.098 17.0735C264.739 17.1027 264.38 17.1293 264.03 17.1825C263.679 17.2357 263.545 16.9884 263.281 16.991C262.922 16.9937 262.567 17.0549 262.213 17.0921C261.927 17.1213 261.642 17.1506 261.356 17.1799C261.071 17.2091 260.785 17.233 260.5 17.2676C260.348 17.2862 260.236 17.2623 260.111 17.1958C259.951 17.108 259.76 17.0389 259.587 16.9591C259.323 16.8447 259.323 16.8447 259.003 16.8766C258.934 16.8846 258.86 16.8899 258.791 16.8979C258.268 16.9564 258.268 16.9511 257.602 16.7835C257.571 16.7756 257.493 16.8048 257.463 16.8261C257.372 16.8953 257.29 16.9697 257.208 17.0415C257.091 16.999 256.949 16.975 256.871 16.9139C256.65 16.741 256.304 16.9777 256.079 16.8075C255.997 16.7436 255.854 16.6878 255.724 16.6718C255.59 16.6559 255.439 16.6931 255.3 16.7091C254.941 16.749 254.941 16.7463 254.634 16.983C254.478 17.1001 254.254 17.0788 254.05 17.1054C253.838 17.1346 253.635 17.1506 253.458 17.0415C253.298 16.9431 253.103 16.9192 252.874 16.9511C252.593 16.991 252.303 17.0149 252.017 17.0389C251.957 17.0442 251.883 17.0309 251.823 17.0149C251.161 16.858 251.161 16.8554 250.841 16.8899C250.698 16.9059 250.551 16.9112 250.412 16.9351C250.179 16.9777 250.002 16.9218 249.833 16.8367C249.777 16.8101 249.712 16.7596 249.655 16.7623C249.37 16.7756 249.089 16.7995 248.808 16.8235C248.591 16.8421 248.375 16.8527 248.167 16.8899C247.821 16.9511 247.653 16.7782 247.415 16.6984C247.06 16.733 246.701 16.7569 246.346 16.8048C246.182 16.8261 246.074 16.8181 245.948 16.7543C245.788 16.6745 245.641 16.5841 245.382 16.624C245.036 16.6772 244.672 16.6958 244.318 16.7277C244.08 16.6452 243.907 16.4777 243.565 16.5388C243.357 16.5761 243.137 16.5841 242.925 16.6053C242.639 16.6346 242.354 16.6612 242.068 16.6931C241.761 16.725 241.765 16.7171 241.294 16.5601C241.021 16.467 240.74 16.5708 240.463 16.5867C240.247 16.6 240.139 16.7224 240.191 16.8793C240.243 17.0362 240.126 17.1586 239.927 17.1799C239.43 17.2304 238.928 17.2836 238.43 17.3288C238.37 17.3341 238.296 17.3155 238.24 17.2969C237.708 17.1293 237.708 17.132 237.47 17.1559C237.115 17.1958 236.752 17.2171 236.402 17.2676C236.159 17.3022 235.982 17.2464 235.826 17.1559C235.705 17.0868 235.593 17.0708 235.437 17.0868C233.724 17.265 232.011 17.4299 230.302 17.6134C230.047 17.64 229.9 17.5629 229.727 17.4911C229.667 17.4671 229.61 17.4166 229.55 17.4166C229.407 17.4166 229.264 17.4405 229.121 17.4565C228.481 17.5203 227.841 17.5974 227.197 17.6453C226.924 17.6666 226.851 17.789 226.734 17.89C226.643 17.9672 226.539 17.9991 226.379 18.0097C226.223 18.0203 226.111 18.007 225.99 17.9379C225.834 17.8474 225.657 17.7916 225.414 17.8288C225.133 17.8714 224.848 17.89 224.558 17.9193C224.411 17.9326 224.298 17.9804 224.251 18.0762C224.242 18.0922 224.333 18.1321 224.385 18.156C224.558 18.2358 224.722 18.3289 224.917 18.3847C225.116 18.4406 225.332 18.3767 225.54 18.3608C225.613 18.3555 225.683 18.3395 225.752 18.3422C225.817 18.3448 225.895 18.3581 225.942 18.3821C226.167 18.5018 226.405 18.5842 226.716 18.5124C226.985 18.547 227.123 18.7677 227.465 18.7092C227.672 18.6746 227.889 18.6587 228.105 18.6454C228.161 18.6427 228.222 18.6906 228.282 18.7145C228.455 18.781 228.594 18.8874 228.853 18.8422C229.13 18.7943 229.424 18.7864 229.705 18.7491C229.861 18.7278 229.974 18.7465 230.095 18.8156C230.25 18.9034 230.428 18.9699 230.67 18.9273C230.878 18.8901 231.098 18.8821 231.31 18.8582C231.587 18.8289 231.587 18.8316 232.08 18.9965C232.137 19.0151 232.21 19.0364 232.271 19.031C232.63 18.9991 232.984 18.9592 233.343 18.9273C233.482 18.914 233.616 18.9486 233.711 19.0257C233.75 19.0576 233.737 19.1109 233.75 19.1561C233.036 19.2279 232.322 19.2891 231.613 19.3768C231.345 19.4114 231.224 19.3024 231.046 19.2412C230.986 19.2199 230.921 19.1747 230.865 19.18C230.363 19.2252 229.866 19.2731 229.368 19.3316C229.212 19.3502 229.096 19.3396 228.979 19.2624C228.68 19.0576 228.317 19.1694 227.98 19.1986C227.72 19.2199 227.638 19.3024 227.668 19.4779C227.707 19.6854 227.863 19.7492 228.261 19.712C228.403 19.6987 228.546 19.68 228.689 19.6694C228.827 19.6588 228.953 19.6933 229.065 19.7651C229.173 19.837 229.303 19.8742 229.437 19.8636C229.723 19.8396 230.013 19.8157 230.289 19.7758C230.519 19.7439 230.709 19.7705 230.869 19.8689C231.046 19.9779 231.254 19.954 231.462 19.9301C231.946 19.8769 231.95 19.8795 232.253 20.0125C232.314 20.0391 232.374 20.0897 232.431 20.087C232.928 20.0471 233.43 20.0125 233.919 19.9487C234.174 19.9168 234.321 20.0019 234.49 20.071C234.55 20.095 234.611 20.1482 234.667 20.1428C235.026 20.1136 235.385 20.0843 235.735 20.0338C235.9 20.0098 235.999 20.0258 236.133 20.0896C236.453 20.2466 236.462 20.2412 236.916 20.1907C237.055 20.1747 237.206 20.1455 237.336 20.1668C237.466 20.1881 237.57 20.2652 237.691 20.3131C237.747 20.3344 237.816 20.3636 237.877 20.3583C238.162 20.337 238.448 20.3051 238.733 20.2758C239.001 20.2466 239.001 20.2492 239.503 20.4141C239.706 20.4833 239.918 20.4248 240.122 20.4035C240.342 20.3796 240.541 20.3796 240.71 20.4833C240.879 20.587 241.082 20.5817 241.298 20.5604C241.502 20.5391 241.709 20.4806 241.917 20.5525C242.393 20.7174 242.393 20.72 242.687 20.6881C243.115 20.6429 243.539 20.6003 243.972 20.5604C244.028 20.5551 244.101 20.587 244.157 20.6083C244.279 20.6562 244.382 20.736 244.512 20.7546C244.642 20.7759 244.793 20.7439 244.932 20.728C245.377 20.6774 245.408 20.6588 245.706 20.8344C245.957 20.978 246.268 20.7705 246.502 20.9355C246.636 21.0285 246.818 21.103 247.069 21.0578C247.276 21.0206 247.493 21.0099 247.709 20.9886C248.051 20.9541 248.051 20.9567 248.483 21.1163C248.539 21.1376 248.613 21.1642 248.669 21.1589C248.955 21.1376 249.245 21.119 249.521 21.0711C249.846 21.0153 250.053 21.1163 250.296 21.2147C250.486 21.2919 250.711 21.228 250.914 21.2014C251.135 21.1748 251.334 21.1828 251.498 21.2865C251.671 21.3929 251.875 21.3796 252.091 21.3583C252.294 21.3397 252.502 21.2786 252.709 21.353C253.155 21.5179 253.155 21.5179 253.479 21.486C253.765 21.4568 254.05 21.4249 254.336 21.4036C254.392 21.3983 254.461 21.4328 254.517 21.4568C254.639 21.5046 254.742 21.5844 254.872 21.6031C255.002 21.6217 255.153 21.5871 255.296 21.5738C255.439 21.5605 255.59 21.5206 255.72 21.5366C255.85 21.5525 255.971 21.619 256.075 21.6775C256.196 21.7467 256.308 21.7547 256.473 21.7281C256.68 21.6935 256.897 21.6855 257.108 21.6669C257.225 21.7174 257.346 21.768 257.459 21.8238C257.576 21.8823 257.701 21.877 257.861 21.8584C258.393 21.7946 258.398 21.8025 258.843 21.9674C259.046 22.0419 259.258 21.9807 259.462 21.9621C259.678 21.9408 259.881 21.9302 260.05 22.0366C260.214 22.1377 260.418 22.151 260.634 22.119C260.772 22.0978 260.919 22.0845 261.062 22.0765C261.127 22.0738 261.205 22.0845 261.253 22.1058C261.482 22.2175 261.707 22.3186 262.022 22.2467C262.299 22.268 262.438 22.4861 262.771 22.4436C263.052 22.4063 263.346 22.3983 263.623 22.3504C263.878 22.3079 264.06 22.3824 264.19 22.4755C264.423 22.6404 264.752 22.417 264.986 22.5792C265.12 22.6723 265.293 22.7468 265.552 22.7069C265.838 22.6643 265.929 22.7202 266.011 22.8877C266.058 22.9835 266.05 23.0606 265.963 23.1351C265.877 23.2122 265.782 23.1989 265.643 23.1112C265.483 23.0128 265.293 22.9941 265.063 23.0154C264.838 23.0367 264.7 22.8984 264.514 22.8452C264.328 22.7893 264.107 22.8824 263.913 22.8106C263.454 22.643 263.454 22.643 263.143 22.675C262.931 22.6962 262.71 22.7069 262.503 22.7441C262.256 22.7893 262.096 22.7069 261.927 22.6324C261.867 22.6058 261.806 22.5553 261.754 22.5579C261.257 22.5978 260.755 22.6351 260.262 22.7016C260.002 22.7361 259.864 22.6404 259.691 22.5739C259.63 22.5499 259.565 22.5021 259.514 22.5074C259.085 22.5446 258.661 22.5925 258.233 22.6377C258.151 22.7095 258.06 22.7787 257.982 22.8558C257.9 22.9356 257.788 22.9702 257.623 22.9675C257.351 22.9675 257.083 23.0792 256.81 22.9383C256.529 22.7946 256.507 22.8026 256.235 22.8372C255.889 22.8824 255.521 22.8718 255.197 22.9755C255.14 22.9941 255.08 23.0446 255.08 23.0819C255.075 23.1058 255.166 23.1404 255.223 23.1617C255.413 23.2255 255.633 23.1324 255.824 23.1989C255.949 23.2415 256.053 23.3053 256.179 23.3505C256.23 23.3691 256.308 23.3665 256.377 23.3638C256.451 23.3612 256.52 23.3426 256.589 23.3452C256.654 23.3479 256.724 23.3638 256.776 23.3878C257.013 23.4888 257.264 23.5819 257.476 23.7016C257.684 23.8187 257.878 23.7389 258.086 23.7335C258.917 23.9197 258.917 23.9224 259.475 23.8639C259.613 23.8506 259.756 23.8346 259.899 23.8373C259.959 23.8373 260.015 23.8851 260.076 23.9117C260.249 23.9915 260.413 24.0633 260.656 24.0208C260.863 23.9836 261.084 23.9756 261.296 23.9516C261.581 23.9224 261.581 23.9224 262.066 24.0899C262.187 24.1325 262.317 24.1272 262.472 24.1059C262.606 24.0873 262.745 24.1272 262.84 24.2043C262.879 24.2362 262.866 24.2894 262.879 24.3347C262.451 24.3772 262.018 24.4065 261.603 24.4703C261.335 24.5102 261.214 24.3958 261.036 24.3347C260.976 24.3134 260.911 24.2682 260.855 24.2735C260.431 24.3134 260.007 24.3586 259.583 24.4118C259.531 24.4171 259.466 24.4783 259.462 24.5155C259.453 24.5847 259.561 24.6512 259.717 24.6485C259.925 24.6458 260.128 24.6006 260.314 24.7097C260.47 24.8054 260.664 24.848 260.893 24.8054C261.032 24.7815 261.179 24.7815 261.317 24.7602C261.685 24.6964 262.018 24.7097 262.295 24.8905C262.507 24.9384 262.715 24.8932 262.918 24.8693C263.069 24.8507 263.216 24.832 263.325 24.8826C263.554 24.9889 263.779 25.0953 264.094 25.0235C264.436 25.098 264.696 25.2549 264.981 25.3826C265.115 25.4438 265.219 25.4784 265.375 25.4385C265.44 25.4225 265.518 25.4225 265.587 25.4145C265.73 25.4012 265.881 25.3613 266.011 25.3773C266.14 25.3959 266.249 25.473 266.365 25.5209C266.422 25.5448 266.487 25.5847 266.543 25.5821C266.759 25.5688 266.971 25.5422 267.183 25.5209C267.395 25.5023 267.607 25.4837 267.819 25.4651C267.996 25.5342 268.178 25.6034 268.355 25.6725C268.641 25.6433 268.926 25.614 269.207 25.5874C269.523 25.5555 269.523 25.5581 269.977 25.7231C270.181 25.7975 270.397 25.7496 270.592 25.7151C270.916 25.6592 271.132 25.7603 271.362 25.8667C271.409 25.888 271.496 25.9013 271.552 25.8906C271.777 25.8534 271.971 25.8826 272.136 25.981C272.253 26.0502 272.369 26.0821 272.512 26.0688C273.01 26.0183 273.507 25.9651 274.005 25.9199C274.065 25.9146 274.134 25.9385 274.191 25.9598C274.632 26.122 274.636 26.13 274.96 26.0874C275.25 26.0502 275.519 26.0342 275.748 26.1805C275.795 26.2124 275.869 26.2577 275.921 26.255C276.275 26.2284 276.635 26.1992 276.985 26.1539C277.145 26.1327 277.257 26.1407 277.383 26.2018C277.543 26.279 277.686 26.3721 277.95 26.3375C278.681 26.2391 278.685 26.255 279.55 26.4385C279.611 26.4518 279.693 26.4306 279.762 26.4199C279.909 26.3933 280.017 26.4306 280.147 26.4917C280.437 26.63 280.445 26.6221 280.722 26.5928C280.934 26.5689 281.155 26.5635 281.362 26.5236C281.683 26.4651 281.895 26.5689 282.132 26.6673C282.323 26.7444 282.543 26.6806 282.747 26.6566C282.967 26.63 283.166 26.638 283.331 26.7391C283.443 26.8082 283.564 26.8455 283.707 26.8322C284.204 26.7843 284.702 26.7311 285.199 26.6832C285.26 26.6779 285.333 26.6992 285.39 26.7178C285.883 26.8827 285.883 26.8907 286.372 26.8295C286.527 26.8109 286.657 26.8056 286.774 26.8614C286.886 26.9146 287.008 26.9652 287.124 27.0157C287.336 26.9971 287.553 26.9918 287.76 26.9599C287.92 26.9359 288.033 26.9466 288.158 27.0024C288.322 27.0742 288.461 27.1992 288.72 27.138C288.855 27.1088 289.01 27.1168 289.144 27.0902C289.304 27.0556 289.413 27.0769 289.538 27.146C289.694 27.2285 289.854 27.3136 290.105 27.271C290.381 27.2232 290.676 27.2152 290.957 27.1779C291.112 27.1567 291.221 27.1779 291.346 27.2471C291.502 27.3349 291.679 27.3907 291.921 27.3562C292.415 27.2897 292.419 27.3029 292.899 27.4705C293.02 27.5131 293.15 27.5078 293.306 27.4865C293.44 27.4679 293.578 27.5078 293.673 27.5849C293.764 27.67 293.755 27.7232 293.764 27.7684ZM255.218 3.7799C255.075 3.79319 254.933 3.80915 254.725 3.57775C254.712 3.53785 254.721 3.48999 254.691 3.45541C254.621 3.3836 254.513 3.33306 254.383 3.32508C254.15 3.31444 253.869 3.40486 253.873 3.47401C253.877 3.53253 253.951 3.58306 254.094 3.63093C254.154 3.64955 254.202 3.68147 254.258 3.70275C254.422 3.76393 254.552 3.88364 254.79 3.82246C254.768 3.74001 254.747 3.65755 254.79 3.82246C254.768 3.92353 254.833 3.99535 254.989 4.02461C255.032 4.03259 255.097 4.02725 255.132 4.01129C255.266 3.95278 255.287 3.873 255.188 3.66288C255.171 3.69746 255.184 3.75861 255.223 3.77457C255.261 3.79053 255.357 3.77725 255.404 3.75863C255.525 3.70809 255.586 3.64159 255.556 3.58574C255.538 3.55648 255.456 3.51924 255.404 3.51924C255.313 3.51924 255.231 3.57775 255.218 3.7799ZM290.195 34.6253C289.88 34.6759 289.516 34.6572 289.201 34.761C289.144 34.7796 289.088 34.8275 289.084 34.8647C289.08 34.8886 289.166 34.9232 289.218 34.9418C289.335 34.9844 289.464 34.9711 289.616 34.9578C289.845 34.9392 289.979 35.0615 290.157 35.1227C290.213 35.1413 290.286 35.1546 290.347 35.1493C290.697 35.1174 291.043 35.0828 291.394 35.0456C291.454 35.0376 291.519 35.019 291.571 34.995C291.744 34.9179 291.727 34.8674 291.558 34.8089C291.372 34.745 291.225 34.6386 291.035 34.5881C290.762 34.5163 290.485 34.612 290.195 34.6253ZM265.63 36.567C265.418 36.5882 265.21 36.6095 264.998 36.6308C264.929 36.6388 264.856 36.6414 264.791 36.6521C264.657 36.6707 264.557 36.7265 264.492 36.8143C264.592 36.8835 264.713 36.9234 264.847 36.9154C265.059 36.8994 265.267 36.8649 265.479 36.8569C265.708 36.8462 265.842 36.9659 266.019 37.0271C266.076 37.0457 266.145 37.0484 266.21 37.051C266.53 37.0617 266.724 36.9234 266.664 36.7292C266.621 36.5776 266.456 36.4872 266.257 36.5058C266.05 36.5244 265.838 36.5457 265.63 36.567ZM291.675 30.6942C291.727 30.6489 291.783 30.617 291.809 30.5771C291.887 30.4415 291.857 30.3404 291.714 30.234C291.541 30.1037 291.329 30.1915 291.134 30.2048C291.087 30.2074 291.035 30.2633 291.009 30.2979C290.991 30.3218 290.991 30.3724 291.017 30.3856C291.229 30.492 291.454 30.5904 291.675 30.6942ZM254.15 22.8372C253.942 22.8585 253.73 22.8744 253.523 22.9037C253.471 22.9117 253.423 22.9622 253.393 22.9968C253.337 23.0606 253.397 23.1484 253.574 23.1564C253.778 23.167 253.99 23.1218 254.202 23.1005C254.47 23.0739 254.63 22.9755 254.53 22.8904C254.435 22.8079 254.306 22.792 254.15 22.8372ZM26.4514 17.1533C26.5898 17.14 26.7325 17.1293 26.8709 17.1107C27.0007 17.0921 27.1003 17.0336 27.1652 16.9458C27.057 16.8766 26.9359 16.8394 26.8018 16.8474C26.5898 16.8633 26.3822 16.8846 26.1746 16.9112C26.0448 16.9272 25.9194 16.9857 25.8891 17.0761C25.8588 17.1453 26.1486 17.1852 26.4514 17.1533ZM235.857 16.7436C235.913 16.7676 235.969 16.8155 236.025 16.8155C236.164 16.8155 236.306 16.7995 236.436 16.7729C236.492 16.7623 236.536 16.7144 236.562 16.6772C236.579 16.6532 236.575 16.6107 236.549 16.5894C236.423 16.4617 235.921 16.5069 235.839 16.6532C235.831 16.6798 235.852 16.7144 235.857 16.7436ZM222.209 2.1787C222.222 2.22126 222.226 2.26381 222.244 2.30637C222.278 2.38616 222.373 2.44469 222.512 2.48459C222.62 2.41809 222.676 2.34363 222.672 2.26384C222.668 2.22128 222.655 2.1787 222.637 2.13614C222.603 2.05635 222.508 1.99785 222.369 1.95795C222.261 2.02179 222.209 2.09625 222.209 2.1787ZM301.671 37.0298C301.633 37.0643 301.594 37.0989 301.55 37.1308C301.667 37.208 301.775 37.2319 301.858 37.1893C301.909 37.1627 301.94 37.1229 301.979 37.0883C301.862 37.0111 301.758 36.9899 301.671 37.0298ZM298.981 37.3915C299.037 37.4154 299.089 37.4474 299.15 37.4633C299.249 37.4899 299.34 37.4447 299.409 37.3489C299.353 37.325 299.301 37.2931 299.24 37.2771C299.141 37.2505 299.05 37.2957 298.981 37.3915ZM300.685 36.9048C300.655 36.9686 300.716 37.0218 300.876 37.067C300.915 37.0324 300.966 37.0005 300.992 36.9633C301.036 36.9021 300.962 36.8462 300.806 36.8037C300.763 36.8356 300.724 36.8702 300.685 36.9048ZM291.554 34.0375C291.523 34.1014 291.584 34.1545 291.744 34.1998C291.783 34.1652 291.835 34.1333 291.861 34.096C291.904 34.0348 291.831 33.979 291.675 33.9364C291.632 33.9684 291.593 34.0029 291.554 34.0375ZM279.113 15.2169C279.074 15.2515 279.035 15.2861 278.992 15.318C279.109 15.3951 279.217 15.4191 279.299 15.3765C279.351 15.3499 279.381 15.31 279.42 15.2754C279.303 15.1983 279.2 15.177 279.113 15.2169ZM267.196 5.23212C267.3 5.25074 267.386 5.21352 267.46 5.11511C267.404 5.09117 267.352 5.05925 267.291 5.04329C267.192 5.01669 267.101 5.06192 267.032 5.15767C267.088 5.18427 267.144 5.20818 267.196 5.23212ZM260.868 4.60708C260.829 4.64166 260.79 4.67624 260.746 4.70815C260.863 4.78529 260.971 4.80922 261.054 4.76666C261.105 4.74006 261.136 4.70017 261.175 4.66559C261.058 4.58846 260.954 4.56984 260.868 4.60708ZM217.953 2.17604C217.914 2.21062 217.875 2.2452 217.832 2.27711C217.948 2.35425 218.057 2.37818 218.139 2.33562C218.191 2.30902 218.221 2.26913 218.26 2.23455C218.143 2.15742 218.039 2.1388 217.953 2.17604ZM4.26937 23.816C4.21314 23.792 4.15695 23.7681 4.10505 23.7415C3.9796 23.8133 3.94068 23.8798 4.00989 23.9304C4.05315 23.9623 4.11799 23.9809 4.17422 24.0048C4.30399 23.933 4.33426 23.8692 4.26937 23.816Z" fill="#4F9CF9"/>
<path d="M29.3578 14.4239C28.8603 14.4745 28.3672 14.5383 27.8698 14.5702C27.6059 14.5862 27.5108 14.7005 27.4027 14.8069C27.3162 14.8921 27.2167 14.9186 27.0566 14.9346C25.707 15.0649 24.3617 15.2032 23.0164 15.3389C22.8477 15.3043 22.7655 15.2485 22.8045 15.182C22.8261 15.1421 22.878 15.0862 22.9299 15.0809C23.8513 14.9825 24.7683 14.8814 25.694 14.8043C25.9578 14.783 26.0314 14.666 26.1655 14.5702C26.2088 14.5383 26.2434 14.4904 26.2996 14.4718C26.3559 14.4505 26.438 14.4532 26.5116 14.4479C27.9996 14.2963 29.4877 14.1473 30.9757 13.9957C31.1444 14.0303 31.2266 14.0862 31.1876 14.1526C31.166 14.1925 31.1141 14.2484 31.0622 14.2537C30.4912 14.3096 29.9244 14.3654 29.3578 14.4239Z" fill="#4F9CF9"/>
<path d="M301.728 28.5876C301.503 28.6195 301.218 28.6647 300.984 28.5104C300.872 28.436 300.751 28.4121 300.604 28.428C300.392 28.4546 300.175 28.4759 299.959 28.4918C299.903 28.4945 299.829 28.4652 299.773 28.4413C299.652 28.3934 299.548 28.3136 299.418 28.2924C299.289 28.2711 299.133 28.3296 298.999 28.3163C298.821 28.2977 298.748 28.2259 298.795 28.1594C298.821 28.1221 298.873 28.0689 298.93 28.061C299.73 27.9626 299.734 27.9625 299.959 28.0583C300.132 28.1328 300.292 28.2152 300.539 28.17C300.746 28.1328 300.967 28.1248 301.179 28.1008C301.473 28.0689 301.473 28.0716 301.949 28.2391C302.07 28.2817 302.2 28.2791 302.355 28.2551C302.49 28.2365 302.619 28.2791 302.727 28.3509C302.658 28.4413 302.559 28.4998 302.425 28.5158C302.208 28.5424 301.996 28.561 301.728 28.5876Z" fill="#4F9CF9"/>
<path d="M293.766 27.7684C294.311 27.7125 294.86 27.6647 295.405 27.6009C295.63 27.5743 295.807 27.6035 295.963 27.6939C296.132 27.7924 296.322 27.7844 296.53 27.7658C296.66 27.7551 296.785 27.7977 296.872 27.8721C296.906 27.9014 296.897 27.9546 296.91 27.9972C296.435 28.045 295.954 28.0956 295.474 28.1381C295.418 28.1434 295.349 28.1169 295.297 28.0956C295.18 28.0504 295.081 27.9706 294.955 27.9546C294.687 27.9174 294.419 27.9892 294.146 28.0025C294.017 28.0078 293.891 27.9679 293.805 27.8961C293.77 27.8615 293.779 27.811 293.766 27.7684Z" fill="#4F9CF9"/>
<path d="M96.7959 4.89954C97.3626 4.84103 97.9292 4.7852 98.4959 4.72668C98.6646 4.76392 98.7425 4.81711 98.7079 4.8836C98.6862 4.9235 98.6343 4.97936 98.5824 4.98468C97.4491 5.10437 96.3158 5.21872 95.1868 5.33309C95.0181 5.29585 94.9403 5.24267 94.9749 5.17617C94.9965 5.13627 95.0484 5.08042 95.1003 5.0751C95.6627 5.01392 96.2293 4.95806 96.7959 4.89954Z" fill="#4F9CF9"/>
<path d="M9.47787 19.6807C9.22266 19.686 8.95452 19.7844 8.66903 19.7099C8.61279 19.6966 8.53491 19.6541 8.53924 19.6301C8.54789 19.5902 8.5998 19.5397 8.65604 19.5237C8.9026 19.4572 9.20975 19.4493 9.33519 19.2631C9.39575 19.1673 9.50822 19.1354 9.65962 19.1168C9.81967 19.0955 9.9321 19.1035 10.0575 19.1593C10.2219 19.2311 10.3604 19.3641 10.6199 19.295C10.6329 19.3375 10.6631 19.3854 10.6501 19.4253C10.6371 19.4652 10.581 19.5025 10.5291 19.5317C10.4815 19.5583 10.4166 19.5822 10.356 19.5902C10.0705 19.6221 9.78499 19.6488 9.47787 19.6807Z" fill="#4F9CF9"/>
<path d="M234.447 19.1458C234.659 19.1245 234.88 19.1138 235.087 19.0766C235.252 19.0473 235.356 19.0659 235.485 19.1298C235.706 19.2415 235.719 19.2309 236.26 19.2468C236.32 19.2495 236.394 19.2894 236.428 19.3239C236.45 19.3426 236.42 19.3931 236.394 19.4197C236.355 19.4543 236.299 19.4995 236.247 19.4995C235.905 19.5075 235.559 19.6644 235.226 19.4836C235.057 19.3931 234.871 19.3505 234.642 19.3904C234.503 19.4144 234.356 19.425 234.214 19.4357C234.075 19.4463 233.933 19.417 233.846 19.3373C233.721 19.2202 233.794 19.175 234.019 19.183C234.162 19.1883 234.305 19.1591 234.447 19.1458Z" fill="#4F9CF9"/>
<path d="M312.843 37.4796C313.116 37.453 313.388 37.4211 313.665 37.3998C313.722 37.3945 313.791 37.4238 313.843 37.4424C314.05 37.5222 314.02 37.6578 314.029 37.7775C314.033 37.9025 313.553 38.0036 313.35 37.9184C313.125 37.8227 312.921 37.7137 312.61 37.7722C312.489 37.7935 312.346 37.7456 312.268 37.6684C312.151 37.5567 312.216 37.5115 312.437 37.5195C312.567 37.5248 312.705 37.4955 312.843 37.4796Z" fill="#4F9CF9"/>
<path d="M175.514 1.277C175.795 1.24774 176.076 1.20255 176.357 1.19989C176.522 1.19723 176.604 1.28498 176.565 1.34882C176.543 1.38872 176.491 1.44457 176.439 1.44989C175.877 1.51373 175.315 1.56693 174.752 1.62545C174.588 1.58821 174.506 1.53236 174.545 1.46853C174.566 1.42863 174.618 1.37543 174.67 1.36746C174.951 1.33022 175.232 1.30626 175.514 1.277Z" fill="#4F9CF9"/>
<path d="M307.45 28.822C307.722 28.7954 307.999 28.7554 308.272 28.7421C308.414 28.7368 308.527 28.798 308.544 28.8671C308.553 28.8991 308.484 28.9549 308.427 28.9682C308.038 29.0587 307.618 29.0693 307.212 29.1145C307.082 29.1278 306.944 29.0853 306.866 29.0108C306.749 28.8964 306.814 28.8539 307.035 28.8619C307.173 28.8645 307.311 28.8352 307.45 28.822Z" fill="#4F9CF9"/>
<path d="M241.592 19.5045C241.731 19.4912 241.873 19.4566 242.007 19.4672C242.15 19.4805 242.241 19.5576 242.284 19.6348C242.332 19.7226 242.327 19.805 242.284 19.8795C242.215 20.0072 242.146 20.0018 241.986 19.9167C241.739 19.7837 241.722 19.7997 241.233 19.805C241.177 19.805 241.108 19.7651 241.064 19.7305C240.999 19.6773 241.034 19.5949 241.185 19.547C241.298 19.5124 241.454 19.5178 241.592 19.5045Z" fill="#4F9CF9"/>
<path d="M297.315 27.9497C297.518 27.9284 297.721 27.8939 297.925 27.8939C298.067 27.8912 298.18 27.9524 298.193 28.0189C298.197 28.0508 298.132 28.104 298.08 28.12C297.834 28.1918 297.557 28.1971 297.289 28.221C297.163 28.2317 297.025 28.1891 296.947 28.1146C296.83 28.0029 296.9 27.9524 297.111 27.9683C297.176 27.9737 297.246 27.9577 297.315 27.9497Z" fill="#4F9CF9"/>
<path d="M265.318 24.6864C265.015 24.7183 264.73 24.6784 264.751 24.6093C264.781 24.5188 264.907 24.4603 265.037 24.4443C265.244 24.4177 265.452 24.3964 265.664 24.3805C265.798 24.3699 265.919 24.4097 266.027 24.4789C265.962 24.564 265.863 24.6252 265.733 24.6438C265.599 24.6624 265.456 24.6731 265.318 24.6864Z" fill="#4F9CF9"/>
<path d="M263.334 24.3457C263.538 24.3244 263.741 24.2899 263.944 24.2899C264.087 24.2872 264.199 24.3484 264.212 24.4149C264.217 24.4468 264.152 24.5 264.1 24.516C263.853 24.5878 263.576 24.5931 263.308 24.617C263.183 24.6277 263.044 24.5851 262.967 24.5106C262.85 24.3989 262.919 24.3484 263.131 24.3644C263.196 24.3697 263.265 24.3537 263.334 24.3457Z" fill="#4F9CF9"/>
<path d="M239.139 19.4837C239.342 19.4624 239.546 19.4278 239.749 19.4251C239.892 19.4225 240.004 19.4837 240.017 19.5502C240.021 19.5821 239.957 19.6326 239.905 19.6512C239.658 19.7231 239.381 19.7284 239.113 19.7523C238.988 19.763 238.849 19.7204 238.771 19.6459C238.654 19.5342 238.724 19.4837 238.936 19.4996C239 19.5049 239.07 19.489 239.139 19.4837Z" fill="#4F9CF9"/>
<path d="M238.002 19.3267C238.219 19.3054 238.288 19.2921 238.357 19.2921C238.487 19.2921 238.621 19.324 238.699 19.4012C238.816 19.5129 238.746 19.5448 238.534 19.5501C238.262 19.5555 237.994 19.6113 237.721 19.622C237.578 19.6273 237.466 19.5634 237.457 19.4969C237.453 19.465 237.518 19.4092 237.57 19.3985C237.751 19.3586 237.95 19.3347 238.002 19.3267Z" fill="#4F9CF9"/>
<path d="M261.572 3.67868C261.434 3.69198 261.287 3.72922 261.157 3.71592C260.984 3.69731 260.915 3.6255 260.958 3.55901C260.984 3.52177 261.031 3.46858 261.083 3.4606C261.36 3.42336 261.641 3.3994 261.918 3.3728C262.083 3.4127 262.156 3.46855 262.113 3.53505C262.087 3.57228 262.039 3.62282 261.987 3.63346C261.853 3.66005 261.71 3.66538 261.572 3.67868Z" fill="#4F9CF9"/>
<path d="M93.6928 5.21291C93.8269 5.21025 93.948 5.24483 94.0518 5.31132C93.9869 5.39643 93.8918 5.45229 93.762 5.47623C93.6971 5.48687 93.6236 5.49483 93.5544 5.49749C93.4203 5.50281 93.2991 5.46558 93.1953 5.39908C93.2602 5.31397 93.3597 5.25812 93.4851 5.23418C93.55 5.22354 93.6236 5.22089 93.6928 5.21291Z" fill="#4F9CF9"/>
<path d="M305.973 28.8116C305.968 28.7345 306.232 28.6467 306.47 28.6494C306.596 28.652 306.725 28.6893 306.799 28.7611C306.911 28.8701 306.846 28.9127 306.634 28.9047C306.505 28.8994 306.366 28.9446 306.237 28.9366C306.089 28.9339 306.003 28.8754 305.973 28.8116Z" fill="#4F9CF9"/>
<path d="M242.845 19.8264C242.841 19.7971 242.819 19.7625 242.832 19.7359C242.914 19.5897 243.412 19.5444 243.542 19.6721C243.563 19.696 243.572 19.7359 243.555 19.7599C243.529 19.7971 243.481 19.845 243.429 19.8556C243.295 19.8822 243.157 19.8955 243.018 19.8982C242.958 19.8982 242.901 19.853 242.845 19.8264Z" fill="#4F9CF9"/>
<path d="M11.0173 19.2548C10.5068 19.3106 10.4982 19.3053 10.589 19.1723C10.6712 19.0526 10.8226 18.9808 11.0433 18.9808C11.1081 18.9808 11.1773 18.9755 11.2336 18.9861C11.2941 18.9994 11.3807 19.026 11.3937 19.0579C11.4196 19.1191 11.346 19.1856 11.2162 19.2308C11.16 19.2521 11.0865 19.2468 11.0173 19.2548Z" fill="#4F9CF9"/>
<path d="M100.083 4.83881C99.9312 4.88403 99.8015 4.86808 99.7063 4.78297C99.6112 4.69786 99.7626 4.59677 100.026 4.57284C100.096 4.56752 100.169 4.54626 100.234 4.55689C100.299 4.56487 100.364 4.59676 100.403 4.62868C100.472 4.68188 100.429 4.75371 100.29 4.81489C100.234 4.83882 100.152 4.83349 100.083 4.83881Z" fill="#4F9CF9"/>
<path d="M305.072 28.6114C305.11 28.5769 305.149 28.5423 305.193 28.5104C305.353 28.5556 305.422 28.6088 305.379 28.67C305.353 28.7072 305.301 28.7391 305.262 28.7737C305.102 28.7285 305.037 28.6726 305.072 28.6114Z" fill="#4F9CF9"/>
<path d="M17.8691 49.5331C17.8691 49.5012 17.9297 49.4507 17.9773 49.44C18.0681 49.4214 18.1805 49.4587 18.2584 49.5331C18.3665 49.6395 18.3017 49.6954 18.1027 49.6661C17.9643 49.6448 17.8691 49.5916 17.8691 49.5331Z" fill="#4F9CF9"/>
<path d="M244.608 17.3505C244.664 17.3744 244.72 17.3983 244.772 17.4249C244.699 17.5233 244.608 17.5659 244.513 17.5393C244.452 17.5233 244.4 17.4914 244.344 17.4675C244.417 17.3691 244.504 17.3318 244.608 17.3505Z" fill="#4F9CF9"/>
<path d="M243.111 17.2298C243.197 17.1899 243.301 17.2112 243.422 17.2883C243.383 17.3229 243.349 17.3628 243.301 17.3894C243.219 17.4319 243.111 17.4106 242.994 17.3309C243.029 17.2989 243.068 17.2644 243.111 17.2298Z" fill="#4F9CF9"/>
<path d="M241.963 17.3471C242.019 17.3711 242.076 17.395 242.127 17.4216C242.054 17.52 241.967 17.5626 241.868 17.536C241.807 17.52 241.755 17.4881 241.699 17.4641C241.773 17.3657 241.859 17.3258 241.963 17.3471Z" fill="#4F9CF9"/>
<path d="M241.121 17.2067C241.185 17.2599 241.151 17.3237 241.025 17.3955C240.969 17.3716 240.904 17.353 240.861 17.3211C240.792 17.2705 240.826 17.204 240.956 17.1322C241.008 17.1588 241.064 17.1827 241.121 17.2067Z" fill="#4F9CF9"/>
</svg>
