<svg width="680" height="68" viewBox="0 0 680 68" fill="none" xmlns="http://www.w3.org/2000/svg">
<path d="M454.195 53.0162C453.534 53.0419 452.866 53.0599 452.219 53.0979C451.798 53.1217 451.617 53.0544 451.336 53.0196C451.242 53.0075 451.142 52.983 451.055 52.9863C450.4 53.012 449.746 53.0408 449.092 53.0696C448.892 53.1298 448.766 53.2099 448.459 53.2397C448.159 53.2678 447.805 53.2685 447.471 53.2829C447.03 53.3005 446.589 53.3182 446.149 53.3343C445.928 53.3424 445.748 53.3719 445.676 53.4273C445.662 53.4366 445.809 53.4594 445.89 53.473C446.158 53.5187 446.419 53.5704 446.713 53.6053C446.994 53.6386 447.341 53.5827 447.642 53.6252C448.318 53.7208 448.325 53.7192 448.839 53.6999C449.28 53.6822 449.72 53.663 450.161 53.65C450.248 53.6468 450.348 53.6696 450.442 53.6818C450.723 53.7151 450.904 53.7916 451.318 53.7617C451.632 53.7381 451.979 53.7329 452.306 53.72C452.581 53.7641 452.835 53.8143 453.13 53.8492C453.404 53.8825 453.484 53.9085 453.338 53.9533C453.205 53.995 453.018 54.0122 452.771 54.0157C452.55 54.0176 452.33 54.0318 452.11 54.0399C451.996 54.0447 451.889 54.048 451.783 54.0528C451.362 54.0704 451.362 54.0704 450.592 53.9734C450.291 53.9355 449.951 53.9899 449.664 53.9535C449.47 53.9293 449.302 53.8927 449.115 53.8669C449.034 53.8563 448.908 53.855 448.807 53.8582C448.473 53.8695 448.14 53.8778 447.819 53.8983C447.592 53.9126 447.459 53.9558 447.486 53.9988C447.493 54.0157 447.654 54.04 447.747 54.0413C447.961 54.044 448.188 54.0221 448.395 54.0325C448.596 54.0429 448.803 54.0733 448.951 54.1068C449.252 54.177 449.592 54.1134 449.88 54.1314C450.18 54.1508 450.428 54.2118 450.716 54.2482C450.79 54.2573 450.93 54.2417 451.043 54.2369C451.37 54.2255 451.698 54.2158 452.025 54.2044C452.299 54.2485 452.594 54.288 452.842 54.3382C453.29 54.4296 453.772 54.4641 454.353 54.4185C454.68 54.3934 455 54.4021 455.262 54.4615C455.529 54.5225 455.837 54.5158 456.177 54.503C456.491 54.4901 456.811 54.4558 457.133 54.4982C457.829 54.5923 457.835 54.5969 458.657 54.5586C458.904 54.5474 459.091 54.544 459.278 54.579C459.452 54.611 459.64 54.6383 459.82 54.6687C460.148 54.6574 460.481 54.646 460.809 54.6332C461.229 54.6156 461.463 54.6367 461.565 54.7225C461.625 54.7746 461.653 54.8222 461.8 54.8573C461.974 54.9 462.161 54.8981 462.415 54.8854C462.655 54.8742 462.829 54.8571 462.928 54.8016C462.968 54.7785 463.048 54.7568 463.121 54.7382C463.181 54.7243 463.275 54.7027 463.328 54.7056C463.428 54.7116 463.562 54.7283 463.596 54.7482C463.925 54.9335 463.925 54.935 464.26 54.9882C464.628 55.0475 465.01 55.1006 465.345 55.1676C465.646 55.227 465.946 55.2004 466.274 55.1998C466.521 55.1994 466.682 55.2391 466.662 55.279C466.649 55.3021 466.556 55.3361 466.476 55.3393C465.821 55.3711 465.16 55.3984 464.499 55.4211C464.419 55.4243 464.319 55.3968 464.225 55.3831C464.038 55.3558 463.87 55.3131 463.669 55.3042C463.469 55.2953 463.235 55.3188 463.015 55.3268C462.795 55.3349 462.561 55.3553 462.361 55.3434C462.16 55.3314 461.999 55.2871 461.812 55.2583C461.725 55.2446 461.604 55.2248 461.531 55.2296C461.044 55.2673 460.682 55.2172 460.334 55.1502C460.26 55.1365 460.133 55.1275 460.04 55.1308C459.265 55.1582 458.497 55.1903 457.723 55.2208C457.409 55.2336 457.154 55.1803 457.086 55.0898C457.052 55.0391 456.985 54.9886 456.984 54.9379C456.983 54.8457 456.615 54.7956 456.348 54.8069C455.907 54.823 455.46 54.836 455.026 54.8598C454.672 54.8789 454.371 54.861 454.13 54.8061C453.849 54.7436 453.528 54.7564 453.208 54.7739C452.967 54.7866 452.901 54.8374 452.916 54.9649C452.931 55.0678 452.817 55.1003 452.383 55.1179C451.836 55.1404 451.282 55.1629 450.727 55.1807C450.641 55.1839 450.54 55.158 450.453 55.1443C450.266 55.117 450.098 55.0727 449.898 55.0639C449.697 55.0535 449.463 55.0769 449.243 55.0865C449.023 55.0946 448.789 55.1165 448.589 55.1061C448.388 55.0957 448.22 55.0499 448.04 55.021C447.953 55.0073 447.846 54.9875 447.759 54.9908C447.318 55.0038 446.877 55.023 446.437 55.0407C445.943 55.06 445.943 55.06 445.24 54.966C444.919 54.9235 444.599 54.9579 444.285 54.9707C443.951 54.9836 443.637 54.9902 443.376 54.9292C443.201 54.8896 443.007 54.8654 442.8 54.8734C442.246 54.8928 441.699 54.9168 441.144 54.9362C441.051 54.9394 440.924 54.932 440.85 54.9183C440.495 54.8544 440.147 54.8043 439.653 54.8374C439.226 54.8658 438.765 54.8681 438.338 54.895C438.104 54.9092 437.998 54.9586 438.045 54.9969C438.072 55.0168 438.213 55.0396 438.306 55.0395C438.52 55.0406 438.754 55.0172 438.954 55.026C439.369 55.0437 439.577 55.1724 440.118 55.1362C440.438 55.1141 440.772 55.1058 441.106 55.0991C441.193 55.0974 441.287 55.1265 441.381 55.1417C441.648 55.1827 441.883 55.236 442.27 55.2077C442.59 55.1856 442.931 55.1789 443.258 55.1661C443.779 55.1452 443.779 55.1467 444.455 55.2393C444.776 55.2832 445.096 55.2474 445.41 55.2361C445.644 55.228 445.864 55.2122 446.052 55.2334C446.339 55.2652 446.547 55.3385 446.901 55.3333C447.235 55.3281 447.562 55.3061 447.896 55.2978C448.103 55.2928 448.297 55.3171 448.465 55.3583C448.639 55.3994 448.826 55.4175 449.053 55.4079C449.38 55.3951 449.714 55.3791 450.048 55.3709C450.142 55.3692 450.249 55.3828 450.336 55.395C450.523 55.4223 450.704 55.4542 450.885 55.4831C451.212 55.4733 451.546 55.4697 451.867 55.4507C452.114 55.4364 452.287 55.4423 452.488 55.4727C452.742 55.5137 452.95 55.5871 453.364 55.551C453.571 55.5338 453.812 55.5379 454.019 55.5222C454.272 55.5018 454.446 55.5092 454.627 55.555C454.969 55.6419 455.396 55.6427 455.837 55.6082C456.317 55.5705 456.679 55.6129 457.04 55.6798C457.422 55.7498 457.422 55.7483 457.718 55.9183C457.805 55.9673 458.053 55.9899 458.26 55.9804C458.607 55.9644 458.908 55.9716 459.162 56.0295C459.43 56.092 459.751 56.0838 460.078 56.0663C460.512 56.0425 460.946 56.0218 461.301 56.1103C461.475 56.153 461.662 56.1634 461.896 56.1523C462.557 56.1235 463.225 56.1054 463.873 56.0705C464.266 56.0483 464.494 56.0971 464.762 56.1381C465.123 56.1943 465.518 56.2443 465.52 56.3657C465.52 56.3856 465.614 56.4085 465.694 56.4237C465.868 56.4557 466.056 56.483 466.236 56.5134C466.504 56.5591 466.765 56.597 467.132 56.5718C467.453 56.5513 467.793 56.5445 468.12 56.5301C468.447 56.5157 468.748 56.5075 469.043 56.5654C469.384 56.6309 469.746 56.6932 470.134 56.7417C470.408 56.7766 470.768 56.7161 471.063 56.7632C471.243 56.792 471.417 56.8255 471.612 56.8498C471.692 56.8604 471.819 56.8525 471.926 56.8492C472.146 56.8427 472.373 56.8377 472.587 56.822C472.834 56.8047 473.021 56.8074 473.208 56.8424C473.382 56.8744 473.557 56.9186 473.757 56.9275C474.058 56.9408 474.391 56.8788 474.693 56.9489C474.847 56.984 475.041 57.0174 475.241 57.0278C475.442 57.0383 475.675 57.0148 475.889 57.016C475.983 57.0158 476.097 57.0402 476.15 57.0601C476.184 57.0708 476.138 57.1 476.091 57.1155C476.031 57.134 475.944 57.1588 475.858 57.162C475.197 57.1908 474.536 57.215 473.874 57.2422C473.48 57.2583 473.48 57.2583 472.684 57.1629C472.497 57.1402 472.29 57.1451 472.056 57.1563C471.742 57.1706 471.422 57.1973 471.094 57.1702C470.666 57.0665 470.138 57.0582 469.577 57.0991C469.343 57.1164 469.13 57.1168 468.956 57.0879C468.587 57.0302 468.199 56.9771 467.871 56.9085C467.617 56.8552 467.496 56.8508 467.39 56.9247C467.357 56.9478 467.324 56.9725 467.331 56.9939C467.372 57.0707 467.446 57.1458 467.487 57.2226C467.501 57.2441 467.448 57.2688 467.415 57.2919C467.309 57.3566 467.168 57.3522 466.934 57.2988C466.699 57.2455 466.418 57.2106 466.045 57.2359C465.724 57.2579 465.377 57.2555 465.056 57.2791C464.562 57.3137 464.214 57.2652 463.86 57.1997C463.786 57.186 463.659 57.1785 463.565 57.1818C462.57 57.2188 461.582 57.2605 460.587 57.2976C460.374 57.3056 460.18 57.2829 460.012 57.2417C459.838 57.2005 459.644 57.1794 459.43 57.1874C458.549 57.2212 457.667 57.2519 456.786 57.2934C456.425 57.3109 456.138 57.2915 455.89 57.2381C455.702 57.1985 455.529 57.1865 455.295 57.1915C455.041 57.1966 454.861 57.2123 454.734 57.257C454.615 57.3003 454.702 57.3262 454.969 57.3596C455.257 57.3959 455.525 57.4431 455.799 57.4856C456.02 57.4791 456.24 57.4664 456.454 57.4676C456.547 57.4674 456.635 57.4949 456.728 57.5101C456.996 57.5542 457.244 57.5984 457.624 57.5731C457.945 57.551 458.285 57.5458 458.613 57.5314C459.067 57.5138 459.067 57.5138 459.803 57.6093C459.99 57.6335 460.19 57.6316 460.431 57.6174C460.638 57.6063 460.852 57.6274 460.999 57.6732C461.06 57.6916 461.04 57.7224 460.914 57.824C460.915 57.8992 461.055 57.8652 461.101 57.816C461.174 57.7452 461.033 57.7224 460.766 57.7612C460.58 57.7892 460.487 57.8293 460.534 57.8615C460.561 57.8784 460.688 57.8996 460.914 57.824C461.501 57.7308 461.949 57.7192 462.376 57.6939C462.629 57.6796 462.79 57.6855 462.991 57.7251C463.232 57.7723 463.473 57.8226 463.867 57.7973C464.294 57.7689 464.748 57.7651 465.182 57.7413C465.583 57.7191 465.791 57.7863 466.045 57.8258C466.353 57.8729 466.693 57.8185 466.974 57.8457C467.268 57.8728 467.476 57.9401 467.817 57.9518C468.311 57.9094 468.626 57.9857 469 58.0358C469.295 58.0737 469.642 58.0392 469.956 58.0218C470.309 58.0028 470.604 58.0192 470.852 58.074C471.133 58.1365 471.447 58.1222 471.767 58.1078C472.515 58.0757 472.542 58.0711 472.977 58.1548C473.292 58.2157 473.592 58.1876 473.906 58.1793C474.18 58.2203 474.448 58.2644 474.736 58.3008C474.809 58.3099 474.95 58.2943 475.063 58.2895C475.39 58.2766 475.724 58.2638 476.051 58.2509C476.272 58.2428 476.505 58.2194 476.706 58.2282C476.906 58.2387 477.074 58.2829 477.255 58.3118C477.435 58.3407 477.623 58.3695 477.797 58.4C478.065 58.4456 478.319 58.4836 478.693 58.4599C479.013 58.4393 479.347 58.4326 479.681 58.4182C480.102 58.4006 480.088 58.4052 480.871 58.496C481.293 58.546 481.726 58.4838 482.153 58.4769C482.367 58.4735 482.575 58.49 482.722 58.5343C482.782 58.5526 482.763 58.5834 482.783 58.6095C481.681 58.6529 480.573 58.6901 479.484 58.7427C479.064 58.7634 478.843 58.7085 478.615 58.6628C478.24 58.5897 477.747 58.6981 477.392 58.6034C477.177 58.547 476.869 58.5153 476.502 58.5436C476.289 58.5593 476.062 58.5581 475.841 58.5723C475.281 58.6071 474.766 58.6096 474.317 58.5043C474.163 58.4677 473.943 58.4481 473.782 58.4131C473.594 58.375 473.414 58.3538 473.193 58.3619C472.198 58.4005 471.21 58.439 470.222 58.4807C470.135 58.4839 470.048 58.5071 469.975 58.5242C469.789 58.5675 469.849 58.6012 470.15 58.6283C470.25 58.6374 470.331 58.6572 470.425 58.6724C470.605 58.7013 470.773 58.7471 470.973 58.7575C471.174 58.7679 471.408 58.746 471.628 58.7379C471.848 58.7298 472.082 58.7064 472.282 58.7153C472.483 58.7257 472.65 58.7699 472.838 58.7973C472.925 58.8109 473.032 58.8338 473.119 58.8321C473.56 58.8221 473.994 58.8045 474.434 58.7899C474.709 58.8309 474.943 58.8904 475.271 58.9037C475.478 58.9125 475.698 58.8952 475.912 58.8979C476.006 58.8993 476.126 58.9221 476.173 58.942C476.2 58.9543 476.114 58.9852 476.047 59.0006C475.794 59.0595 475.446 59.0493 475.133 59.0683C474.792 59.0888 474.485 59.0832 474.223 59.0238C474.049 58.9841 473.855 58.963 473.642 58.971C473.087 58.9919 472.54 59.0159 471.986 59.0338C471.892 59.037 471.778 59.0234 471.691 59.0128C470.989 58.9203 470.989 58.9172 470.495 58.9381C469.767 58.9685 469.767 58.9685 469.278 58.8879C469.184 58.8727 469.084 58.8437 469.004 58.8454C468.229 58.8713 467.461 58.8972 466.693 58.9339C466.44 58.9451 466.266 58.9454 466.078 58.9058C465.918 58.8723 465.73 58.8342 465.529 58.8253C465.322 58.8165 465.095 58.8399 464.875 58.848C464.655 58.856 464.421 58.8764 464.227 58.8644C464.027 58.8525 463.852 58.8098 463.678 58.7794C463.498 58.7474 463.304 58.7493 463.057 58.762C462.296 58.7987 462.289 58.7941 461.533 58.7001C461.446 58.6895 461.332 58.6774 461.239 58.6807C460.684 58.7001 460.137 58.7241 459.583 58.7435C459.369 58.7515 459.162 58.7319 459.014 58.6876C458.954 58.6693 458.974 58.6385 458.933 58.5787C458.886 58.5649 458.939 58.5894 458.953 58.6124C459.053 58.6092 459.174 58.612 459.247 58.5996C459.434 58.5701 459.527 58.5315 459.479 58.4994C459.453 58.4825 459.325 58.4612 459.245 58.4614C459.098 58.4616 458.972 58.4956 458.933 58.5787C458.512 58.6301 458.065 58.6416 457.631 58.667C457.377 58.6828 457.217 58.6754 457.016 58.6358C456.775 58.587 456.527 58.5398 456.133 58.5651C455.706 58.5935 455.252 58.5989 454.811 58.6212C454.304 58.6466 454.082 58.5087 453.654 58.5125C453.213 58.5164 452.773 58.5433 452.332 58.5625C451.945 58.5785 451.945 58.5785 451.142 58.48C450.847 58.4437 450.501 58.4981 450.213 58.4601C450.019 58.4359 449.851 58.3993 449.664 58.3735C449.584 58.3629 449.457 58.3631 449.357 58.3664C448.802 58.3858 448.241 58.3991 447.707 58.4338C447.1 58.4748 446.638 58.4326 446.203 58.3427C445.655 58.3605 445.101 58.3707 444.56 58.4008C444.166 58.423 443.939 58.3727 443.671 58.3317C443.577 58.318 443.497 58.2951 443.397 58.2892C443.296 58.2832 443.176 58.2957 443.069 58.3005C442.628 58.3181 442.174 58.3266 441.747 58.355C441.22 58.3913 441.018 58.2656 440.61 58.251C440.337 58.3267 440.191 58.4299 439.65 58.4385C439.21 58.4455 438.769 58.4708 438.328 58.4885C438.108 58.4965 437.888 58.5061 437.667 58.5142C437.313 58.5286 437.147 58.5888 437.222 58.6809C437.262 58.7315 437.296 58.7822 437.33 58.8328C437.398 58.9233 437.232 59.0004 436.952 59.0117C436.177 59.0422 435.409 59.0743 434.635 59.1017C434.428 59.1098 434.227 59.084 434.059 59.0428C433.885 59.0016 433.691 58.9835 433.477 58.9916C432.703 59.0221 431.935 59.0542 431.16 59.0817C431.074 59.0849 430.96 59.0697 430.873 59.0576C430.685 59.0302 430.505 58.9983 430.324 58.9694C429.883 58.984 429.449 58.994 429.015 59.0132C428.314 59.042 428.314 59.0436 427.798 58.96C427.705 58.9448 427.611 58.9158 427.524 58.9174C427.19 58.9242 426.863 58.9401 426.529 58.9545C425.548 58.9962 425.548 58.9961 425.26 58.9506C424.999 58.908 424.764 58.8562 424.37 58.8814C423.943 58.9098 423.489 58.9198 423.048 58.936C422.721 58.9473 422.394 58.9602 422.066 58.9638C421.98 58.9655 421.886 58.9364 421.792 58.9212C421.524 58.8741 421.263 58.8361 420.896 58.8629C420.682 58.8786 420.455 58.8821 420.235 58.8902C419.661 58.9127 419.661 58.9127 418.718 58.8221C418.624 58.8131 418.51 58.8025 418.417 58.8073C417.642 58.8363 416.874 58.8683 416.1 58.8958C416.006 58.899 415.893 58.89 415.799 58.8825C414.742 58.7952 414.742 58.7952 413.621 58.8402C413.193 58.8563 413.18 58.8625 412.731 58.7818C412.53 58.7468 412.363 58.7302 412.13 58.7414C411.248 58.7798 410.36 58.8059 409.485 58.8504C409.091 58.8696 408.864 58.8239 408.596 58.7828C408.502 58.7692 408.402 58.7386 408.322 58.7403C407.44 58.771 406.559 58.8079 405.677 58.8386C405.597 58.8418 405.496 58.8113 405.403 58.7976C405.222 58.7703 405.048 58.7291 404.847 58.7202C404.64 58.7114 404.413 58.7348 404.186 58.7429C403.632 58.7638 403.632 58.7623 402.989 58.6728C402.902 58.6606 402.789 58.6439 402.702 58.6471C401.82 58.6794 400.932 58.7071 400.058 58.7531C399.557 58.7786 399.216 58.7346 398.861 58.6707C398.787 58.657 398.66 58.6511 398.567 58.6543C397.572 58.6914 396.583 58.733 395.589 58.7701C395.382 58.7781 395.181 58.7524 395.013 58.7127C394.745 58.6502 394.431 58.6584 394.098 58.6728C393.33 58.7064 393.323 58.7049 392.868 58.632C392.774 58.6168 392.694 58.5969 392.593 58.5894C392.5 58.5819 392.38 58.5867 392.279 58.59C391.839 58.6061 391.398 58.6237 390.957 58.6414C390.517 58.6591 390.069 58.6691 389.635 58.696C389.101 58.7291 388.846 58.6297 388.471 58.5843C387.924 58.6052 387.363 58.6185 386.822 58.6517C386.408 58.677 386.214 58.6097 385.939 58.5748C385.846 58.5627 385.745 58.5368 385.658 58.54C384.663 58.5755 383.668 58.6141 382.68 58.6573C382.44 58.667 382.279 58.6549 382.078 58.6184C381.63 58.5362 381.61 58.5394 380.862 58.5714C380.535 58.5858 380.221 58.5986 379.939 58.5361C379.691 58.4797 379.391 58.4664 379.037 58.4854C378.603 58.5092 378.156 58.5223 377.715 58.5384C377.274 58.5561 376.833 58.5799 376.393 58.5883C376.039 58.5966 375.824 58.5248 375.543 58.4884C375.456 58.4778 375.336 58.4765 375.236 58.4797C374.795 58.4943 374.341 58.5059 373.913 58.5327C373.393 58.5659 373.104 58.4819 372.736 58.4334C372.656 58.4228 372.522 58.4292 372.422 58.4339C371.648 58.4629 370.88 58.495 370.105 58.5255C369.831 58.4845 369.55 58.4451 369.275 58.4041C368.835 58.4202 368.394 58.4379 367.953 58.454C367.619 58.4669 367.279 58.4721 366.965 58.4956C366.558 58.5271 366.356 58.4552 366.082 58.4204C365.988 58.4082 365.888 58.3823 365.801 58.3855C365.247 58.4034 364.693 58.4228 364.145 58.4499C363.624 58.4769 363.416 58.339 362.988 58.3412C362.547 58.3435 362.093 58.3643 361.666 58.3927C361.172 58.4258 360.824 58.3773 360.469 58.3118C360.395 58.2981 360.268 58.2907 360.175 58.2939C359.621 58.3133 359.073 58.3373 358.519 58.3567C358.425 58.3599 358.312 58.3524 358.218 58.3434C357.162 58.2546 357.162 58.253 356.701 58.2723C356.374 58.2851 356.04 58.3011 355.706 58.3093C355.612 58.3126 355.498 58.2989 355.411 58.2868C354.716 58.1943 354.715 58.1928 354.215 58.2121C353.774 58.2297 353.333 58.2474 352.893 58.265C352.618 58.224 352.337 58.1846 352.063 58.1436C351.515 58.1645 350.954 58.1808 350.413 58.2094C350.16 58.2222 349.993 58.2179 349.798 58.1798C349.557 58.1341 349.316 58.0808 348.916 58.1076C348.488 58.136 348.034 58.1398 347.6 58.1636C347.08 58.1922 346.864 58.0528 346.443 58.055C346.002 58.0573 345.548 58.0781 345.121 58.1065C344.627 58.1396 344.279 58.0911 343.924 58.0256C343.851 58.0119 343.724 58.0044 343.63 58.0077C342.415 58.0543 341.206 58.101 339.991 58.1507C339.243 58.1812 339.243 58.1827 337.819 58.1007C337.719 58.0948 337.612 58.0888 337.511 58.0921C337.071 58.1066 336.617 58.1182 336.189 58.145C335.669 58.1782 335.38 58.0957 335.012 58.0457C334.932 58.0351 334.805 58.0414 334.698 58.0447C334.364 58.056 334.037 58.0704 333.703 58.0833C333.263 58.101 332.822 58.1186 332.381 58.1363C332.107 58.0968 331.826 58.0558 331.551 58.0164C331.004 58.0373 330.443 58.049 329.902 58.0822C329.488 58.1075 329.294 58.0433 329.019 58.0069C328.926 57.9948 328.825 57.9689 328.738 57.9706C327.743 58.0061 326.748 58.0431 325.76 58.0879C325.353 58.107 325.165 58.0382 324.891 58.0033C324.797 57.9927 324.69 57.973 324.603 57.9762C323.942 57.9989 323.281 58.0261 322.62 58.0534C322.246 58.0694 322.246 58.0694 321.43 57.9756C321.336 57.965 321.229 57.9544 321.136 57.9576C319.039 58.0381 316.949 58.1231 314.852 58.2036C314.638 58.2117 314.444 58.189 314.277 58.1478C314.103 58.1066 313.908 58.0854 313.695 58.0935C312.813 58.1273 311.925 58.158 311.051 58.1995C310.69 58.217 310.402 58.1975 310.155 58.1442C309.967 58.1045 309.793 58.0895 309.56 58.0991C309.119 58.1183 308.678 58.1344 308.237 58.1521C307.797 58.1698 307.356 58.1874 306.915 58.2051C306.475 58.2228 306.027 58.2328 305.593 58.2596C305.059 58.2928 304.797 58.198 304.429 58.151C303.768 58.1752 303.107 58.1994 302.453 58.2251C301.571 58.2589 300.69 58.2958 299.808 58.3281C299.728 58.3313 299.628 58.3038 299.534 58.2901C299.26 58.2522 299.059 58.1988 298.651 58.2164C296.675 58.3012 294.685 58.3738 292.702 58.4572C292.288 58.4748 292.107 58.409 291.826 58.3742C291.732 58.3636 291.625 58.3423 291.538 58.3455C290.436 58.3858 289.334 58.4307 288.233 58.4741C287.785 58.4918 287.785 58.4918 287.036 58.3979C286.949 58.3873 286.835 58.3736 286.742 58.3769C285.306 58.4316 283.877 58.4894 282.441 58.5456C282.228 58.5537 282.034 58.5325 281.859 58.4914C281.692 58.4502 281.491 58.4275 281.284 58.4355C279.962 58.487 278.633 58.5369 277.318 58.593C276.964 58.6089 276.67 58.5956 276.415 58.5408C276.234 58.5011 276.054 58.4845 275.827 58.4941C273.844 58.5729 271.86 58.6485 269.877 58.7319C269.496 58.7479 269.229 58.7192 268.988 58.6689C268.794 58.6293 268.626 58.6219 268.386 58.6284C268.132 58.6366 267.979 58.6537 267.839 58.7001C267.66 58.7603 267.547 58.8358 267.119 58.8411C266.678 58.8465 266.231 58.8657 265.797 58.8926C265.383 58.9194 265.189 58.8506 264.928 58.8096C264.734 58.7807 264.553 58.7764 264.306 58.7907C264.079 58.8034 263.939 58.8297 263.806 58.8791C263.514 58.9841 263.487 58.9842 263.125 58.9187C262.931 58.8837 262.757 58.8564 262.543 58.8629C261.662 58.8951 260.78 58.9305 259.899 58.9673C259.392 58.9882 259.385 58.9913 259.003 58.9151C258.816 58.877 258.635 58.8589 258.415 58.8685C255.991 58.9649 253.567 59.0582 251.143 59.1592C250.769 59.1752 250.515 59.1434 250.247 59.0978C250.16 59.0826 250.073 59.0612 249.973 59.0552C249.872 59.0493 249.759 59.0556 249.652 59.0589C247.889 59.128 246.119 59.1941 244.363 59.2709C243.963 59.2885 243.748 59.2397 243.474 59.2002C243.38 59.1865 243.3 59.1652 243.2 59.1592C243.099 59.1548 242.979 59.1657 242.872 59.1705C241.11 59.2396 239.34 59.3057 237.584 59.3825C237.163 59.4001 236.982 59.3359 236.708 59.3026C236.614 59.2905 236.514 59.2676 236.427 59.2708C235.872 59.2887 235.325 59.3127 234.771 59.3336C233.449 59.3866 232.126 59.4365 230.804 59.4911C230.297 59.5119 230.075 59.3756 229.647 59.3825C229.093 59.3911 228.545 59.4228 227.991 59.4452C227.55 59.4629 227.11 59.4791 226.669 59.4983C226.235 59.5159 226.235 59.5159 225.152 59.4287C225.058 59.4211 224.944 59.4106 224.851 59.4138C223.308 59.4734 221.759 59.5329 220.223 59.597C219.869 59.6115 219.575 59.6043 219.321 59.5479C219.14 59.5083 218.953 59.4886 218.732 59.4982C216.415 59.5898 214.105 59.6814 211.788 59.7714C211.701 59.7747 211.587 59.7595 211.5 59.7474C211.313 59.72 211.132 59.6881 210.951 59.6592C210.818 59.6948 210.645 59.7273 210.558 59.7674C210.439 59.8214 210.279 59.8371 210.025 59.8467C209.771 59.8564 209.611 59.8536 209.41 59.814C209.169 59.7652 208.921 59.7272 208.527 59.7433C206.103 59.8443 203.679 59.9361 201.255 60.0355C200.855 60.0516 200.667 59.9843 200.386 59.9495C200.292 59.9389 200.185 59.9222 200.098 59.9254C199.103 59.9625 198.115 60.0026 197.12 60.0412C194.362 60.1504 191.605 60.2551 188.853 60.3705C188.353 60.3913 188.011 60.3535 187.657 60.2881C187.583 60.2744 187.456 60.2669 187.362 60.2702C183.503 60.4213 179.643 60.5739 175.79 60.7266C175.583 60.7346 175.383 60.7104 175.215 60.6707C175.041 60.6295 174.847 60.6099 174.633 60.618C172.87 60.6871 171.108 60.7562 169.345 60.8269C168.904 60.8445 168.897 60.8461 168.442 60.7731C168.348 60.7579 168.248 60.7289 168.174 60.7321C168.021 60.7401 167.874 60.7787 167.768 60.8311C167.662 60.8866 167.495 60.9023 167.248 60.9135C166.994 60.9247 166.827 60.9203 166.633 60.8838C166.385 60.8382 166.158 60.794 165.757 60.8101C160.689 61.0155 155.62 61.2133 150.552 61.4172C150.145 61.4333 149.957 61.3691 149.676 61.3342C149.582 61.3236 149.489 61.3084 149.389 61.3055C149.282 61.3026 149.168 61.3121 149.061 61.3168C140.795 61.6431 132.528 61.9708 124.261 62.2971C123.767 62.3164 123.774 62.3164 123.234 62.4586C123.168 62.4757 123.081 62.4988 122.988 62.5021C120.457 62.6048 117.919 62.7045 115.382 62.8041C114.28 62.8475 113.178 62.8924 112.077 62.9343C111.683 62.9488 111.683 62.9488 110.743 63.1164C110.663 63.1303 110.569 63.1489 110.476 63.1522C106.069 63.3273 101.662 63.5024 97.2477 63.6745C96.9004 63.6874 96.6202 63.7155 96.4608 63.7895C96.3479 63.8419 96.2013 63.8729 95.9809 63.8825C92.8959 64.0046 89.811 64.1283 86.7193 64.2474C86.352 64.2618 86.132 64.3052 85.9524 64.3701C85.8926 64.3917 85.8394 64.4163 85.7527 64.4318C85.6727 64.4458 85.5526 64.4506 85.4524 64.4554C82.8081 64.5599 80.1639 64.6674 77.5129 64.7673C77.1189 64.7818 76.9592 64.8389 76.7662 64.8991C76.6996 64.9192 76.6532 64.947 76.5665 64.961C76.4798 64.9734 76.3529 64.9736 76.246 64.9769C74.0425 65.0637 71.839 65.152 69.6354 65.2388C69.2077 65.2318 69.1152 65.3211 68.9088 65.3752C68.8355 65.3938 68.7825 65.4185 68.6958 65.4309C68.6024 65.4434 68.482 65.442 68.3685 65.4453C66.6056 65.5144 64.8428 65.5882 63.0732 65.6527C62.6659 65.6672 62.5866 65.7457 62.3668 65.7999C62.2936 65.8169 62.2205 65.8431 62.1337 65.8479C61.0319 65.8944 59.9302 65.9377 58.8284 65.9796C58.4611 65.9941 58.4611 65.9925 57.8149 66.1458C57.7416 66.1628 57.6549 66.1814 57.5615 66.1862C55.9122 66.2535 54.2562 66.3179 52.6002 66.3837C52.3865 66.3918 52.24 66.4289 52.1337 66.4813C52.0275 66.5338 51.8743 66.5678 51.6606 66.5759C50.3384 66.6289 49.0162 66.6834 47.694 66.7318C47.3267 66.7447 47.0868 66.7835 46.9273 66.8529C46.8076 66.9054 46.661 66.9318 46.4273 66.9414C45.1051 66.9928 43.7831 67.0489 42.4542 67.0942C42.0668 67.1072 41.867 67.1598 41.7074 67.2246C41.5811 67.277 41.4344 67.2957 41.1873 67.3054C38.7633 67.3987 36.3328 67.492 33.9156 67.5945C33.5083 67.6121 33.3005 67.5587 33.0328 67.5208C32.6514 67.4677 32.2967 67.4099 32.2952 67.2901C32.295 67.2716 32.1811 67.2503 32.1008 67.2351C31.5048 67.1209 31.5048 67.1209 31.4098 66.9982C31.3554 66.923 31.2943 66.8463 31.2466 66.7696C31.1583 66.6437 30.944 66.6119 30.3297 66.636C30.1093 66.644 29.889 66.6551 29.6686 66.6617C29.3414 66.673 29.0936 66.6227 29.0324 66.5307C28.9984 66.48 28.9577 66.4294 28.9237 66.3788C29.2576 66.3659 29.2508 66.3644 29.8364 66.1775C30.0827 66.0987 30.0828 66.0987 29.6075 66.0211C29.4268 65.9923 29.2526 65.9603 29.0585 65.933C28.9716 65.9208 28.8579 65.9134 28.7644 65.9166C28.2102 65.936 27.6626 65.9585 27.1151 65.9809C26.2337 66.0162 26.2336 66.0162 25.3365 65.8611C25.2628 65.8489 25.149 65.8261 25.1622 65.8138C25.235 65.7568 25.415 65.7319 25.6421 65.7254C25.976 65.7156 26.3032 65.6996 26.6304 65.6868C26.8507 65.6787 27.0711 65.6691 27.2914 65.6611C27.4978 65.6023 27.711 65.5451 27.904 65.4849C28.2102 65.3921 28.2101 65.3891 27.7884 65.3253C27.5207 65.2827 27.2329 65.2448 26.9585 65.2053C26.6313 65.2182 26.2975 65.2326 25.9703 65.2439C25.5563 65.2585 25.3889 65.2296 25.2808 65.1299C25.1862 65.0425 25.2988 64.967 25.6193 64.948C25.9464 64.929 26.2537 64.9162 26.4197 64.8376C26.5792 64.762 26.8593 64.7323 27.2067 64.7256C27.4271 64.7206 27.6474 64.7095 27.8677 64.6999C28.1548 64.6871 28.3076 64.6084 28.2464 64.521C28.2123 64.4642 28.1449 64.4167 27.8842 64.4048C26.7278 64.3531 26.7144 64.3546 26.1386 64.2512C26.085 64.242 26.0447 64.2145 26.0646 64.2006C26.0977 64.1775 26.1708 64.1436 26.2509 64.1388C27.0188 64.1037 27.7866 64.0716 28.5546 64.0473C28.8084 64.0391 28.9953 64.028 29.0815 63.971C29.2008 63.8925 29.1464 63.8204 28.912 63.767C28.8383 63.7502 28.7177 63.7289 28.6375 63.7306C27.756 63.7598 26.8813 63.7967 25.9998 63.8258C25.9197 63.829 25.7725 63.8032 25.7388 63.7833C25.6716 63.7465 25.7711 63.6972 26.0047 63.6799C26.3118 63.6563 26.6257 63.6542 26.8319 63.577C27.1178 63.4675 27.4706 63.367 27.79 63.262C27.8433 63.2435 27.9298 63.2079 27.9097 63.2049C27.7423 63.1714 27.5482 63.1456 27.3741 63.1137C27.0795 63.0604 27.0785 62.9851 27.1445 62.9128C27.1972 62.8543 27.3973 62.8309 27.6445 62.8305C27.7514 62.8303 27.885 62.8301 27.9717 62.8161C28.1984 62.7819 28.2714 62.7388 28.1574 62.7067C28.0904 62.6884 27.9699 62.6625 27.8898 62.6657C26.4607 62.7189 25.0249 62.7705 23.6027 62.836C23.1821 62.8552 22.9878 62.7971 22.7334 62.7561C22.5393 62.7242 22.3586 62.7122 22.1184 62.7356C21.8915 62.7575 21.671 62.7456 21.5301 62.6952C21.416 62.6539 21.616 62.6182 22.1566 62.5773C22.2567 62.5695 22.3702 62.5647 22.4435 62.5492C23.2164 62.3819 23.2164 62.3804 23.7505 62.3579C24.2714 62.3371 24.2715 62.3355 24.5443 62.246C24.6707 62.2043 24.8104 62.1625 24.9301 62.1193C24.9767 62.1023 25.0566 62.0714 25.0298 62.0623C24.8822 62.0149 24.6816 62.0045 24.4479 62.0157C23.9271 62.0427 23.3123 62.0223 23.0402 62.1687C22.934 62.2242 22.7672 62.2398 22.5268 62.2495C20.1095 62.3428 17.6922 62.4422 15.2682 62.5325C14.8742 62.547 14.6946 62.6041 14.5418 62.6674C14.4088 62.7198 14.262 62.7355 14.0082 62.7451C13.7545 62.7548 13.554 62.7597 13.4064 62.7093C13.3192 62.6787 13.3922 62.6356 13.5921 62.5922C13.8786 62.5303 13.8242 62.4535 13.7298 62.3815C13.6624 62.334 13.4549 62.3005 13.2345 62.304C12.9072 62.3107 12.5935 62.3282 12.3188 62.2672C12.1581 62.2321 11.9573 62.2079 11.7766 62.1775C11.4284 62.1151 11.0802 62.0512 10.5931 62.0935C10.2588 62.0787 10.0243 62.0238 9.7566 61.9813C9.30814 61.9114 9.26793 61.9007 9.58768 61.8249C9.9474 61.7397 9.66542 61.6296 9.86482 61.5463C10.0775 61.4568 10.3706 61.378 10.6301 61.2946C10.6967 61.2729 10.7566 61.2528 10.8231 61.2312C10.6691 61.2008 10.5284 61.1626 10.3477 61.1414C10.1136 61.1142 9.99291 61.0806 10.0051 60.9853C9.95818 60.9716 9.97852 61.0068 10.0321 61.016C10.0923 61.0251 10.2393 61.0172 10.3127 61.0063C10.4994 60.9768 10.5923 60.9382 10.5452 60.906C10.5182 60.8892 10.3911 60.8679 10.311 60.868C10.164 60.8683 10.0375 60.9023 9.99843 60.9853C9.25097 61.0496 8.47627 61.0817 7.70163 61.1076C7.6215 61.1108 7.52097 61.0803 7.42726 61.0651C7.11932 61.0134 7.1193 61.0149 6.21723 61.0011C6.12369 60.9997 5.99656 60.9784 5.94953 60.957C5.75466 60.8636 5.76014 60.7607 5.66539 60.661C5.8383 60.5962 6.01109 60.5329 6.1907 60.4696C6.5499 60.3414 7.01628 60.2285 7.29516 60.0882C7.23412 60.013 7.15302 59.9379 7.44622 59.8759C8.28036 59.7976 8.27373 59.7976 8.49997 59.7235C9.14544 59.5135 9.78417 59.3019 10.4564 59.0948C10.6361 59.0407 10.6358 59.0116 10.3148 58.9891C10.2146 58.9831 10.1075 58.9817 10.0007 58.985C9.66676 58.9963 9.33308 59.0246 9.00566 59.019C8.67825 59.0149 8.43693 58.9478 8.1692 58.9067C7.89477 58.8642 7.62034 58.8201 7.3459 58.7761C7.03197 58.7812 6.71856 58.8248 6.40373 58.7562C6.16258 58.7028 5.86151 58.6649 5.58706 58.6209C5.79274 58.5037 6.17918 58.414 6.47856 58.3105C6.75132 58.2163 6.75787 58.2179 7.49185 58.1444C7.83883 58.11 7.95697 57.9362 7.66241 57.886C7.30759 57.8251 6.93287 57.7689 6.5714 57.7112C6.25747 57.7163 5.93738 57.7584 5.63591 57.6898C5.40145 57.6379 5.13375 57.6031 4.74652 57.6237C4.09224 57.6586 3.4244 57.6767 2.76337 57.7055C2.53634 57.7151 2.28901 57.7094 2.18817 57.6574C2.12091 57.6206 2.31404 57.5696 2.53437 57.5584C2.86821 57.5425 3.16858 57.5235 3.33466 57.4464C3.49406 57.3693 3.78769 57.3458 4.13495 57.3344C4.22844 57.3312 4.33518 57.3125 4.38172 57.294C4.62114 57.2045 4.88744 57.1272 5.40189 57.1294C5.61529 57.0983 5.72832 57.0597 5.66107 57.0229C5.62074 57.003 5.4802 56.9772 5.40007 56.9804C4.84577 56.9967 4.29149 57.0131 3.7507 57.0416C3.49699 57.0544 3.30319 57.0578 3.14229 57.012C3.02835 56.9814 3.08796 56.9398 3.3012 56.8949C3.48779 56.8562 3.54075 56.8115 3.52675 56.7593C3.49187 56.638 3.29098 56.603 2.64974 56.6118C2.18886 56.6188 2.07504 56.599 1.97356 56.4947C1.94654 56.4702 1.87944 56.4365 1.926 56.4195C2.21199 56.3145 2.39749 56.1852 2.93801 56.1351C3.15157 56.1163 3.37862 56.1159 3.51174 56.0757C3.64487 56.0355 3.76461 55.9892 3.90444 55.9506C4.07757 55.9042 4.19718 55.861 4.11666 55.8319C3.98241 55.7799 3.76865 55.7757 3.52169 55.7945C3.3081 55.8103 3.08099 55.8122 2.86064 55.8218C2.46669 55.8394 2.14561 55.8 2.09802 55.7325C1.96892 55.5545 1.83312 55.3781 1.71738 55.2C1.70376 55.1786 1.73674 55.1508 1.78996 55.1323C1.97623 55.0675 2.17597 55.0057 2.36894 54.9423C2.5952 54.8697 2.95618 54.8829 3.26332 54.8686C3.69731 54.8479 3.69718 54.8494 4.2766 54.7009C4.50302 54.6421 4.89748 54.6645 5.13066 54.6118C5.20394 54.5948 5.31717 54.567 5.29695 54.5516C5.26998 54.5317 5.13625 54.5166 5.03593 54.5075C4.94229 54.4985 4.82869 54.4941 4.72854 54.4988C3.51322 54.5455 2.30465 54.5952 1.08931 54.6404C0.882307 54.6484 0.65475 54.615 0.580684 54.5675C0.506655 54.5231 0.525977 54.4693 0.511999 54.4186C0.704968 54.3553 0.924632 54.2965 1.09082 54.2286C1.21712 54.1762 1.36384 54.1529 1.61766 54.1493C1.95163 54.1442 2.27879 54.1252 2.65273 54.1107C3.34478 53.8852 4.02329 53.6489 4.76878 53.4233C5.06831 53.3322 4.99381 53.2401 5.05276 53.1432C5.1118 53.054 5.55954 53.0671 5.85985 53.0404C6.10009 53.0185 6.17955 52.9692 6.08561 52.9356C6.03192 52.9157 5.91146 52.8929 5.81793 52.893C5.59747 52.8934 5.37719 52.9076 5.15682 52.9157C4.93646 52.9237 4.68255 52.9196 4.5025 52.946C4.3291 52.9709 4.2161 53.0233 4.10307 53.0681C3.97674 53.1174 3.81005 53.1346 3.55623 53.1382C3.22892 53.1418 2.90176 53.1562 2.57454 53.1675C2.21306 53.1082 1.83816 53.0505 1.49 52.9881C1.42305 52.9759 1.40919 52.9406 1.41559 52.9176C1.42822 52.8576 1.32759 52.8209 1.10677 52.7921C0.919417 52.7679 0.765321 52.7328 0.591252 52.7024C0.724358 52.6607 0.870897 52.6205 0.977243 52.5757C1.20992 52.4816 1.50308 52.4135 2.01084 52.4157C2.21053 52.3554 2.36992 52.2814 2.62995 52.2395C2.87665 52.1991 3.29803 52.2383 3.48398 52.1473C3.57697 52.1026 3.71672 52.0517 3.89687 52.0329C4.18378 52.0032 4.55807 52.018 4.72404 51.9317C4.82365 51.8823 4.97002 51.8375 5.16361 51.8249C5.3839 51.8107 5.61094 51.8072 5.77092 51.7777C5.85758 51.7622 5.95082 51.7375 5.95056 51.716C5.95039 51.7021 5.81662 51.6809 5.72298 51.6718C5.636 51.6612 5.52221 51.6537 5.42204 51.657C5.08812 51.6668 4.76099 51.6842 4.42707 51.694C4.33358 51.6973 4.22659 51.6867 4.12627 51.6777C3.83203 51.6536 3.85166 51.6228 4.0848 51.5671C4.31797 51.5129 4.48423 51.4435 4.6772 51.3802C4.89085 51.3691 5.15809 51.3732 5.30471 51.3438C5.55131 51.2957 5.72411 51.2263 5.9238 51.166C6.14415 51.1564 6.37124 51.1529 6.57813 51.1357C6.6649 51.1294 6.70461 51.0955 6.77785 51.0754C6.91099 51.0368 7.02398 50.9813 7.20413 50.9625C7.49774 50.9344 7.85861 50.9445 8.03128 50.8597C8.13089 50.8103 8.28385 50.7579 8.47087 50.7545C8.99188 50.7474 9.21131 50.6625 9.47756 50.5822C9.67725 50.5219 10.1052 50.5519 10.3249 50.4916C10.4714 50.4529 10.5778 50.4051 10.7243 50.368C10.7843 50.3525 10.9111 50.3446 11.0112 50.3398C11.5587 50.3158 12.113 50.298 12.6605 50.2724C12.7473 50.2677 12.8272 50.2445 12.8938 50.226C13.0336 50.1858 13.1197 50.1303 13.2931 50.1039C13.4665 50.0775 13.7136 50.077 13.9273 50.069C14.6151 50.0448 14.6687 50.0508 14.9811 49.9197C15.2337 49.8132 15.8559 49.8874 16.0616 49.7703C16.181 49.7025 16.4007 49.6468 16.7948 49.6384C17.3491 49.6267 17.8966 49.5966 18.4508 49.5757C18.945 49.5564 18.9383 49.5564 19.471 49.4126C19.7107 49.3476 20.065 49.3562 20.3788 49.3434C20.7127 49.3305 21.0197 49.3116 21.1791 49.2345C21.3386 49.1589 21.6322 49.1338 21.9727 49.1225C22.2866 49.1112 22.6408 49.1182 22.8873 49.0564C23.4867 48.9078 23.48 48.9063 23.9007 48.8902C24.5618 48.8645 25.2229 48.8387 25.8839 48.8115C26.3246 48.7938 26.7855 48.7899 27.1993 48.7554C27.4996 48.7303 27.6322 48.6441 27.8252 48.5838C28.3727 48.5598 28.9202 48.5358 29.4678 48.5133C30.2356 48.4813 31.0102 48.4523 31.7848 48.4218C32.1181 48.3628 32.1634 48.2337 32.7245 48.2265C33.0585 48.2229 33.3856 48.2024 33.7195 48.1895C34.2737 48.167 34.8212 48.1384 35.3755 48.1267C35.7963 48.1183 35.8687 48.0352 36.0885 47.9826C36.1618 47.964 36.2283 47.9378 36.3151 47.933C37.183 47.8885 38.0781 47.8777 38.9257 47.8133C39.0125 47.807 39.0923 47.7746 39.1121 47.7515C39.1253 47.7392 39.0114 47.7163 38.9378 47.7057C38.8508 47.6936 38.7371 47.6815 38.6436 47.6847C35.8858 47.7924 33.1281 47.9017 30.3703 48.0094C29.983 48.0255 29.983 48.0239 29.0431 48.1945C28.9631 48.2085 28.8696 48.224 28.7695 48.2288C28.3288 48.248 27.8813 48.2595 27.4474 48.2833C27.0935 48.3024 26.7994 48.2845 26.5449 48.2296C26.3641 48.19 26.1768 48.178 25.9497 48.1815C25.6958 48.1865 25.5291 48.2037 25.3827 48.2455C25.1896 48.3026 25.0903 48.3765 24.683 48.3926C22.8065 48.4619 20.9301 48.5389 19.0604 48.6129C18.7996 48.5918 18.6723 48.5598 18.7386 48.5212C18.7784 48.4981 18.8582 48.4673 18.9383 48.464C19.7062 48.4304 20.4808 48.4015 21.2487 48.3694C21.3555 48.3646 21.5025 48.3674 21.5625 48.3519C21.8556 48.2823 21.9612 48.17 22.5156 48.1613C22.8362 48.1561 23.1632 48.1325 23.4703 48.1105C23.557 48.1042 23.6368 48.0718 23.6566 48.0487C23.6631 48.0364 23.5559 48.0135 23.4756 48.0029C23.1812 47.9589 22.8412 48.0133 22.5469 47.9831C22.4465 47.9725 22.306 47.9574 22.2857 47.9389C22.2721 47.9221 22.3854 47.8942 22.4653 47.8772C22.5386 47.8617 22.6386 47.8477 22.7388 47.8429C23.6202 47.806 24.5017 47.7676 25.3832 47.7385C25.7438 47.7271 25.9971 47.6882 26.1566 47.6173C26.2762 47.5648 26.4229 47.5369 26.6499 47.5289C28.1924 47.4693 29.7348 47.4037 31.2841 47.3487C31.6714 47.3358 31.8713 47.2847 32.0308 47.2184C32.1571 47.1659 32.3039 47.1472 32.5509 47.1376C34.7612 47.0539 36.958 46.961 39.1683 46.8803C39.5757 46.8658 39.6952 46.7995 39.9016 46.7423C39.9748 46.7222 40.0212 46.6975 40.1146 46.6851C40.2079 46.6726 40.3282 46.6739 40.4417 46.6707C42.2046 46.6015 43.9675 46.5278 45.7371 46.4633C46.1512 46.4487 46.2303 46.3718 46.4434 46.3176C46.5167 46.3006 46.5832 46.2729 46.67 46.2681C47.9921 46.2136 49.3142 46.1621 50.6364 46.1091C51.5178 46.0738 52.3992 46.0384 53.2806 46.0047C53.7147 45.9885 53.7147 45.987 54.3008 45.84C54.3674 45.823 54.4607 45.8029 54.5475 45.7981C57.085 45.6954 59.6157 45.5973 62.1531 45.4961C62.3668 45.488 62.52 45.4524 62.6262 45.4C62.7325 45.3476 62.8859 45.312 63.0929 45.3039C65.076 45.2237 67.0592 45.145 69.0491 45.0693C69.4097 45.0564 69.6631 45.0191 69.8226 44.9496C69.9422 44.8972 70.0888 44.8693 70.3159 44.8612C72.2991 44.784 74.2824 44.7022 76.2723 44.6281C76.653 44.6136 76.8393 44.5611 77.0256 44.4993C77.0922 44.4777 77.1452 44.4422 77.2253 44.439C78.2135 44.3943 79.195 44.348 80.19 44.3171C80.6041 44.3041 80.7436 44.2393 80.9099 44.1776C81.0429 44.1282 81.1964 44.111 81.4502 44.1044C82.0045 44.0897 82.552 44.0626 83.0928 44.0355C83.1729 44.0308 83.2727 43.9968 83.2791 43.9753C83.292 43.9353 83.138 43.9079 82.8839 43.8946C80.2396 43.999 77.5887 44.1035 74.9445 44.2079C74.5104 44.2256 74.5104 44.2256 73.9243 44.3726C73.8577 44.3896 73.7643 44.4097 73.6708 44.4145C71.1334 44.5157 68.6027 44.6153 66.0653 44.7165C65.8516 44.7246 65.6984 44.7602 65.5921 44.8126C65.4859 44.865 65.3325 44.9006 65.1255 44.9087C62.7016 45.005 60.2778 45.103 57.8471 45.1948C57.4865 45.2077 57.2331 45.2434 57.0737 45.3144C56.954 45.3668 56.8074 45.3947 56.5804 45.4028C54.2633 45.4929 51.9528 45.5875 49.629 45.6745C49.3952 45.6826 49.2211 45.6384 49.234 45.5969C49.2404 45.5753 49.34 45.5398 49.4201 45.5366C50.6287 45.4838 51.8307 45.4295 53.0461 45.389C53.4534 45.376 53.5728 45.3082 53.7792 45.251C53.8457 45.2309 53.8989 45.2047 53.9856 45.1938C54.079 45.1813 54.1993 45.1827 54.3128 45.1794C57.1774 45.0653 60.0421 44.9497 62.9135 44.8418C63.3275 44.8257 63.4067 44.7503 63.6198 44.6962C63.693 44.6776 63.7596 44.6499 63.8464 44.6466C64.7278 44.6082 65.6092 44.5744 66.4906 44.5406C68.0331 44.4796 69.5756 44.4185 71.1248 44.3574C71.5722 44.3398 71.5722 44.3398 72.1449 44.1943C72.2115 44.1773 72.3049 44.1557 72.3917 44.1525C76.4716 43.9902 80.5516 43.8279 84.6316 43.6672C84.8453 43.6592 84.9985 43.6236 85.1047 43.5711C85.211 43.5203 85.3642 43.4831 85.5711 43.4735C91.0868 43.255 96.5957 43.0365 102.111 42.8211C102.472 42.8066 102.725 42.7739 102.885 42.7014C102.998 42.649 103.151 42.6211 103.378 42.6115C109.441 42.372 115.504 42.1326 121.574 41.8916C125.654 41.7309 129.734 41.5671 133.814 41.4094C134.188 41.395 134.388 41.347 134.574 41.2837C134.634 41.262 134.694 41.2266 134.774 41.2234C135.649 41.1835 136.523 41.1466 137.398 41.1098C137.672 41.1508 137.947 41.1902 138.221 41.2312C138.428 41.1725 138.627 41.1122 138.834 41.0535C140.156 41.0067 141.458 40.9353 142.794 40.9114C142.88 40.9097 142.974 40.9388 143.068 40.954C143.69 41.0497 144.044 41.0414 144.437 40.9116C144.577 40.8653 144.696 40.8236 144.91 40.8156C145.571 40.7868 146.239 40.7672 146.893 40.7338C147.247 40.7163 147.541 40.7311 147.796 40.786C147.977 40.8256 148.164 40.8422 148.384 40.8326C149.6 40.7844 150.808 40.7377 152.024 40.6865C152.11 40.6832 152.19 40.657 152.257 40.6384C152.397 40.5982 152.516 40.555 152.649 40.5133C152.83 40.5391 153.031 40.5587 153.178 40.5923C153.366 40.6319 153.539 40.6316 153.793 40.6204C158.641 40.4261 163.496 40.2364 168.343 40.0405C168.757 40.0244 168.939 40.0886 169.22 40.122C169.313 40.1341 169.407 40.1493 169.507 40.1522C169.614 40.1551 169.728 40.1457 169.834 40.1409C173.474 39.9963 177.113 39.8532 180.752 39.7086C181.233 39.6893 181.233 39.6893 181.949 39.7834C182.036 39.7955 182.15 39.8091 182.243 39.8044C183.899 39.7416 185.555 39.6742 187.204 39.6098C187.418 39.6018 187.599 39.6261 187.793 39.6611C188.175 39.7295 188.201 39.7295 188.481 39.6276C188.614 39.5797 188.754 39.5503 188.974 39.5361C189.214 39.5203 189.408 39.5246 189.595 39.5519C189.863 39.5899 190.058 39.654 190.465 39.6364C192.228 39.5612 193.997 39.4982 195.753 39.4214C196.154 39.4038 196.369 39.4557 196.636 39.4936C196.73 39.5073 196.817 39.5286 196.917 39.5331C197.018 39.5375 197.138 39.5265 197.244 39.5217C199.448 39.4349 201.658 39.3497 203.855 39.2568C204.269 39.2391 204.45 39.3049 204.731 39.3382C204.825 39.3503 204.932 39.3717 205.019 39.3684C206.341 39.3185 207.67 39.2655 208.992 39.2125C209.466 39.1932 209.466 39.1948 210.189 39.2872C210.276 39.2994 210.39 39.3115 210.483 39.3082C212.026 39.2487 213.575 39.1876 215.117 39.1266C215.591 39.1073 215.591 39.1073 216.962 39.1848C217.062 39.1908 217.169 39.1998 217.269 39.1966C219.032 39.1275 220.802 39.0599 222.564 38.9861C222.918 38.9717 223.213 38.9835 223.467 39.0383C223.648 39.078 223.835 39.0945 224.055 39.0849C226.039 39.0062 228.029 38.9306 230.005 38.8472C230.386 38.8312 230.633 38.8646 230.901 38.9087C230.988 38.9239 231.075 38.9452 231.176 38.9512C231.276 38.9572 231.389 38.9508 231.496 38.946C233.479 38.8673 235.469 38.7932 237.446 38.7083C237.846 38.6907 238.061 38.7426 238.329 38.7805C238.422 38.7942 238.523 38.8217 238.603 38.82C239.377 38.7925 240.152 38.7682 240.92 38.7284C241.334 38.7062 241.515 38.7765 241.796 38.8098C241.89 38.8204 241.997 38.8433 242.084 38.8401C243.74 38.7773 245.396 38.7114 247.045 38.644C247.279 38.6344 247.453 38.6479 247.64 38.6876C247.888 38.7409 248.176 38.7619 248.536 38.7444C249.304 38.7077 250.079 38.6818 250.853 38.6513C251.307 38.6336 251.307 38.6336 252.698 38.711C252.798 38.717 252.905 38.726 253.005 38.7228C254.327 38.6713 255.656 38.6214 256.972 38.5653C257.326 38.5494 257.62 38.5627 257.874 38.6175C258.055 38.6572 258.236 38.6738 258.463 38.6642C259.678 38.616 260.887 38.5678 262.102 38.5196C262.543 38.5019 262.983 38.4719 263.424 38.4712C263.745 38.4722 263.98 38.5455 264.267 38.5819C264.348 38.5925 264.481 38.58 264.588 38.5767C266.13 38.5156 267.68 38.4592 269.215 38.3904C269.616 38.3729 269.83 38.4247 270.098 38.4627C270.192 38.4763 270.292 38.5038 270.372 38.5021C270.927 38.4843 271.474 38.4603 272.028 38.4393C272.69 38.4136 273.357 38.394 274.012 38.3591C274.546 38.3305 274.748 38.4638 275.175 38.4677C275.503 38.4717 275.837 38.445 276.164 38.4322C276.825 38.4064 277.486 38.3776 278.147 38.355C278.381 38.3469 278.561 38.322 278.634 38.2665C278.647 38.2558 278.533 38.2329 278.459 38.2192C277.569 38.0641 277.569 38.0641 276.674 38.0994C276.12 38.1219 275.572 38.1443 275.018 38.1637C274.925 38.167 274.818 38.1549 274.724 38.1458C274.456 38.1202 274.483 38.0894 274.709 38.0337C274.936 37.978 275.108 37.9101 275.301 37.8468C275.576 37.8862 275.844 37.9257 276.118 37.9652C276.338 37.9571 276.559 37.9475 276.779 37.9395C277.881 37.8976 278.983 37.8542 280.085 37.8154C280.165 37.8122 280.265 37.8428 280.359 37.858C280.627 37.9021 280.868 37.94 281.255 37.9225C282.243 37.8762 283.238 37.8422 284.226 37.8021C284.66 37.7844 284.66 37.7844 285.423 37.8784C285.51 37.889 285.624 37.9011 285.717 37.8978C286.712 37.8608 287.701 37.8206 288.695 37.782C288.909 37.774 289.117 37.7936 289.271 37.8379C289.331 37.8562 289.318 37.887 289.575 38.1385C290.366 38.3414 290.907 38.319 291.454 38.2996C291.688 38.2915 291.895 38.2835 292.048 38.2525C292.128 38.2354 292.228 38.2107 292.228 38.1907C292.228 38.1753 292.081 38.151 291.987 38.1481C291.325 38.1185 290.698 38.1841 290.05 38.1991C289.75 38.2058 289.488 38.1524 289.434 38.065C289.42 38.0404 289.4 38.0143 289.379 37.9898C289.359 37.9652 289.346 37.9391 289.325 37.9146C289.065 37.9074 288.911 37.9353 288.798 37.9877C288.705 38.0309 288.572 38.0803 288.392 38.1036C288.212 38.1285 287.965 38.1244 287.744 38.1324C287.531 38.1405 287.297 38.1609 287.097 38.1505C286.896 38.1385 286.735 38.0942 286.548 38.0669C286.461 38.0532 286.354 38.0334 286.267 38.0367C285.499 38.0641 284.738 38.0916 283.977 38.1267C283.576 38.1458 283.375 38.0816 283.12 38.0421C282.92 38.0118 282.719 38.0198 282.687 38.0905C282.602 38.2597 282.91 38.3298 283.591 38.2963C284.152 38.2677 284.66 38.2622 285.102 38.3659C285.162 38.3797 285.302 38.3856 285.389 38.3823C285.937 38.3629 286.478 38.339 287.025 38.3196C287.125 38.3163 287.232 38.3223 287.326 38.3283C288.69 38.4089 288.69 38.4104 289.151 38.3912C289.371 38.3816 289.585 38.3735 289.562 38.14C289.98 37.8889 290.647 37.8708 291.295 37.8328C291.716 37.809 291.897 37.8763 292.171 37.9112C292.265 37.9233 292.365 37.9477 292.452 37.9445C293.888 37.8913 295.317 37.835 296.746 37.7757C296.986 37.7661 297.16 37.775 297.347 37.8146C297.588 37.8649 297.856 37.8967 298.237 37.8776C298.998 37.8394 299.773 37.815 300.547 37.783C300.941 37.7669 300.941 37.7669 301.737 37.8608C301.824 37.8714 301.938 37.8835 302.031 37.8802C302.806 37.8528 303.574 37.8192 304.342 37.7902C304.556 37.7821 304.75 37.8033 304.917 37.8445C305.085 37.8857 305.285 37.9068 305.492 37.8988C306.267 37.8698 307.035 37.8378 307.803 37.8088C307.896 37.8055 308.01 37.8161 308.097 37.8267C308.913 37.9205 308.913 37.9205 309.287 37.9045C309.835 37.8805 310.396 37.8688 310.936 37.8371C311.464 37.8055 311.739 37.8941 312.1 37.9426C313.088 37.9056 314.083 37.8747 315.065 37.83C315.465 37.8108 315.68 37.8611 315.948 37.9006C316.041 37.9143 316.135 37.9433 316.222 37.9416C316.556 37.9349 316.883 37.9174 317.21 37.9046C317.538 37.8917 317.871 37.8789 318.199 37.866C318.573 37.9099 318.822 38.0139 319.356 37.9777C319.676 37.9556 320.017 37.9504 320.344 37.9375C320.671 37.9247 321.005 37.9118 321.332 37.899C321.553 37.8909 321.78 37.8859 321.993 37.8717C322.387 37.848 322.582 37.9229 322.863 37.9562C322.957 37.9668 323.064 37.985 323.15 37.9818C323.811 37.9592 324.479 37.9396 325.127 37.9031C325.628 37.8746 325.969 37.9201 326.324 37.984C326.397 37.9977 326.524 38.0052 326.618 38.0019C327.393 37.9745 328.16 37.9409 328.928 37.9119C329.135 37.9038 329.336 37.9281 329.504 37.9677C329.678 38.0089 329.872 38.0285 330.085 38.0205C330.853 37.9915 331.628 37.9594 332.396 37.9304C332.489 37.9272 332.603 37.9393 332.69 37.9514C333.439 38.0454 333.44 38.0469 333.88 38.0277C333.987 38.0229 334.101 38.0196 334.207 38.0149C334.755 37.9924 335.323 37.9837 335.857 37.9459C336.471 37.9034 336.919 37.9548 337.354 38.0417C337.902 38.0223 338.463 38.0105 338.997 37.9789C339.398 37.9552 339.612 38.0132 339.88 38.0511C339.973 38.0648 340.074 38.0922 340.154 38.089C340.929 38.0616 341.703 38.0372 342.464 37.9975C342.878 37.9752 343.06 38.044 343.341 38.0789C343.434 38.091 343.535 38.1124 343.622 38.1091C344.062 38.0961 344.503 38.0769 344.944 38.0592C345.458 38.0383 345.458 38.0399 346.14 38.1324C346.462 38.1764 346.782 38.1405 347.096 38.1292C347.43 38.1163 347.744 38.1066 348.012 38.1691C348.179 38.2088 348.38 38.233 348.587 38.2265C349.028 38.2119 349.475 38.1973 349.909 38.1735C350.256 38.1545 350.557 38.1662 350.811 38.2226C350.992 38.2622 351.18 38.2819 351.4 38.2723C352.388 38.2337 353.383 38.1936 354.371 38.1565C354.458 38.1533 354.579 38.1669 354.659 38.1806C354.846 38.2079 355.027 38.2383 355.208 38.2688C355.642 38.2542 356.089 38.2473 356.517 38.225C356.971 38.2027 357.385 38.1943 357.74 38.2782C357.814 38.2965 357.921 38.3224 358.008 38.3207C358.342 38.314 358.669 38.2981 358.996 38.2852C359.323 38.2724 359.657 38.2595 359.984 38.2466C360.366 38.2844 360.608 38.3946 361.142 38.3583C361.462 38.3362 361.803 38.331 362.13 38.3182C362.457 38.3053 362.791 38.2909 363.118 38.2796C363.225 38.2763 363.345 38.2684 363.439 38.2744C363.539 38.2804 363.626 38.3018 363.713 38.317C363.981 38.3611 364.229 38.4052 364.609 38.3784C364.929 38.3563 365.27 38.3511 365.597 38.3368C366.045 38.3191 366.045 38.3191 366.787 38.4146C367.088 38.454 367.429 38.4012 367.716 38.4345C367.91 38.4572 368.078 38.4953 368.265 38.5211C368.345 38.5317 368.472 38.5361 368.566 38.5328C369.007 38.5183 369.454 38.5037 369.888 38.4799C370.242 38.4608 370.536 38.4787 370.784 38.5336C370.965 38.5732 371.145 38.5898 371.372 38.5802C372.474 38.5353 373.576 38.4965 374.671 38.447C375.045 38.4294 375.346 38.455 375.554 38.51C375.909 38.6046 376.409 38.4916 376.777 38.5678C377.005 38.615 377.232 38.6699 377.646 38.6461C378.407 38.6049 379.182 38.582 379.95 38.553C380.224 38.594 380.499 38.635 380.78 38.676C381.221 38.6584 381.661 38.6407 382.102 38.6246C382.429 38.6117 382.763 38.5973 383.09 38.586C383.197 38.5827 383.311 38.5764 383.411 38.5839C383.511 38.5914 383.592 38.6112 383.686 38.6264C384.147 38.7009 384.147 38.7024 384.908 38.6704C385.236 38.656 385.55 38.6462 385.824 38.7072C386.079 38.7636 386.379 38.7738 386.727 38.7563C387.381 38.7245 388.042 38.7003 388.71 38.6776C388.917 38.6696 389.111 38.6954 389.285 38.735C389.546 38.7975 389.867 38.7908 390.194 38.7734C390.628 38.7511 391.055 38.7289 391.424 38.8143C391.498 38.8326 391.612 38.8585 391.692 38.8568C392.239 38.8436 392.794 38.8334 393.328 38.8033C393.862 38.7731 394.124 38.8679 394.492 38.9134C395.039 38.8925 395.593 38.8715 396.141 38.8506C396.248 38.8458 396.375 38.8318 396.468 38.8393C396.863 38.8709 397.091 38.9857 397.632 38.9494C397.946 38.9289 398.286 38.9222 398.614 38.917C398.7 38.9153 398.814 38.9412 398.875 38.9611C398.908 38.9718 398.875 39.001 398.835 39.0165C398.716 39.0597 398.569 39.0999 398.463 39.1446C398.449 39.1508 398.577 39.1782 398.65 39.1904C398.831 39.2177 399.038 39.2128 399.278 39.2001C399.485 39.1889 399.7 39.2101 399.847 39.2559C399.907 39.2742 399.888 39.305 399.762 39.4066C399.763 39.4819 399.903 39.4478 399.949 39.3986C400.022 39.3278 399.881 39.305 399.614 39.3439C399.428 39.3719 399.335 39.412 399.382 39.4441C399.409 39.461 399.536 39.4823 399.762 39.4066C400.349 39.3134 400.79 39.2958 401.23 39.2781C401.344 39.2733 401.477 39.2577 401.557 39.2668C401.845 39.3031 402.113 39.3472 402.394 39.3882C402.715 39.3785 403.015 39.3549 403.33 39.4142C403.772 39.498 403.792 39.4903 404.219 39.4726C404.439 39.463 404.66 39.455 404.88 39.4469C405.1 39.4388 405.274 39.4616 405.468 39.4966C405.863 39.5681 405.897 39.568 406.156 39.4693C406.309 39.4091 406.416 39.3889 406.61 39.4162C407.252 39.5088 407.259 39.515 407.807 39.4864C408.261 39.4625 408.688 39.4556 409.023 39.5426C409.251 39.6037 409.324 39.5897 409.504 39.5249C409.983 39.3535 410.203 39.3562 411.107 39.4776C411.528 39.5352 411.962 39.4715 412.389 39.463C412.75 39.4563 413.004 39.4927 413.032 39.5894C413.053 39.6493 413.114 39.6922 413.354 39.7118C413.448 39.7193 413.562 39.7299 413.655 39.7266C414.209 39.7072 414.757 39.6848 415.311 39.6623C415.592 39.6511 415.744 39.5786 415.69 39.4834C415.628 39.3821 415.735 39.3451 416.135 39.3152C416.376 39.2979 416.569 39.3006 416.764 39.3279C416.978 39.3583 416.918 39.386 416.731 39.4417C416.286 39.5777 416.34 39.6605 416.916 39.7532C417.116 39.7851 417.277 39.8141 417.324 39.8616C417.351 39.8861 417.325 39.9184 417.386 39.9368C417.714 40.0391 418.169 40.1044 418.677 40.1527C419.165 40.1104 419.5 40.1789 419.874 40.2336C420.169 40.2761 420.516 40.2386 420.83 40.2227C421.183 40.2052 421.478 40.217 421.732 40.2734C421.913 40.313 422.1 40.3311 422.321 40.323C422.761 40.3054 423.209 40.2938 423.643 40.2685C424.016 40.2464 424.297 40.2766 424.532 40.3284C424.827 40.394 425.154 40.3488 425.461 40.3575C425.875 40.3676 426.084 40.5039 426.625 40.4661C426.945 40.4441 427.279 40.4358 427.613 40.4291C427.7 40.4274 427.807 40.4533 427.881 40.4716C428.236 40.5555 428.65 40.5502 429.104 40.5248C429.418 40.5074 429.725 40.4915 430.033 40.5493C430.542 40.6468 431.104 40.7318 431.64 40.8215C431.714 40.8921 431.661 40.9751 432.043 41.0159C432.243 41.0371 432.431 41.069 432.585 41.1041C432.773 41.1453 432.946 41.1557 433.187 41.1446C433.621 41.1223 434.075 41.1169 434.502 41.0885C434.896 41.0632 435.144 41.1135 435.385 41.1607C435.579 41.1988 435.76 41.2169 435.993 41.1888C436.233 41.1623 436.407 41.1789 436.601 41.22C436.876 41.2764 436.896 41.2702 437.805 41.2855C437.898 41.2869 438.012 41.3098 438.066 41.3296C438.093 41.3403 438.033 41.3712 437.986 41.3866C437.927 41.4052 437.833 41.4268 437.746 41.4316C436.758 41.4733 435.763 41.5103 434.775 41.552C434.675 41.5568 434.568 41.5677 434.495 41.5832C434.415 41.6002 434.315 41.6234 434.315 41.645C434.315 41.6603 434.449 41.6785 434.543 41.6891C434.837 41.7239 435.184 41.6696 435.472 41.709C435.666 41.7348 435.826 41.7714 436.021 41.7956C436.101 41.8062 436.228 41.8045 436.328 41.8012C436.662 41.7899 436.989 41.774 437.323 41.7642C437.417 41.7625 437.524 41.7777 437.611 41.7898C438.253 41.8809 438.253 41.8809 438.807 41.8599C439.028 41.8519 439.261 41.8284 439.468 41.8373C439.669 41.8461 439.843 41.8873 440.024 41.9131C440.399 41.9678 440.753 42.0209 440.781 42.1407C440.795 42.1868 441.016 42.2263 441.237 42.229C441.451 42.2317 441.678 42.2145 441.898 42.2049C442.419 42.1855 442.419 42.1855 443.095 42.2781C443.282 42.3038 443.482 42.3066 443.723 42.2908C443.816 42.2845 443.93 42.2904 444.03 42.2979C444.358 42.3204 444.358 42.3496 444.145 42.4053C443.845 42.4872 443.872 42.4949 444.715 42.5625C445.036 42.5881 445.284 42.6368 445.551 42.6794C445.986 42.7478 445.98 42.7478 445.694 42.8389C445.627 42.859 445.567 42.8806 445.501 42.9022C445.308 42.9625 445.155 43.0273 444.754 43.0341C444.313 43.041 443.872 43.0664 443.432 43.084C443.004 43.1017 442.891 43.1387 442.933 43.2431C442.981 43.369 443.068 43.3827 443.836 43.3798C444.057 43.3795 444.251 43.3914 444.418 43.4326C444.339 43.4819 444.192 43.5206 443.978 43.5302C443.431 43.5541 442.877 43.5751 442.329 43.596C441.888 43.6137 441.448 43.6313 441.007 43.649C440.733 43.6602 440.56 43.7404 440.635 43.8294C440.676 43.88 440.71 43.9307 440.744 43.9813C440.818 44.0826 440.959 44.1085 441.407 44.1031C441.52 44.1013 441.627 44.0889 441.734 44.0917C442.168 44.1017 442.377 44.2289 442.898 44.2019C443.332 44.1796 443.786 44.1742 444.213 44.1458C444.607 44.1205 444.828 44.1755 445.102 44.2165C445.196 44.2302 445.297 44.2592 445.377 44.2575C445.931 44.2396 446.485 44.2218 447.026 44.1916C447.28 44.1789 447.434 44.1879 447.634 44.2244C448.117 44.3126 448.13 44.308 448.844 44.2791C449.365 44.2567 449.372 44.2598 450.041 44.3523C450.229 44.3781 450.429 44.3778 450.669 44.3651C450.983 44.3491 451.31 44.324 451.638 44.3465C451.738 44.3524 451.865 44.3707 451.899 44.3906C451.919 44.4044 451.826 44.4383 451.746 44.4492C451.159 44.5301 450.471 44.5175 449.83 44.5509C449.629 44.5604 449.429 44.5316 449.261 44.4904C449.087 44.4492 448.9 44.4327 448.673 44.4407C448.232 44.4584 447.784 44.4699 447.351 44.4953C446.977 44.5174 446.716 44.4825 446.455 44.4354C446.368 44.4202 446.267 44.3911 446.18 44.3928C445.192 44.4253 444.197 44.4577 443.215 44.5024C442.821 44.5216 442.594 44.4728 442.326 44.4318C442.232 44.4181 442.138 44.3891 442.052 44.3908C441.718 44.3975 441.39 44.415 441.057 44.4278C439.841 44.476 438.633 44.5242 437.417 44.5694C437.337 44.5726 437.236 44.5405 437.143 44.5268C436.962 44.4995 436.775 44.4737 436.587 44.4479C436.253 44.4608 435.926 44.4767 435.592 44.4865C435.352 44.4931 435.138 44.5149 435.106 44.5734C435.086 44.6118 435.307 44.6468 435.541 44.6433C435.768 44.6398 435.995 44.621 436.182 44.6406C437.112 44.7373 437.112 44.7389 437.693 44.7179C438.2 44.6986 438.147 44.6833 438.595 44.767C438.79 44.8036 438.964 44.8248 439.184 44.8152C439.732 44.7927 440.286 44.7702 440.84 44.7508C440.927 44.7476 441.04 44.7628 441.127 44.7749C441.783 44.866 441.783 44.869 442.324 44.8451C443.032 44.8162 443.059 44.8084 443.534 44.9013C443.862 44.9653 444.162 44.9202 444.476 44.9166C444.838 44.9759 445.233 45.029 445.561 45.096C445.949 45.1752 446.356 45.1607 446.797 45.1369C447.124 45.1194 447.445 45.1127 447.713 45.1752C447.968 45.2332 448.275 45.2388 448.622 45.2228C448.936 45.2084 449.256 45.1787 449.584 45.2119C449.671 45.221 449.805 45.2438 449.798 45.2576C449.792 45.2792 449.705 45.31 449.619 45.3194C449.005 45.3835 448.33 45.3831 447.682 45.4134C447.596 45.4182 447.482 45.4015 447.395 45.3893C447.207 45.362 447.027 45.3301 446.846 45.3012C446.519 45.311 446.185 45.3146 445.864 45.3336C445.617 45.3479 445.43 45.3467 445.249 45.3101C445.082 45.2766 444.901 45.2354 444.701 45.225C444.5 45.2146 444.266 45.2381 444.046 45.2477C443.826 45.2573 443.572 45.2531 443.398 45.278C443.225 45.3028 443.119 45.3568 443.006 45.4C442.879 45.4479 442.706 45.4635 442.452 45.4686C442.218 45.4736 442.031 45.4678 441.857 45.4251C441.783 45.4068 441.683 45.3931 441.582 45.381C441.489 45.3704 441.382 45.3537 441.295 45.3569C440.3 45.394 439.312 45.4341 438.317 45.4727C437.823 45.492 437.829 45.492 436.799 45.4031C436.706 45.3956 436.592 45.385 436.499 45.3883C435.944 45.4077 435.397 45.4301 434.843 45.4526C434.282 45.4751 434.288 45.472 433.332 45.3769C433.158 45.3587 432.904 45.3838 432.697 45.3811C432.263 45.3741 432.048 45.2455 431.54 45.2709C431.106 45.2932 430.652 45.2986 430.218 45.327C429.824 45.3522 429.596 45.2989 429.329 45.2579C429.235 45.2442 429.134 45.2136 429.054 45.2169C428.059 45.2524 427.071 45.2925 425.748 45.2994C425.421 45.3 425.568 45.332 425.782 45.3424C426.09 45.3587 426.19 45.3263 426.022 45.2651C425.901 45.2223 425.727 45.2011 425.587 45.2121C425.513 45.2184 425.42 45.2477 425.748 45.2994C426.096 45.3572 426.077 45.3895 426.137 45.4078C426.285 45.4521 426.492 45.4702 426.706 45.4637C427.04 45.4523 427.367 45.4364 427.701 45.4266C427.794 45.4234 427.908 45.4339 427.995 45.4461C428.731 45.54 428.738 45.5462 429.519 45.508C429.766 45.4968 429.946 45.4965 430.14 45.5253C430.408 45.5648 430.603 45.632 431.01 45.6098C431.551 45.5797 432.105 45.5618 432.659 45.544C432.746 45.5408 432.84 45.5682 432.94 45.5804C433.214 45.6168 433.416 45.6855 433.823 45.6556C434.137 45.6321 434.477 45.6253 434.811 45.6201C434.898 45.6184 435.032 45.6428 435.072 45.6627C435.153 45.6979 435.053 45.7395 434.826 45.7691C434.733 45.7816 434.606 45.7787 434.499 45.7835C434.058 45.8012 433.618 45.8204 433.177 45.835C432.943 45.8431 432.723 45.8665 432.697 45.9234C432.678 45.9618 432.918 45.9952 433.146 45.9917C433.479 45.9865 433.813 45.9737 434.134 45.9531C434.701 45.9184 435.196 45.9267 435.658 46.0227C435.986 46.0897 435.966 46.0652 436.315 46.2643C436.403 46.3149 436.664 46.319 436.891 46.3155C437.438 46.3069 437.693 46.3295 437.646 46.3772C437.587 46.4357 437.393 46.4545 437.146 46.4626C436.706 46.4756 436.265 46.4964 435.824 46.5141C435.717 46.5188 435.597 46.5283 435.497 46.5254C435.397 46.5225 435.303 46.5042 435.216 46.4905C435.029 46.4617 434.868 46.4174 434.667 46.407C434.467 46.3966 434.233 46.42 434.013 46.4296C433.792 46.4377 433.559 46.4611 433.358 46.4507C433.158 46.4403 432.99 46.3945 432.809 46.3672C432.722 46.3535 432.615 46.3322 432.528 46.3339C432.088 46.3469 431.647 46.3677 431.206 46.3838C430.665 46.4047 430.665 46.4047 430.01 46.3106C429.822 46.2833 429.628 46.2851 429.381 46.2979C428.847 46.3234 428.841 46.3188 427.864 46.2314C427.77 46.2223 427.657 46.2117 427.563 46.2165C426.568 46.2536 425.58 46.2937 424.592 46.3323C423.744 46.366 423.744 46.366 423.278 46.5205C422.932 46.6348 422.925 46.6348 423.266 46.6864C423.541 46.729 423.789 46.7915 424.09 46.814C424.371 46.8351 424.717 46.7653 425.025 46.8355C425.18 46.8705 425.38 46.9086 425.574 46.9144C425.881 46.9215 426.208 46.8764 426.503 46.9435C426.651 46.977 426.871 47.012 427.059 47.0132C427.386 47.0157 427.72 46.9906 428.047 46.9792C428.147 46.976 428.261 46.9758 428.354 46.9833C428.455 46.9924 428.542 47.0106 428.629 47.0259C428.896 47.0776 429.184 47.1017 429.531 47.075C430.098 47.031 430.606 47.0516 431.049 47.1492C431.109 47.1629 431.256 47.1642 431.349 47.1579C431.59 47.1421 431.797 47.1402 431.977 47.1691C432.051 47.1812 432.158 47.2025 432.145 47.2164C432.125 47.2395 432.045 47.2703 431.959 47.2782C431.331 47.3315 430.657 47.3388 430.009 47.3676C429.922 47.3708 429.815 47.351 429.728 47.3373C429.541 47.31 429.38 47.2642 429.179 47.2538C428.979 47.2434 428.745 47.2638 428.525 47.2718C428.304 47.2799 428.071 47.3034 427.87 47.2945C427.67 47.2841 427.482 47.246 427.321 47.2125C427.134 47.1744 426.954 47.1701 426.707 47.1859C426.386 47.2064 426.052 47.2101 425.725 47.2214C425.544 47.1925 425.363 47.1606 425.176 47.1332C425.089 47.1196 424.982 47.1029 424.888 47.1046C424.448 47.1176 424.007 47.1368 423.566 47.1545C423.125 47.1721 423.126 47.1722 422.376 47.0782C422.289 47.0676 422.175 47.0555 422.082 47.0587C421.528 47.0781 420.98 47.1021 420.426 47.1215C420.212 47.1296 420.018 47.1084 419.844 47.0672C419.676 47.026 419.476 47.0033 419.269 47.0114C418.387 47.0452 417.506 47.0774 416.624 47.1174C416.271 47.1333 415.97 47.12 415.729 47.0652C415.447 47.0027 415.133 47.0186 414.806 47.0314C414.065 47.0634 414.058 47.0619 413.583 46.9844C413.489 46.9692 413.396 46.9401 413.309 46.9418C412.541 46.9662 411.766 46.9891 411.005 47.0273C410.604 47.0479 410.39 46.9945 410.122 46.9551C410.028 46.9414 409.928 46.9124 409.848 46.9156C409.294 46.9334 408.739 46.9498 408.198 46.9814C407.658 47.0131 407.449 46.8706 407.041 46.8728C406.487 46.8753 405.939 46.9116 405.392 46.9341C404.951 46.9518 404.511 46.9694 404.07 46.9871C403.629 47.0047 403.188 47.0193 402.748 47.0401C402.514 47.0512 402.34 47.0377 402.146 46.9996C401.898 46.9494 401.604 46.9099 401.336 46.8643C400.928 46.799 400.928 46.799 400.433 46.8182C400.327 46.823 400.213 46.8263 400.106 46.8311C399.298 46.8663 399.298 46.8632 398.268 46.7682C398.222 46.7637 398.101 46.7808 398.055 46.7932C397.915 46.8334 397.789 46.8766 397.662 46.9183C397.482 46.894 397.261 46.8806 397.14 46.8455C396.798 46.7462 396.266 46.8839 395.917 46.7861C395.79 46.7495 395.569 46.7176 395.368 46.7087C395.161 46.6999 394.927 46.7218 394.714 46.7314C394.16 46.7554 394.159 46.7539 393.687 46.8914C393.447 46.9594 393.1 46.9477 392.786 46.9637C392.459 46.9811 392.145 46.9909 391.87 46.9284C391.622 46.872 391.322 46.8587 390.968 46.8777C390.534 46.9015 390.086 46.9161 389.646 46.9307C389.552 46.9339 389.438 46.9265 389.345 46.9174C388.321 46.8285 388.321 46.827 387.827 46.8478C387.607 46.8574 387.38 46.8609 387.166 46.8751C386.806 46.9003 386.532 46.8685 386.27 46.8198C386.183 46.8046 386.083 46.7756 385.996 46.7773C385.555 46.7857 385.121 46.8003 384.687 46.8149C384.353 46.8262 384.019 46.8329 383.699 46.855C383.165 46.8913 382.903 46.7918 382.535 46.7464C381.987 46.7673 381.433 46.7821 380.886 46.8107C380.632 46.8234 380.465 46.8191 380.271 46.7826C380.023 46.7369 379.795 46.6851 379.395 46.7088C378.861 46.7405 378.3 46.7522 377.752 46.7716C377.384 46.7246 377.116 46.6283 376.588 46.6645C376.268 46.6866 375.927 46.6918 375.6 46.7047C375.159 46.7223 374.719 46.7385 374.278 46.7577C373.804 46.7769 373.81 46.7723 373.081 46.6829C372.66 46.6299 372.226 46.6906 371.798 46.7005C371.465 46.7088 371.298 46.7797 371.38 46.8702C371.461 46.9607 371.281 47.0317 370.974 47.0446C370.206 47.0751 369.432 47.1071 368.664 47.1346C368.57 47.1378 368.457 47.1273 368.37 47.1167C367.547 47.0213 367.547 47.0229 367.18 47.0373C366.632 47.0613 366.071 47.0746 365.53 47.1047C365.156 47.1253 364.882 47.0935 364.641 47.0417C364.453 47.0021 364.28 46.9932 364.039 47.0028C361.395 47.1104 358.751 47.2102 356.113 47.3208C355.719 47.3368 355.492 47.2927 355.224 47.2517C355.13 47.238 355.043 47.209 354.949 47.2091C354.729 47.2095 354.509 47.2237 354.288 47.2333C353.3 47.2719 352.312 47.3182 351.317 47.3476C350.896 47.3606 350.783 47.4314 350.604 47.4901C350.464 47.5349 350.304 47.5536 350.057 47.5602C349.816 47.5668 349.642 47.5594 349.455 47.5198C349.214 47.468 348.94 47.4362 348.566 47.4583C348.132 47.4837 347.691 47.4952 347.243 47.5129C347.016 47.5209 346.843 47.5489 346.77 47.6043C346.757 47.6136 346.898 47.6364 346.978 47.6501C347.246 47.6957 347.5 47.749 347.801 47.7808C348.109 47.8125 348.442 47.775 348.763 47.7653C348.877 47.762 348.983 47.7526 349.09 47.7539C349.19 47.7553 349.311 47.7628 349.385 47.7765C349.733 47.845 350.101 47.892 350.581 47.8497C350.996 47.8689 351.211 47.9961 351.738 47.9614C352.059 47.9408 352.393 47.931 352.727 47.9228C352.814 47.9211 352.907 47.9486 353.001 47.9622C353.269 48.0002 353.483 48.0613 353.884 48.0344C354.311 48.006 354.765 48.0007 355.199 47.9784C355.44 47.9657 355.613 47.9761 355.801 48.0158C356.042 48.066 356.316 48.104 356.69 48.0787C357.011 48.0567 357.351 48.0515 357.678 48.0371C358.106 48.0194 358.106 48.021 358.869 48.1149C358.956 48.1255 359.069 48.1376 359.163 48.1343C359.717 48.1149 360.264 48.091 360.819 48.0716C361.032 48.0635 361.24 48.0831 361.387 48.1274C361.448 48.1457 361.428 48.1765 361.448 48.2026C360.347 48.246 359.245 48.2832 358.15 48.3358C357.736 48.3565 357.548 48.2939 357.274 48.259C357.18 48.2469 357.079 48.2209 356.993 48.2242C356.218 48.2516 355.45 48.2806 354.682 48.3157C354.442 48.3269 354.261 48.3211 354.081 48.2768C353.618 48.1593 353.058 48.2248 352.537 48.2426C352.136 48.2556 352.01 48.3035 352.058 48.4048C352.119 48.5245 352.36 48.561 352.975 48.5384C353.195 48.5303 353.415 48.5192 353.636 48.5127C353.849 48.5062 354.043 48.5258 354.218 48.567C354.385 48.6082 354.586 48.6293 354.793 48.6228C355.234 48.6082 355.681 48.5936 356.108 48.5698C356.462 48.5508 356.756 48.5656 357.004 48.622C357.279 48.6846 357.599 48.6702 357.92 48.6558C358.668 48.6238 358.674 48.6253 359.143 48.7013C359.237 48.7165 359.331 48.7455 359.417 48.7438C360.185 48.7195 360.96 48.6981 361.714 48.66C362.108 48.6408 362.336 48.6896 362.597 48.7291C362.691 48.7428 362.785 48.7733 362.872 48.7701C363.426 48.7522 363.98 48.7344 364.521 48.7042C364.775 48.69 364.928 48.6989 365.136 48.7354C365.631 48.8252 365.645 48.8221 366.346 48.7917C366.559 48.7821 366.793 48.7648 366.994 48.7768C367.194 48.7887 367.355 48.833 367.542 48.8603C367.629 48.8725 367.737 48.8892 367.83 48.8859C368.271 48.8729 368.711 48.8537 369.152 48.836C369.566 48.8184 369.566 48.8199 370.342 48.9138C370.657 48.9532 370.984 48.9189 371.298 48.906C371.638 48.8916 371.945 48.8911 372.207 48.9505C372.468 49.01 372.782 49.0064 373.116 48.9935C373.43 48.9807 373.75 48.9463 374.071 48.9873C374.807 49.0812 374.807 49.0827 375.261 49.0635C375.922 49.0363 376.577 49.0105 377.244 48.9863C377.331 48.9831 377.445 49.0014 377.532 49.0135C377.719 49.0408 377.88 49.0866 378.081 49.097C378.281 49.109 378.515 49.0901 378.729 49.0805C379.416 49.0502 379.463 49.0393 379.925 49.1399C380.314 49.2222 380.793 49.1015 381.155 49.1962C381.363 49.2496 381.644 49.2921 382.031 49.2653C382.352 49.2433 382.685 49.2365 383.019 49.2237C383.547 49.2028 383.547 49.2043 384.216 49.2953C384.303 49.3075 384.417 49.3226 384.504 49.3194C384.944 49.3063 385.392 49.2948 385.819 49.2664C386.32 49.2333 386.641 49.2911 387.016 49.3473C387.31 49.3914 387.657 49.3539 387.971 49.338C388.312 49.322 388.619 49.3261 388.874 49.3856C389.142 49.4465 389.456 49.4383 389.789 49.4254C390.103 49.4141 390.424 49.3783 390.745 49.4207C391.434 49.5148 391.434 49.5148 391.935 49.4955C392.376 49.4778 392.816 49.4586 393.257 49.4456C393.344 49.4423 393.451 49.4621 393.538 49.4758C393.725 49.5031 393.886 49.5489 394.087 49.5593C394.287 49.5697 394.521 49.5494 394.741 49.5413C394.962 49.5332 395.195 49.5098 395.396 49.5187C395.596 49.5275 395.784 49.5656 395.944 49.5991C396.132 49.6387 396.306 49.643 396.559 49.6272C396.88 49.6067 397.214 49.6015 397.541 49.5902C397.722 49.6191 397.909 49.6479 398.083 49.6799C398.264 49.7134 398.458 49.71 398.705 49.6988C399.526 49.6605 399.533 49.6651 400.222 49.7592C400.537 49.8016 400.864 49.7657 401.177 49.7544C401.511 49.7416 401.825 49.7349 402.086 49.7959C402.341 49.8538 402.655 49.8609 402.989 49.8419C403.203 49.8293 403.43 49.8212 403.65 49.8162C403.75 49.8145 403.87 49.8204 403.944 49.8326C404.299 49.8965 404.647 49.9543 405.134 49.9119C405.562 49.9235 405.777 50.0491 406.291 50.0236C406.725 50.0014 407.18 49.9959 407.607 49.9676C408.001 49.9423 408.282 49.9848 408.483 50.0383C408.845 50.1329 409.351 50.0029 409.713 50.096C409.921 50.1494 410.188 50.192 410.589 50.1683C411.029 50.1429 411.17 50.1749 411.298 50.2715C411.372 50.3267 411.36 50.3712 411.227 50.4145C411.094 50.4593 410.946 50.4519 410.732 50.4015C410.484 50.3451 410.19 50.3349 409.836 50.3478C409.489 50.3607 409.274 50.2812 408.986 50.2509C408.699 50.2192 408.359 50.2735 408.058 50.2326C407.348 50.137 407.348 50.137 406.868 50.1563C406.54 50.1691 406.2 50.1759 405.879 50.1979C405.499 50.2247 405.251 50.1775 404.99 50.135C404.896 50.1198 404.802 50.0907 404.722 50.0924C403.954 50.1168 403.18 50.1396 402.418 50.1794C402.018 50.2 401.804 50.1451 401.536 50.1072C401.442 50.0935 401.341 50.066 401.261 50.0692C400.6 50.0919 399.946 50.1207 399.285 50.1479C399.158 50.1896 399.019 50.2298 398.899 50.2746C398.772 50.3209 398.599 50.3412 398.345 50.3401C397.924 50.3408 397.511 50.4061 397.089 50.3254C396.654 50.2432 396.621 50.2478 396.2 50.2685C395.666 50.2956 395.098 50.2904 394.597 50.3512C394.511 50.3621 394.418 50.3914 394.418 50.413C394.411 50.4268 394.552 50.4465 394.639 50.4587C394.933 50.495 395.273 50.4407 395.568 50.4786C395.762 50.5028 395.923 50.5394 396.117 50.5652C396.197 50.5758 396.317 50.574 396.424 50.5723C396.538 50.5706 396.644 50.5597 396.751 50.561C396.851 50.5624 396.959 50.5714 397.039 50.5851C397.407 50.6428 397.795 50.6959 398.123 50.7645C398.445 50.8315 398.745 50.7849 399.065 50.7813C400.349 50.8866 400.349 50.8881 401.211 50.8528C401.425 50.8448 401.645 50.8352 401.865 50.8363C401.959 50.8362 402.046 50.8637 402.14 50.8789C402.408 50.9245 402.662 50.9655 403.036 50.9403C403.356 50.9182 403.697 50.913 404.024 50.8987C404.465 50.881 404.465 50.881 405.214 50.9765C405.401 51.0007 405.602 50.9973 405.842 50.9846C406.049 50.9735 406.263 50.9962 406.411 51.0405C406.471 51.0588 406.451 51.0896 406.472 51.1156C405.811 51.1414 405.143 51.1594 404.502 51.1974C404.088 51.2212 403.9 51.1554 403.626 51.1206C403.532 51.1085 403.432 51.0825 403.345 51.0857C402.69 51.1099 402.036 51.1372 401.382 51.169C401.302 51.1722 401.202 51.2077 401.195 51.2293C401.183 51.2692 401.35 51.3073 401.59 51.3054C401.911 51.3033 402.225 51.2766 402.513 51.3391C402.754 51.394 403.055 51.4181 403.409 51.3929C403.622 51.3787 403.849 51.3783 404.063 51.3656C404.63 51.3278 405.145 51.3346 405.574 51.4383C405.901 51.4654 406.222 51.4387 406.536 51.4243C406.769 51.4132 406.996 51.402 407.164 51.4309C407.518 51.4918 407.867 51.5526 408.354 51.5103C408.882 51.5524 409.284 51.6423 409.726 51.7153C409.933 51.7503 410.094 51.77 410.334 51.7465C410.434 51.7371 410.554 51.7369 410.661 51.7321C410.882 51.724 411.115 51.7006 411.316 51.7095C411.516 51.7199 411.684 51.7641 411.865 51.7915C411.952 51.8051 412.052 51.828 412.139 51.8263C412.473 51.8181 412.8 51.8021 413.127 51.7893C413.454 51.778 413.782 51.7666 414.109 51.7553C414.383 51.7948 414.664 51.8342 414.939 51.8737C415.379 51.8561 415.82 51.8384 416.254 51.8223C416.742 51.803 416.742 51.8045 417.444 51.8985C417.759 51.941 418.093 51.9128 418.393 51.8923C418.894 51.8592 419.228 51.917 419.583 51.9778C419.657 51.99 419.79 51.9974 419.877 51.9911C420.224 51.969 420.525 51.9854 420.78 52.0418C420.96 52.0814 421.141 52.0995 421.362 52.0915C422.129 52.0609 422.897 52.0289 423.665 52.0014C423.759 51.9982 423.866 52.0118 423.953 52.024C424.635 52.1165 424.642 52.1211 425.143 52.0957C425.59 52.0734 426.004 52.0634 426.359 52.1473C426.433 52.1656 426.547 52.1915 426.627 52.1899C427.175 52.1735 427.729 52.1557 428.27 52.1286C428.517 52.1159 428.691 52.1202 428.885 52.1552C429.133 52.1993 429.354 52.2527 429.761 52.2321C430.889 52.1733 430.896 52.1824 432.233 52.2861C432.327 52.2936 432.454 52.2811 432.561 52.2748C432.788 52.2591 432.955 52.2803 433.156 52.3153C433.604 52.3944 433.618 52.3897 434.045 52.3721C434.372 52.3577 434.713 52.354 435.033 52.3304C435.527 52.2958 435.855 52.3551 436.223 52.4113C436.518 52.4554 436.858 52.4179 437.172 52.4035C437.512 52.3876 437.82 52.3916 438.074 52.4496C438.249 52.4892 438.436 52.5104 438.656 52.5024C439.424 52.4734 440.192 52.4413 440.96 52.4123C441.053 52.4091 441.167 52.4212 441.254 52.4318C442.017 52.5257 442.017 52.5303 442.771 52.4937C443.012 52.4825 443.212 52.4791 443.393 52.511C443.567 52.5415 443.754 52.5703 443.935 52.5992C444.262 52.5879 444.596 52.5842 444.917 52.5652C445.164 52.551 445.338 52.5568 445.532 52.5888C445.786 52.6298 446.001 52.7016 446.401 52.6656C446.608 52.6483 446.849 52.6525 447.055 52.6368C447.302 52.6164 447.47 52.6284 447.664 52.668C447.905 52.7152 448.153 52.7639 448.54 52.7387C448.967 52.7103 449.421 52.7049 449.855 52.6826C450.096 52.6699 450.263 52.6819 450.457 52.7215C450.698 52.7718 450.972 52.8036 451.346 52.783C452.107 52.7432 452.114 52.7509 452.857 52.8464C453.044 52.8707 453.245 52.8673 453.485 52.8545C453.692 52.8434 453.906 52.8661 454.053 52.9104C454.194 52.9593 454.181 52.9901 454.195 53.0162ZM394.496 39.2637C394.276 39.2717 394.055 39.2813 393.733 39.1482C393.712 39.1252 393.726 39.0976 393.679 39.0777C393.571 39.0364 393.404 39.0075 393.203 39.0032C392.843 38.9977 392.409 39.0507 392.416 39.0906C392.423 39.1244 392.537 39.1534 392.758 39.1806C392.852 39.1912 392.925 39.2095 393.012 39.2217C393.267 39.2566 393.468 39.3254 393.835 39.2894C393.801 39.2418 393.767 39.1943 393.835 39.2894C393.802 39.3478 393.903 39.3891 394.144 39.4056C394.21 39.4101 394.311 39.4069 394.364 39.3976C394.571 39.3634 394.603 39.3173 394.448 39.1962C394.422 39.2162 394.442 39.2515 394.503 39.2606C394.563 39.2697 394.71 39.2618 394.783 39.2509C394.97 39.2214 395.063 39.1828 395.016 39.1506C394.989 39.1338 394.861 39.1125 394.781 39.1126C394.641 39.1129 394.515 39.1469 394.496 39.2637ZM448.732 56.9863C448.244 57.0163 447.683 57.0066 447.196 57.0673C447.11 57.0782 447.023 57.106 447.017 57.1276C447.01 57.1414 447.144 57.1611 447.224 57.1718C447.405 57.196 447.605 57.188 447.839 57.1799C448.193 57.1685 448.401 57.2388 448.675 57.2737C448.762 57.2843 448.876 57.2918 448.969 57.2885C449.51 57.2692 450.044 57.2483 450.585 57.2258C450.679 57.2211 450.779 57.2101 450.859 57.1962C451.126 57.1511 451.098 57.122 450.838 57.0887C450.55 57.0523 450.322 56.9912 450.028 56.9625C449.606 56.9218 449.179 56.9778 448.732 56.9863ZM410.807 58.1737C410.479 58.1866 410.159 58.1994 409.832 58.2123C409.725 58.2171 409.611 58.2188 409.511 58.2251C409.304 58.2362 409.151 58.2687 409.051 58.3196C409.205 58.3593 409.393 58.382 409.6 58.377C409.927 58.3673 410.247 58.3467 410.575 58.3416C410.929 58.3348 411.137 58.4036 411.411 58.4384C411.498 58.449 411.605 58.4504 411.705 58.4517C412.2 58.457 412.499 58.3766 412.404 58.2646C412.336 58.1772 412.082 58.1254 411.775 58.1367C411.454 58.148 411.127 58.1609 410.807 58.1737ZM450.989 54.7117C451.069 54.6854 451.155 54.6668 451.195 54.6437C451.315 54.5652 451.267 54.5069 451.046 54.4458C450.778 54.371 450.451 54.4223 450.15 54.4305C450.077 54.4321 449.997 54.4645 449.957 54.4846C449.931 54.4984 449.931 54.5276 449.971 54.5352C450.299 54.5961 450.648 54.6524 450.989 54.7117ZM392.98 50.2741C392.659 50.287 392.332 50.2968 392.012 50.3142C391.932 50.319 391.858 50.3483 391.812 50.3683C391.725 50.4053 391.82 50.4559 392.094 50.46C392.408 50.4656 392.735 50.4389 393.062 50.4261C393.476 50.41 393.722 50.3527 393.568 50.3038C393.42 50.2564 393.22 50.2476 392.98 50.2741ZM41.2815 47.6018C41.4952 47.5937 41.7155 47.5872 41.9292 47.5761C42.1295 47.565 42.2828 47.5309 42.3824 47.48C42.2149 47.4404 42.0275 47.4192 41.8205 47.4242C41.4933 47.4339 41.1728 47.4468 40.8523 47.4627C40.652 47.4723 40.4587 47.5064 40.4126 47.5587C40.3663 47.5987 40.8141 47.621 41.2815 47.6018ZM364.685 46.8035C364.772 46.8172 364.859 46.8447 364.946 46.8445C365.16 46.8442 365.38 46.8346 365.58 46.8189C365.667 46.8126 365.733 46.7848 365.773 46.7632C365.8 46.7493 365.793 46.7248 365.753 46.7126C365.558 46.6392 364.783 46.6666 364.657 46.7513C364.644 46.7667 364.678 46.7866 364.685 46.8035ZM343.505 38.4273C343.526 38.4519 343.533 38.4765 343.56 38.501C343.614 38.547 343.761 38.5805 343.975 38.6032C344.142 38.5645 344.228 38.5214 344.221 38.4753C344.214 38.4507 344.193 38.4261 344.166 38.4016C344.112 38.3556 343.965 38.3221 343.751 38.2994C343.584 38.3366 343.505 38.3797 343.505 38.4273ZM466.472 58.3443C466.412 58.3644 466.352 58.3845 466.286 58.403C466.467 58.4473 466.634 58.4608 466.761 58.436C466.841 58.4205 466.887 58.3974 466.947 58.3773C466.766 58.3331 466.606 58.3211 466.472 58.3443ZM462.319 58.5605C462.406 58.5742 462.487 58.5925 462.581 58.6015C462.734 58.6166 462.874 58.5903 462.981 58.5348C462.894 58.5211 462.813 58.5028 462.72 58.4937C462.566 58.4786 462.426 58.505 462.319 58.5605ZM464.948 58.2748C464.902 58.3117 464.996 58.3423 465.243 58.368C465.303 58.3479 465.383 58.3293 465.423 58.3078C465.489 58.2723 465.375 58.2402 465.135 58.2161C465.068 58.2346 465.008 58.2547 464.948 58.2748ZM450.825 56.6431C450.779 56.6801 450.873 56.7107 451.12 56.7363C451.18 56.7163 451.26 56.6977 451.3 56.6761C451.366 56.6407 451.253 56.6086 451.012 56.5844C450.945 56.603 450.885 56.6231 450.825 56.6431ZM431.48 45.8057C431.42 45.8257 431.36 45.8458 431.293 45.8644C431.474 45.9086 431.641 45.9221 431.768 45.8973C431.848 45.8818 431.895 45.8587 431.954 45.8386C431.774 45.7944 431.613 45.7824 431.48 45.8057ZM413.005 40.0704C413.165 40.0808 413.298 40.0591 413.411 40.0021C413.324 39.9884 413.244 39.9701 413.15 39.961C412.996 39.9459 412.856 39.9723 412.75 40.0278C412.837 40.043 412.924 40.0567 413.005 40.0704ZM403.227 39.7263C403.167 39.7464 403.107 39.7665 403.04 39.785C403.221 39.8292 403.388 39.8428 403.515 39.818C403.595 39.8025 403.641 39.7793 403.701 39.7593C403.52 39.715 403.36 39.7046 403.227 39.7263ZM336.932 38.4372C336.872 38.4573 336.812 38.4774 336.745 38.4959C336.926 38.5402 337.093 38.5537 337.22 38.5289C337.3 38.5134 337.346 38.4903 337.406 38.4702C337.225 38.426 337.065 38.4155 336.932 38.4372ZM7.07036 51.5097C6.98334 51.496 6.89641 51.4823 6.81605 51.4671C6.62282 51.5089 6.56318 51.5474 6.67043 51.5764C6.73746 51.5948 6.83772 51.6054 6.92474 51.619C7.12465 51.5772 7.17094 51.5402 7.07036 51.5097Z" fill="#FFE492"/>
<path d="M239.065 9.4104C238.297 9.44092 237.536 9.47909 236.768 9.49885C236.361 9.50877 236.215 9.5751 236.048 9.63685C235.915 9.68625 235.762 9.70188 235.515 9.71153C233.431 9.7904 231.355 9.87387 229.278 9.95581C229.017 9.93628 228.89 9.90424 228.949 9.86572C228.983 9.84261 229.062 9.8102 229.143 9.80699C230.565 9.74769 231.98 9.68686 233.409 9.63985C233.817 9.62685 233.93 9.55905 234.136 9.50337C234.203 9.48482 234.256 9.45707 234.342 9.44616C234.429 9.43372 234.556 9.43505 234.67 9.43178C236.967 9.34024 239.264 9.25025 241.561 9.15872C241.822 9.17825 241.949 9.21029 241.889 9.24881C241.856 9.27192 241.776 9.30433 241.696 9.30754C240.815 9.34132 239.94 9.37509 239.065 9.4104Z" fill="#FFE492"/>
<path d="M659.873 16.4945C659.526 16.5136 659.085 16.5404 658.723 16.4519C658.549 16.4092 658.362 16.3957 658.135 16.4053C657.808 16.4212 657.474 16.4341 657.14 16.4439C657.053 16.4456 656.939 16.4289 656.852 16.4152C656.665 16.3879 656.504 16.342 656.303 16.3301C656.103 16.3182 655.863 16.3524 655.655 16.345C655.381 16.3348 655.267 16.2935 655.34 16.2549C655.38 16.2333 655.46 16.2025 655.547 16.1977C656.782 16.1387 656.789 16.1387 657.137 16.1934C657.404 16.236 657.652 16.2832 658.033 16.2564C658.353 16.2344 658.694 16.2292 659.021 16.2148C659.475 16.1956 659.475 16.1971 660.211 16.2926C660.399 16.3169 660.599 16.315 660.839 16.3008C661.046 16.2897 661.247 16.3139 661.414 16.3551C661.308 16.4075 661.155 16.4416 660.948 16.4512C660.614 16.4671 660.287 16.4785 659.873 16.4945Z" fill="#FFE492"/>
<path d="M647.57 16.0509C648.412 16.0172 649.26 15.9881 650.101 15.9498C650.448 15.9339 650.722 15.9503 650.964 16.0021C651.225 16.0584 651.519 16.0533 651.839 16.042C652.04 16.0355 652.234 16.0598 652.368 16.1025C652.421 16.1193 652.408 16.1501 652.429 16.1746C651.694 16.2035 650.953 16.2339 650.212 16.2597C650.125 16.263 650.018 16.2478 649.937 16.2357C649.757 16.2099 649.603 16.1641 649.409 16.1552C648.994 16.1344 648.581 16.1766 648.16 16.185C647.96 16.1884 647.765 16.1657 647.631 16.1245C647.578 16.1046 647.591 16.0754 647.57 16.0509Z" fill="#FFE492"/>
<path d="M343.189 3.71878C344.064 3.68348 344.938 3.64972 345.813 3.61442C346.074 3.63548 346.194 3.666 346.141 3.7045C346.108 3.7276 346.028 3.76001 345.948 3.76322C344.199 3.83536 342.449 3.90442 340.707 3.97348C340.446 3.95242 340.325 3.92191 340.378 3.8834C340.411 3.8603 340.491 3.8279 340.571 3.82469C341.439 3.78786 342.314 3.75408 343.189 3.71878Z" fill="#FFE492"/>
<path d="M208.384 12.4865C207.99 12.4902 207.577 12.5475 207.136 12.5055C207.049 12.498 206.928 12.4737 206.935 12.4599C206.948 12.437 207.027 12.4078 207.114 12.3985C207.494 12.3596 207.969 12.3542 208.161 12.2469C208.254 12.1917 208.427 12.1731 208.661 12.162C208.908 12.1493 209.082 12.1536 209.276 12.1854C209.53 12.2262 209.745 12.3023 210.145 12.2618C210.165 12.2863 210.212 12.3137 210.193 12.3367C210.173 12.3596 210.086 12.3812 210.006 12.3981C209.933 12.4135 209.833 12.4275 209.74 12.4322C209.299 12.4513 208.858 12.4674 208.384 12.4865Z" fill="#FFE492"/>
<path d="M555.894 11.3464C556.221 11.3336 556.562 11.3269 556.882 11.3049C557.136 11.2876 557.296 11.298 557.497 11.3345C557.839 11.3983 557.859 11.3922 558.694 11.3999C558.787 11.4013 558.901 11.4241 558.955 11.444C558.988 11.4546 558.942 11.4839 558.902 11.4993C558.842 11.5193 558.756 11.5455 558.675 11.5457C558.148 11.5512 557.615 11.6426 557.099 11.5392C556.838 11.4875 556.55 11.4634 556.196 11.487C555.983 11.5012 555.756 11.5077 555.535 11.5142C555.322 11.5207 555.101 11.5043 554.967 11.4585C554.772 11.3913 554.886 11.365 555.233 11.3691C555.453 11.3717 555.674 11.3545 555.894 11.3464Z" fill="#FFE492"/>
<path d="M677.087 21.5275C677.508 21.5114 677.928 21.4924 678.355 21.4794C678.442 21.4762 678.549 21.4929 678.63 21.5034C678.951 21.5487 678.905 21.6268 678.919 21.6955C678.927 21.7673 678.186 21.8267 677.871 21.7783C677.523 21.7239 677.209 21.6618 676.728 21.6962C676.541 21.7088 676.321 21.6816 676.2 21.6375C676.019 21.5736 676.119 21.5475 676.459 21.5515C676.66 21.5542 676.873 21.537 677.087 21.5275Z" fill="#FFE492"/>
<path d="M464.77 1.35879C465.204 1.3412 465.638 1.31442 466.072 1.31215C466.326 1.31018 466.453 1.36054 466.393 1.39742C466.36 1.42047 466.281 1.45279 466.2 1.45599C465.332 1.49425 464.464 1.52638 463.596 1.56157C463.342 1.54055 463.215 1.50858 463.275 1.4717C463.308 1.44865 463.388 1.41786 463.468 1.41313C463.902 1.39094 464.336 1.37639 464.77 1.35879Z" fill="#FFE492"/>
<path d="M668.716 16.604C669.137 16.588 669.564 16.5643 669.985 16.5559C670.205 16.5524 670.379 16.5874 670.406 16.6272C670.42 16.6455 670.313 16.6779 670.227 16.6857C669.626 16.7388 668.978 16.7461 668.351 16.7732C668.15 16.7812 667.936 16.7571 667.815 16.7144C667.634 16.6488 667.734 16.6241 668.075 16.6281C668.289 16.6293 668.502 16.6121 668.716 16.604Z" fill="#FFE492"/>
<path d="M566.934 11.525C567.148 11.517 567.368 11.4967 567.575 11.5025C567.796 11.5097 567.936 11.5538 568.004 11.5979C568.078 11.6482 568.072 11.6955 568.005 11.7383C567.899 11.8118 567.792 11.8089 567.545 11.7605C567.163 11.6848 567.137 11.694 566.382 11.6984C566.295 11.6985 566.188 11.6758 566.121 11.6561C566.02 11.6257 566.073 11.5783 566.307 11.5504C566.48 11.5303 566.721 11.5329 566.934 11.525Z" fill="#FFE492"/>
<path d="M653.055 16.1419C653.369 16.1291 653.683 16.1087 653.997 16.1082C654.217 16.1062 654.391 16.1411 654.412 16.1794C654.419 16.1977 654.319 16.2285 654.239 16.2378C653.858 16.2798 653.431 16.2836 653.017 16.2981C652.823 16.3045 652.609 16.2804 652.488 16.2377C652.307 16.1738 652.414 16.1445 652.741 16.1531C652.842 16.156 652.948 16.1467 653.055 16.1419Z" fill="#FFE492"/>
<path d="M603.61 14.3972C603.143 14.4163 602.701 14.3941 602.734 14.3543C602.78 14.3022 602.974 14.2682 603.174 14.2586C603.494 14.2428 603.815 14.23 604.142 14.2202C604.349 14.2138 604.536 14.2364 604.704 14.2759C604.604 14.3251 604.451 14.3605 604.251 14.3716C604.044 14.3826 603.824 14.3891 603.61 14.3972Z" fill="#FFE492"/>
<path d="M600.542 14.2098C600.856 14.197 601.17 14.1766 601.484 14.176C601.704 14.1741 601.878 14.209 601.899 14.2472C601.906 14.2656 601.806 14.2964 601.726 14.3057C601.346 14.3477 600.918 14.3515 600.504 14.3659C600.311 14.3724 600.097 14.3483 599.976 14.3056C599.795 14.2417 599.901 14.2124 600.229 14.221C600.329 14.2239 600.436 14.2145 600.542 14.2098Z" fill="#FFE492"/>
<path d="M563.145 11.5224C563.458 11.5096 563.772 11.4891 564.086 11.4871C564.306 11.4852 564.48 11.5201 564.501 11.5583C564.508 11.5766 564.408 11.6059 564.328 11.6167C563.948 11.6587 563.52 11.6625 563.106 11.677C562.913 11.6834 562.699 11.6593 562.578 11.6167C562.397 11.5527 562.503 11.5234 562.831 11.5321C562.931 11.535 563.038 11.5256 563.145 11.5224Z" fill="#FFE492"/>
<path d="M561.388 11.4362C561.722 11.4234 561.829 11.4155 561.935 11.4153C562.136 11.415 562.343 11.433 562.464 11.4772C562.645 11.5412 562.538 11.5597 562.211 11.5633C561.79 11.5671 561.377 11.6 560.956 11.6068C560.735 11.6102 560.561 11.5738 560.547 11.5356C560.54 11.5172 560.64 11.4849 560.72 11.4786C561.001 11.4552 561.308 11.4409 561.388 11.4362Z" fill="#FFE492"/>
<path d="M597.72 2.41293C597.506 2.42094 597.279 2.44273 597.079 2.43543C596.812 2.42519 596.704 2.3841 596.771 2.34576C596.81 2.32429 596.883 2.29359 596.964 2.28887C597.391 2.26673 597.825 2.25222 598.252 2.2362C598.506 2.2587 598.62 2.29061 598.554 2.32894C598.514 2.35042 598.441 2.37959 598.361 2.38584C598.154 2.40148 597.933 2.40492 597.72 2.41293Z" fill="#FFE492"/>
<path d="M338.402 3.91039C338.609 3.90851 338.796 3.92805 338.957 3.96597C338.857 4.01502 338.711 4.04736 338.511 4.06145C338.41 4.06773 338.297 4.0725 338.19 4.07421C337.983 4.07762 337.796 4.05655 337.635 4.01863C337.735 3.96958 337.888 3.93723 338.081 3.92315C338.181 3.91687 338.295 3.91516 338.402 3.91039Z" fill="#FFE492"/>
<path d="M666.428 16.602C666.421 16.5577 666.828 16.5066 667.195 16.5075C667.389 16.5087 667.59 16.5298 667.704 16.5708C667.878 16.6332 667.778 16.6578 667.451 16.6537C667.25 16.651 667.037 16.6774 666.837 16.6731C666.609 16.672 666.476 16.6386 666.428 16.602Z" fill="#FFE492"/>
<path d="M568.874 11.7054C568.867 11.6886 568.834 11.6688 568.853 11.6535C568.979 11.5694 569.747 11.5421 569.948 11.615C569.982 11.6287 569.996 11.6516 569.969 11.6653C569.929 11.6868 569.856 11.7144 569.776 11.7206C569.569 11.7362 569.356 11.7442 569.142 11.7461C569.048 11.7463 568.961 11.7205 568.874 11.7054Z" fill="#FFE492"/>
<path d="M210.759 12.2374C209.971 12.2708 209.958 12.2677 210.097 12.1912C210.223 12.1222 210.456 12.0806 210.797 12.08C210.897 12.0798 211.004 12.0766 211.091 12.0826C211.184 12.09 211.318 12.1051 211.338 12.1234C211.379 12.1584 211.266 12.1968 211.066 12.2231C210.979 12.2355 210.865 12.2326 210.759 12.2374Z" fill="#FFE492"/>
<path d="M348.268 3.67312C348.035 3.69946 347.834 3.69065 347.687 3.64207C347.539 3.59348 347.772 3.53509 348.18 3.52066C348.286 3.51742 348.4 3.50503 348.5 3.51096C348.6 3.51537 348.701 3.5335 348.761 3.55171C348.868 3.58205 348.802 3.62338 348.589 3.65884C348.502 3.67273 348.375 3.66989 348.268 3.67312Z" fill="#FFE492"/>
<path d="M665.039 16.4922C665.098 16.4723 665.158 16.4524 665.224 16.434C665.471 16.4595 665.578 16.4897 665.512 16.5249C665.472 16.5462 665.392 16.5647 665.333 16.5846C665.086 16.5591 664.986 16.5273 665.039 16.4922Z" fill="#FFE492"/>
<path d="M221.497 29.5048C221.497 29.4865 221.59 29.4574 221.663 29.4512C221.803 29.4403 221.976 29.4613 222.097 29.5038C222.264 29.5645 222.164 29.5967 221.858 29.5804C221.645 29.5686 221.498 29.5383 221.497 29.5048Z" fill="#FFE492"/>
<path d="M571.581 10.2839C571.668 10.2975 571.755 10.3111 571.835 10.3262C571.722 10.3828 571.583 10.4075 571.436 10.3925C571.343 10.3835 571.263 10.3653 571.176 10.3517C571.288 10.2951 571.421 10.2735 571.581 10.2839Z" fill="#FFE492"/>
<path d="M569.266 10.2212C569.398 10.1981 569.558 10.21 569.746 10.2539C569.686 10.2739 569.633 10.2968 569.56 10.3122C569.433 10.3368 569.267 10.3249 569.086 10.2795C569.139 10.2611 569.199 10.2411 569.266 10.2212Z" fill="#FFE492"/>
<path d="M567.495 10.292C567.582 10.3056 567.669 10.3192 567.749 10.3343C567.636 10.391 567.503 10.4156 567.35 10.4006C567.257 10.3916 567.177 10.3734 567.09 10.3598C567.202 10.3032 567.335 10.2801 567.495 10.292Z" fill="#FFE492"/>
<path d="M566.193 10.215C566.293 10.2452 566.24 10.2819 566.048 10.3233C565.961 10.3098 565.861 10.2993 565.794 10.2811C565.687 10.2524 565.74 10.2142 565.939 10.1728C566.019 10.1878 566.106 10.2014 566.193 10.215Z" fill="#FFE492"/>
</svg>
