<?xml version="1.0" encoding="UTF-8" standalone="no"?>
<!-- Created with Inkscape (http://www.inkscape.org/) -->

<svg
   width="127.60084mm"
   height="7.8913789mm"
   viewBox="0 0 127.60084 7.8913789"
   version="1.1"
   id="svg1"
   xmlns:inkscape="http://www.inkscape.org/namespaces/inkscape"
   xmlns:sodipodi="http://sodipodi.sourceforge.net/DTD/sodipodi-0.dtd"
   xmlns="http://www.w3.org/2000/svg"
   xmlns:svg="http://www.w3.org/2000/svg">
  <sodipodi:namedview
     id="namedview1"
     pagecolor="#ffffff"
     bordercolor="#000000"
     borderopacity="0.25"
     inkscape:showpageshadow="2"
     inkscape:pageopacity="0.0"
     inkscape:pagecheckerboard="0"
     inkscape:deskcolor="#d1d1d1"
     inkscape:document-units="mm" />
  <defs
     id="defs1" />
  <g
     inkscape:label="Слой 1"
     inkscape:groupmode="layer"
     id="layer1"
     transform="translate(-47.180539,-85.354742)">
    <path
       d="m 167.21736,89.396919 c -0.17489,0.007 -0.35164,0.0116 -0.52282,0.0216 -0.11139,0.006 -0.15928,-0.0115 -0.23363,-0.0207 -0.0249,-0.003 -0.0513,-0.01 -0.0743,-0.009 -0.1733,0.007 -0.34634,0.0144 -0.51937,0.022 -0.0529,0.0159 -0.0863,0.0371 -0.16748,0.045 -0.0794,0.007 -0.17304,0.008 -0.26141,0.0114 -0.11668,0.005 -0.23337,0.009 -0.34978,0.0136 -0.0585,0.002 -0.1061,0.01 -0.12515,0.0246 -0.004,0.002 0.0352,0.009 0.0566,0.0121 0.0709,0.0121 0.13997,0.0258 0.21775,0.035 0.0743,0.009 0.16616,-0.006 0.2458,0.005 0.17886,0.0253 0.18071,0.0249 0.31671,0.0198 0.11668,-0.005 0.2331,-0.01 0.34978,-0.0132 0.023,-8.5e-4 0.0495,0.005 0.0743,0.008 0.0744,0.009 0.12224,0.0291 0.23178,0.0211 0.0831,-0.006 0.17489,-0.008 0.26141,-0.011 0.0728,0.0117 0.13996,0.0249 0.21801,0.0342 0.0725,0.009 0.0937,0.0157 0.055,0.0275 -0.0352,0.011 -0.0847,0.0156 -0.15002,0.0165 -0.0585,5.1e-4 -0.11668,0.004 -0.17489,0.006 -0.0302,10e-4 -0.0585,0.002 -0.0865,0.003 -0.11139,0.005 -0.11139,0.005 -0.31512,-0.021 -0.0796,-0.01 -0.1696,0.004 -0.24553,-0.005 -0.0513,-0.006 -0.0958,-0.0161 -0.14526,-0.0229 -0.0214,-0.003 -0.0548,-0.003 -0.0815,-0.002 -0.0884,0.003 -0.17648,0.005 -0.26141,0.0106 -0.0601,0.004 -0.0953,0.0152 -0.0881,0.0266 0.002,0.004 0.0445,0.0109 0.0691,0.0113 0.0566,7.1e-4 0.11668,-0.005 0.17145,-0.002 0.0532,0.003 0.10795,0.0108 0.14711,0.0197 0.0796,0.0186 0.1696,0.002 0.2458,0.007 0.0794,0.005 0.14499,0.0213 0.22119,0.0309 0.0196,0.002 0.0566,-0.002 0.0865,-0.003 0.0865,-0.003 0.1733,-0.006 0.25982,-0.009 0.0725,0.0117 0.15055,0.0221 0.21616,0.0354 0.11854,0.0242 0.24607,0.0333 0.39979,0.0213 0.0865,-0.007 0.17119,-0.004 0.24051,0.0114 0.0706,0.0161 0.15213,0.0144 0.24209,0.011 0.0831,-0.003 0.16775,-0.0125 0.25294,-0.001 0.18415,0.0249 0.18574,0.0261 0.40323,0.016 0.0653,-0.003 0.11483,-0.004 0.1643,0.005 0.046,0.008 0.0958,0.0157 0.14341,0.0237 0.0868,-0.003 0.17489,-0.006 0.26167,-0.009 0.11112,-0.005 0.17304,9.3e-4 0.20002,0.0236 0.0159,0.0138 0.0233,0.0264 0.0622,0.0357 0.046,0.0113 0.0955,0.0108 0.16272,0.007 0.0635,-0.003 0.10954,-0.007 0.13573,-0.0222 0.0106,-0.006 0.0318,-0.0119 0.0511,-0.0168 0.0159,-0.004 0.0407,-0.009 0.0548,-0.009 0.0265,0.002 0.0619,0.006 0.0709,0.0113 0.087,0.049 0.087,0.0494 0.17569,0.0635 0.0974,0.0157 0.19843,0.0297 0.28707,0.0475 0.0796,0.0157 0.15901,0.009 0.2458,0.009 0.0654,-1.1e-4 0.10795,0.0104 0.10266,0.0209 -0.003,0.006 -0.0281,0.0151 -0.0492,0.016 -0.1733,0.008 -0.34819,0.0156 -0.52308,0.0216 -0.0212,8.5e-4 -0.0476,-0.006 -0.0725,-0.0101 -0.0495,-0.007 -0.0939,-0.0185 -0.14711,-0.0209 -0.0529,-0.002 -0.11483,0.004 -0.17304,0.006 -0.0582,0.002 -0.12012,0.008 -0.17304,0.004 -0.0532,-0.003 -0.0958,-0.0149 -0.14525,-0.0225 -0.023,-0.004 -0.055,-0.009 -0.0744,-0.008 -0.12885,0.01 -0.22463,-0.003 -0.31671,-0.021 -0.0196,-0.004 -0.0532,-0.006 -0.0778,-0.005 -0.20506,0.007 -0.40826,0.0157 -0.61304,0.0238 -0.0831,0.003 -0.15055,-0.0107 -0.16854,-0.0347 -0.009,-0.0134 -0.0267,-0.0268 -0.027,-0.0402 -2.7e-4,-0.0244 -0.0976,-0.0376 -0.16828,-0.0347 -0.11668,0.004 -0.23495,0.008 -0.34978,0.014 -0.0937,0.005 -0.1733,3.2e-4 -0.23706,-0.0142 -0.0743,-0.0165 -0.15928,-0.0131 -0.24395,-0.009 -0.0638,0.003 -0.0812,0.0168 -0.0773,0.0505 0.004,0.0272 -0.0262,0.0358 -0.14102,0.0405 -0.14473,0.006 -0.29131,0.0119 -0.43815,0.0166 -0.0228,8.5e-4 -0.0495,-0.006 -0.0725,-0.01 -0.0495,-0.007 -0.0939,-0.0189 -0.14684,-0.0213 -0.0532,-0.003 -0.11509,0.003 -0.1733,0.006 -0.0582,0.002 -0.12012,0.008 -0.17304,0.005 -0.0532,-0.003 -0.0976,-0.0149 -0.14525,-0.0225 -0.023,-0.004 -0.0513,-0.009 -0.0743,-0.008 -0.11668,0.003 -0.23337,0.009 -0.34978,0.0132 -0.13071,0.005 -0.13071,0.005 -0.31671,-0.0198 -0.0849,-0.0113 -0.1696,-0.002 -0.25268,0.001 -0.0884,0.003 -0.17145,0.005 -0.2405,-0.011 -0.0463,-0.0105 -0.0976,-0.0169 -0.1524,-0.0148 -0.14658,0.005 -0.29131,0.0115 -0.43815,0.0166 -0.0246,8.5e-4 -0.0582,-10e-4 -0.0778,-0.005 -0.0939,-0.0169 -0.186,-0.0302 -0.31671,-0.0214 -0.11297,0.008 -0.23495,0.008 -0.34792,0.0152 -0.0619,0.004 -0.09,0.0168 -0.0775,0.027 0.007,0.005 0.0445,0.0113 0.0691,0.0113 0.0566,3e-4 0.11853,-0.006 0.17145,-0.004 0.1098,0.005 0.16484,0.0387 0.30798,0.0292 0.0847,-0.006 0.17303,-0.008 0.2614,-0.01 0.023,-4.5e-4 0.0479,0.007 0.0728,0.0113 0.0707,0.0109 0.13283,0.025 0.23522,0.0175 0.0847,-0.006 0.17489,-0.008 0.26141,-0.011 0.13785,-0.006 0.13785,-0.005 0.3167,0.0194 0.0849,0.0116 0.1696,0.002 0.25268,-8.5e-4 0.0619,-0.002 0.12012,-0.006 0.16986,-7.1e-4 0.0759,0.008 0.13097,0.0278 0.22463,0.0264 0.0884,-0.001 0.17489,-0.007 0.26327,-0.009 0.0548,-0.001 0.10609,0.005 0.15054,0.016 0.046,0.0109 0.0955,0.0157 0.15558,0.0131 0.0865,-0.003 0.17489,-0.008 0.26326,-0.01 0.0249,-4.5e-4 0.0532,0.003 0.0762,0.006 0.0495,0.007 0.0974,0.0157 0.14525,0.0233 0.0865,-0.003 0.17489,-0.004 0.25983,-0.009 0.0653,-0.004 0.11112,-0.002 0.1643,0.006 0.0672,0.0108 0.12224,0.0303 0.23178,0.0207 0.0548,-0.005 0.11853,-0.003 0.1733,-0.008 0.0669,-0.005 0.11298,-0.003 0.16087,0.009 0.0905,0.023 0.20346,0.0232 0.32014,0.0141 0.127,-0.01 0.22278,0.001 0.3183,0.019 0.10107,0.0185 0.10107,0.0181 0.17938,0.0631 0.023,0.013 0.0886,0.0189 0.14341,0.0164 0.0918,-0.004 0.17145,-0.002 0.23865,0.013 0.0709,0.0165 0.15584,0.0144 0.24236,0.01 0.11483,-0.006 0.22966,-0.0118 0.32358,0.0116 0.046,0.0113 0.0955,0.014 0.15743,0.0111 0.17489,-0.008 0.35163,-0.0124 0.52308,-0.0216 0.10398,-0.006 0.16431,0.007 0.23522,0.0179 0.0955,0.0149 0.20002,0.0281 0.20055,0.0602 0,0.005 0.0249,0.0113 0.046,0.0153 0.046,0.008 0.0958,0.0157 0.1434,0.0237 0.0709,0.0121 0.13997,0.0221 0.23707,0.0155 0.0849,-0.005 0.17489,-0.007 0.26141,-0.011 0.0865,-0.004 0.16616,-0.006 0.24421,0.009 0.0902,0.0173 0.186,0.0338 0.28866,0.0466 0.0725,0.009 0.16775,-0.007 0.2458,0.006 0.0476,0.008 0.0937,0.0165 0.14525,0.0229 0.0212,0.003 0.0548,7.1e-4 0.0831,-1.6e-4 0.0582,-0.002 0.11827,-0.003 0.17489,-0.007 0.0654,-0.005 0.11483,-0.004 0.16431,0.005 0.046,0.008 0.0923,0.0202 0.14525,0.0225 0.0796,0.004 0.16775,-0.0129 0.24765,0.006 0.0407,0.009 0.0921,0.0181 0.145,0.0209 0.0532,0.003 0.11483,-0.003 0.17145,-0.003 0.0249,-5e-5 0.055,0.006 0.0691,0.0117 0.009,0.003 -0.003,0.0106 -0.0156,0.0147 -0.0159,0.005 -0.0389,0.0115 -0.0617,0.0123 -0.17489,0.008 -0.34977,0.014 -0.52493,0.0212 -0.10424,0.004 -0.10424,0.004 -0.31485,-0.021 -0.0495,-0.006 -0.10425,-0.005 -0.16616,-0.002 -0.0831,0.004 -0.16775,0.0109 -0.25453,0.004 -0.11324,-0.0274 -0.25294,-0.0296 -0.40137,-0.0188 -0.0619,0.005 -0.11827,0.005 -0.16431,-0.003 -0.0976,-0.0153 -0.20029,-0.0293 -0.28707,-0.0475 -0.0672,-0.0141 -0.0992,-0.0153 -0.12727,0.004 -0.009,0.006 -0.0175,0.0126 -0.0156,0.0183 0.0109,0.0203 0.0304,0.0402 0.0413,0.0605 0.004,0.006 -0.0103,0.0122 -0.019,0.0183 -0.0281,0.0171 -0.0653,0.016 -0.12727,0.002 -0.0622,-0.0141 -0.13652,-0.0233 -0.23521,-0.0166 -0.0849,0.006 -0.17674,0.005 -0.26167,0.0114 -0.13071,0.009 -0.22278,-0.004 -0.31645,-0.021 -0.0196,-0.004 -0.0532,-0.006 -0.0781,-0.005 -0.26326,0.01 -0.52467,0.0208 -0.78793,0.0306 -0.0564,0.002 -0.10768,-0.004 -0.15213,-0.0148 -0.046,-0.0109 -0.0974,-0.0165 -0.15399,-0.0144 -0.2331,0.009 -0.46646,0.0171 -0.69956,0.0281 -0.0955,0.005 -0.17145,-5e-4 -0.23707,-0.0146 -0.0497,-0.0105 -0.0955,-0.0137 -0.15742,-0.0123 -0.0672,0.001 -0.11483,0.005 -0.14843,0.0173 -0.0315,0.0114 -0.008,0.0183 0.0622,0.0271 0.0762,0.01 0.14711,0.0221 0.21961,0.0333 0.0585,-0.002 0.11668,-0.005 0.1733,-0.005 0.0246,-5e-5 0.0479,0.007 0.0725,0.0112 0.0709,0.0117 0.13652,0.0234 0.23706,0.0167 0.0849,-0.006 0.17489,-0.007 0.26167,-0.011 0.12013,-0.005 0.12013,-0.005 0.31486,0.0206 0.0495,0.006 0.10239,0.006 0.16616,0.002 0.0548,-0.003 0.11139,0.003 0.15028,0.0148 0.0161,0.005 0.0109,0.013 -0.0225,0.0399 2.7e-4,0.0199 0.0373,0.0109 0.0495,-0.002 0.0193,-0.0187 -0.018,-0.0248 -0.0886,-0.0145 -0.0492,0.007 -0.0738,0.018 -0.0614,0.0265 0.007,0.004 0.0408,0.0101 0.10054,-0.01 0.15531,-0.0247 0.27384,-0.0277 0.38682,-0.0344 0.0669,-0.004 0.10954,-0.002 0.16272,0.008 0.0638,0.0125 0.12753,0.0258 0.23178,0.0191 0.11297,-0.008 0.23309,-0.009 0.34792,-0.0148 0.1061,-0.006 0.16113,0.0119 0.22834,0.0224 0.0815,0.0125 0.17145,-0.002 0.2458,0.005 0.0778,0.007 0.13282,0.025 0.22304,0.0281 0.1307,-0.0112 0.21405,0.009 0.313,0.0222 0.078,0.01 0.16986,8.9e-4 0.25294,-0.004 0.0934,-0.005 0.17145,-6.9e-4 0.23707,0.0138 0.0744,0.0165 0.15743,0.0128 0.24209,0.009 0.19791,-0.008 0.20506,-0.01 0.32015,0.0124 0.0833,0.0161 0.16272,0.009 0.2458,0.006 0.0725,0.0109 0.1434,0.0225 0.2196,0.0322 0.0193,0.002 0.0566,-0.002 0.0865,-0.003 0.0865,-0.003 0.17489,-0.007 0.26141,-0.0102 0.0585,-0.002 0.12012,-0.008 0.1733,-0.006 0.0529,0.003 0.0974,0.0145 0.14526,0.0221 0.0476,0.008 0.0974,0.0153 0.1434,0.0233 0.0709,0.0121 0.13811,0.0221 0.23707,0.0159 0.0847,-0.005 0.17304,-0.007 0.26141,-0.011 0.11139,-0.005 0.10768,-0.003 0.31485,0.0206 0.11165,0.0132 0.22622,-0.003 0.3392,-0.005 0.0566,-9e-4 0.11165,0.003 0.15054,0.0152 0.0159,0.005 0.0109,0.013 0.0161,0.0199 -0.29157,0.0115 -0.58473,0.0213 -0.87286,0.0352 -0.11112,0.005 -0.16959,-0.009 -0.22992,-0.0211 -0.0992,-0.0193 -0.22966,0.009 -0.32358,-0.0157 -0.0569,-0.0149 -0.13838,-0.0233 -0.23548,-0.0158 -0.0564,0.004 -0.11642,0.004 -0.17489,0.008 -0.14817,0.009 -0.28443,0.01 -0.40323,-0.018 -0.0407,-0.01 -0.0989,-0.0149 -0.14155,-0.0241 -0.0497,-0.0101 -0.0974,-0.0157 -0.15584,-0.0135 -0.26326,0.0102 -0.52467,0.0204 -0.78608,0.0314 -0.023,8.5e-4 -0.046,0.007 -0.0653,0.0115 -0.0492,0.0114 -0.0333,0.0204 0.0463,0.0275 0.0265,0.002 0.0479,0.008 0.0728,0.0117 0.0476,0.008 0.0921,0.0198 0.14499,0.0225 0.0532,0.003 0.1151,-0.003 0.17331,-0.005 0.0582,-0.002 0.12012,-0.008 0.17303,-0.006 0.0532,0.003 0.0974,0.0144 0.14711,0.0217 0.023,0.004 0.0513,0.01 0.0743,0.009 0.11668,-0.003 0.23151,-0.007 0.34793,-0.0112 0.0728,0.0108 0.13467,0.0266 0.22145,0.0301 0.0548,0.002 0.11298,-0.002 0.1696,-0.002 0.0249,3.7e-4 0.0566,0.006 0.0691,0.0117 0.007,0.003 -0.0156,0.0114 -0.0333,0.0155 -0.0669,0.0156 -0.15901,0.0129 -0.24183,0.0179 -0.0902,0.005 -0.17145,0.004 -0.24077,-0.0118 -0.046,-0.0105 -0.0974,-0.0161 -0.15372,-0.014 -0.14685,0.006 -0.29157,0.0119 -0.43815,0.0166 -0.0249,8.5e-4 -0.055,-0.003 -0.078,-0.006 -0.18574,-0.0245 -0.18574,-0.0253 -0.31645,-0.0198 -0.19261,0.008 -0.19261,0.008 -0.32199,-0.0133 -0.0249,-0.004 -0.0513,-0.0117 -0.0725,-0.0113 -0.20505,0.007 -0.40825,0.0137 -0.61145,0.0234 -0.0669,0.003 -0.11298,0.003 -0.16272,-0.007 -0.0423,-0.009 -0.0921,-0.0189 -0.14526,-0.0213 -0.0548,-0.002 -0.11483,0.004 -0.17303,0.006 -0.0582,0.002 -0.12013,0.008 -0.17145,0.004 -0.0529,-0.003 -0.0992,-0.0145 -0.14526,-0.0225 -0.0476,-0.008 -0.099,-0.008 -0.16431,-0.005 -0.20134,0.01 -0.2032,0.008 -0.40322,-0.0164 -0.023,-0.003 -0.0532,-0.006 -0.0778,-0.005 -0.14684,0.005 -0.29157,0.0115 -0.43815,0.0166 -0.0566,0.002 -0.11139,-0.003 -0.15055,-0.0148 -0.0159,-0.005 -0.0106,-0.013 -0.0214,-0.0288 -0.0124,-0.004 0.002,0.003 0.005,0.009 0.0265,-8.4e-4 0.0585,-1e-4 0.0778,-0.003 0.0495,-0.008 0.0741,-0.018 0.0614,-0.0265 -0.007,-0.004 -0.0407,-0.0101 -0.0619,-0.0101 -0.0389,5e-5 -0.0722,0.009 -0.0825,0.031 -0.11139,0.0136 -0.22966,0.0166 -0.34449,0.0234 -0.0672,0.004 -0.10953,0.002 -0.16271,-0.008 -0.0638,-0.0129 -0.12939,-0.0254 -0.23363,-0.0187 -0.11298,0.008 -0.2331,0.009 -0.34978,0.0148 -0.13414,0.007 -0.19288,-0.0298 -0.30612,-0.0288 -0.11669,0.001 -0.2331,0.008 -0.34978,0.0132 -0.1024,0.004 -0.1024,0.004 -0.31486,-0.0218 -0.0781,-0.01 -0.1696,0.005 -0.2458,-0.005 -0.0513,-0.006 -0.0958,-0.0161 -0.14525,-0.0229 -0.0212,-0.003 -0.0548,-0.003 -0.0812,-0.002 -0.14684,0.005 -0.29527,0.009 -0.43656,0.0178 -0.1606,0.0109 -0.28284,-3.2e-4 -0.39793,-0.0241 -0.145,0.005 -0.29158,0.007 -0.43471,0.0154 -0.10425,0.006 -0.16431,-0.007 -0.23522,-0.0183 -0.0249,-0.004 -0.046,-0.01 -0.0725,-0.0113 -0.0267,-0.002 -0.0585,0.002 -0.0868,0.003 -0.11668,0.005 -0.2368,0.007 -0.34978,0.0144 -0.13943,0.01 -0.19288,-0.0237 -0.30083,-0.0275 -0.0722,0.02 -0.11086,0.0473 -0.254,0.0496 -0.11642,0.002 -0.2331,0.009 -0.34978,0.0132 -0.0582,0.002 -0.11641,0.005 -0.17489,0.007 -0.0937,0.004 -0.13758,0.0197 -0.11774,0.0441 0.0106,0.0134 0.0196,0.0268 0.0286,0.0402 0.018,0.0239 -0.0259,0.0443 -0.10001,0.0473 -0.20506,0.008 -0.40826,0.0166 -0.61304,0.0238 -0.0548,0.002 -0.10795,-0.005 -0.1524,-0.0156 -0.046,-0.0109 -0.0974,-0.0157 -0.15399,-0.0135 -0.20479,0.008 -0.40799,0.0166 -0.61304,0.0238 -0.0228,8.5e-4 -0.0529,-0.003 -0.0759,-0.006 -0.0497,-0.007 -0.0974,-0.0157 -0.14525,-0.0233 -0.11668,0.004 -0.23151,0.007 -0.34634,0.0116 -0.18548,0.008 -0.18548,0.008 -0.322,-0.0141 -0.0246,-0.004 -0.0495,-0.0117 -0.0725,-0.0113 -0.0884,0.002 -0.17489,0.006 -0.26326,0.01 -0.25955,0.011 -0.25955,0.011 -0.33575,-10e-4 -0.0691,-0.0113 -0.13124,-0.025 -0.23548,-0.0183 -0.11298,0.008 -0.2331,0.0102 -0.34978,0.0144 -0.0865,0.003 -0.17304,0.006 -0.25982,0.007 -0.0228,4.5e-4 -0.0476,-0.007 -0.0725,-0.0113 -0.0709,-0.0125 -0.13996,-0.0225 -0.23706,-0.0154 -0.0566,0.004 -0.11669,0.005 -0.17489,0.007 -0.15188,0.006 -0.15188,0.006 -0.40138,-0.018 -0.0249,-0.002 -0.055,-0.005 -0.0796,-0.004 -0.20505,0.008 -0.40825,0.0161 -0.61304,0.0234 -0.0249,8.4e-4 -0.0548,-0.002 -0.0796,-0.004 -0.27966,-0.0231 -0.27966,-0.0231 -0.57626,-0.0112 -0.11324,0.004 -0.11668,0.006 -0.23548,-0.0155 -0.0532,-0.009 -0.0974,-0.0136 -0.15901,-0.0107 -0.23336,0.0102 -0.46831,0.0171 -0.69983,0.0288 -0.10424,0.005 -0.1643,-0.007 -0.23521,-0.0179 -0.0249,-0.004 -0.0513,-0.0117 -0.0725,-0.0113 -0.23336,0.008 -0.46646,0.0179 -0.69982,0.026 -0.0212,8.5e-4 -0.0479,-0.007 -0.0725,-0.0109 -0.0479,-0.007 -0.0939,-0.0181 -0.14711,-0.0205 -0.0548,-0.002 -0.11483,0.004 -0.17489,0.006 -0.14658,0.006 -0.14658,0.005 -0.31671,-0.0186 -0.023,-0.003 -0.0529,-0.008 -0.0759,-0.007 -0.23337,0.009 -0.46832,0.0159 -0.69956,0.028 -0.13256,0.007 -0.22278,-0.005 -0.31671,-0.0218 -0.0196,-0.004 -0.0532,-0.005 -0.0778,-0.004 -0.26326,0.01 -0.52493,0.0208 -0.78793,0.0306 -0.0548,0.002 -0.10795,-0.005 -0.1524,-0.0152 -0.0709,-0.0165 -0.15398,-0.0144 -0.24209,-0.0106 -0.2032,0.009 -0.20505,0.008 -0.32544,-0.0108 -0.0249,-0.004 -0.046,-0.009 -0.0728,-0.0113 -0.0246,-0.002 -0.0564,-7.2e-4 -0.0831,1.6e-4 -0.11641,0.004 -0.23309,0.009 -0.34978,0.0136 -0.11641,0.005 -0.23495,0.007 -0.34977,0.0144 -0.14129,0.009 -0.20876,-0.0175 -0.30798,-0.0296 -0.14473,0.006 -0.29316,0.009 -0.4363,0.0178 -0.10953,0.007 -0.16086,-0.0111 -0.23362,-0.0203 -0.0246,-0.003 -0.0513,-0.0101 -0.0744,-0.009 -0.26326,0.009 -0.52652,0.0196 -0.78793,0.031 -0.0635,0.003 -0.1061,-6.3e-4 -0.15928,-0.0103 -0.11853,-0.0217 -0.12383,-0.0209 -0.32173,-0.0124 -0.0865,0.004 -0.1696,0.007 -0.24421,-0.009 -0.0656,-0.0149 -0.145,-0.0185 -0.23866,-0.0134 -0.11483,0.006 -0.2331,0.01 -0.34978,0.014 -0.11668,0.005 -0.23336,0.011 -0.34978,0.0132 -0.0937,0.002 -0.15054,-0.0168 -0.22489,-0.0264 -0.023,-0.003 -0.0548,-0.003 -0.0812,-0.002 -0.11668,0.004 -0.2368,0.007 -0.35004,0.014 -0.13759,0.009 -0.21405,-0.0134 -0.31142,-0.0263 -0.0212,-0.003 -0.0566,-0.001 -0.0831,1.4e-4 -0.20478,0.008 -0.40798,0.0162 -0.61304,0.0242 -0.0725,-0.0108 -0.14684,-0.0213 -0.2196,-0.0321 -0.11642,0.004 -0.2331,0.009 -0.34978,0.0132 -0.0884,0.003 -0.17833,0.005 -0.26141,0.011 -0.10768,0.008 -0.16113,-0.0107 -0.23363,-0.0199 -0.0249,-0.003 -0.0513,-0.0101 -0.0743,-0.009 -0.14658,0.005 -0.29316,0.01 -0.43815,0.017 -0.13785,0.007 -0.19288,-0.0293 -0.30613,-0.0288 -0.11668,6.1e-4 -0.2368,0.006 -0.34978,0.0136 -0.1307,0.009 -0.22277,-0.004 -0.3167,-0.0214 -0.0196,-0.004 -0.0532,-0.006 -0.0778,-0.005 -0.14658,0.005 -0.29157,0.0115 -0.43815,0.0166 -0.0249,8.5e-4 -0.0548,-0.001 -0.0796,-0.004 -0.2794,-0.0235 -0.2794,-0.0239 -0.40137,-0.0188 -0.0865,0.003 -0.17489,0.008 -0.26326,0.01 -0.0249,8.7e-4 -0.055,-0.003 -0.078,-0.006 -0.18389,-0.0245 -0.18415,-0.0249 -0.31645,-0.0198 -0.11668,0.005 -0.23336,0.009 -0.34977,0.014 -0.0728,-0.0109 -0.14711,-0.0213 -0.21961,-0.0321 -0.14499,0.006 -0.29342,0.01 -0.43656,0.0174 -0.0669,0.003 -0.11113,0.002 -0.16272,-0.008 -0.0638,-0.0121 -0.12753,-0.0262 -0.23336,-0.0191 -0.11324,0.008 -0.23337,0.009 -0.34819,0.0148 -0.13759,0.008 -0.19474,-0.0293 -0.30613,-0.0287 -0.11668,6e-4 -0.2368,0.006 -0.34978,0.0136 -0.1307,0.009 -0.22278,-0.004 -0.3167,-0.0214 -0.0193,-0.004 -0.0529,-0.006 -0.0778,-0.005 -0.32147,0.0123 -0.64135,0.0247 -0.96282,0.0378 -0.19791,0.008 -0.19791,0.008 -0.57467,-0.0132 -0.0265,-0.002 -0.0548,-0.003 -0.0815,-0.002 -0.11641,0.004 -0.23653,0.007 -0.34977,0.014 -0.13759,0.009 -0.21405,-0.0131 -0.31142,-0.0263 -0.0212,-0.003 -0.0548,-10e-4 -0.0831,-2.6e-4 -0.0884,0.003 -0.17489,0.007 -0.26326,0.0102 -0.11642,0.005 -0.2331,0.009 -0.34978,0.014 -0.0725,-0.0105 -0.14684,-0.0213 -0.2196,-0.0317 -0.14473,0.006 -0.29316,0.009 -0.4363,0.0174 -0.10954,0.007 -0.16087,-0.0103 -0.23363,-0.0199 -0.0246,-0.003 -0.0513,-0.0101 -0.0744,-0.01 -0.26326,0.009 -0.52652,0.0192 -0.78792,0.031 -0.10769,0.005 -0.15743,-0.0132 -0.22993,-0.0224 -0.0249,-0.003 -0.0532,-0.008 -0.0762,-0.007 -0.17489,0.006 -0.34978,0.0132 -0.52467,0.0204 -0.099,0.004 -0.099,0.004 -0.31485,-0.0206 -0.0249,-0.003 -0.0532,-0.006 -0.0778,-0.005 -0.55483,0.0213 -1.10781,0.0438 -1.66264,0.0651 -0.0566,0.002 -0.10795,-0.004 -0.15213,-0.0148 -0.046,-0.0109 -0.0976,-0.0165 -0.15399,-0.0144 -0.23336,0.009 -0.46831,0.0171 -0.69956,0.0281 -0.0955,0.005 -0.17172,-5.3e-4 -0.23707,-0.0146 -0.0497,-0.0105 -0.0958,-0.0145 -0.15742,-0.0119 -0.11669,0.005 -0.23337,0.009 -0.35005,0.014 -0.11641,0.005 -0.2331,0.009 -0.34978,0.014 -0.11641,0.005 -0.23495,0.007 -0.34978,0.0144 -0.14128,0.009 -0.2106,-0.0163 -0.30797,-0.0287 -0.17489,0.006 -0.34978,0.0128 -0.52282,0.0196 -0.23336,0.009 -0.46646,0.0187 -0.69982,0.0272 -0.0212,8.5e-4 -0.0476,-0.006 -0.0725,-0.01 -0.0725,-0.01 -0.12567,-0.0242 -0.23362,-0.0195 -0.52282,0.0224 -1.04934,0.0416 -1.57401,0.0637 -0.10954,0.005 -0.15743,-0.0127 -0.23178,-0.022 -0.0249,-0.003 -0.0532,-0.008 -0.0762,-0.008 -0.29157,0.0107 -0.58314,0.0225 -0.87444,0.034 -0.11854,0.005 -0.11854,0.005 -0.31671,-0.0202 -0.023,-0.003 -0.0532,-0.006 -0.0778,-0.006 -0.37994,0.0145 -0.75803,0.0298 -1.13797,0.0446 -0.0564,0.002 -0.10769,-0.003 -0.15399,-0.0143 -0.0442,-0.0109 -0.0974,-0.0169 -0.15213,-0.0148 -0.34978,0.0136 -0.70141,0.0268 -1.04934,0.0417 -0.0937,0.004 -0.17145,6.9e-4 -0.23892,-0.0138 -0.0479,-0.0105 -0.0955,-0.0149 -0.15557,-0.0124 -0.52467,0.0208 -1.04961,0.0409 -1.57427,0.0629 -0.10081,0.004 -0.17145,-0.003 -0.23522,-0.0167 -0.0513,-0.0105 -0.0958,-0.0124 -0.15928,-0.0107 -0.0672,0.002 -0.10768,0.007 -0.14473,0.019 -0.0474,0.0159 -0.0772,0.0359 -0.1905,0.0373 -0.11668,0.001 -0.23495,0.007 -0.34977,0.0136 -0.10954,0.007 -0.16087,-0.0111 -0.22993,-0.022 -0.0513,-0.008 -0.0992,-0.009 -0.16457,-0.005 -0.0601,0.003 -0.0971,0.0103 -0.13229,0.0234 -0.0773,0.0278 -0.0844,0.0278 -0.18018,0.0105 -0.0513,-0.009 -0.0974,-0.0165 -0.15399,-0.0148 -0.2331,0.009 -0.46646,0.0179 -0.69956,0.0276 -0.13414,0.006 -0.13599,0.006 -0.23706,-0.0138 -0.0495,-0.0101 -0.0974,-0.0149 -0.15558,-0.0123 -0.64135,0.0255 -1.2827,0.0502 -1.92405,0.0769 -0.099,0.004 -0.16616,-0.004 -0.23707,-0.0162 -0.023,-0.004 -0.046,-0.01 -0.0725,-0.0113 -0.0267,-0.002 -0.0566,1.1e-4 -0.0849,9.8e-4 -0.46646,0.0183 -0.93478,0.0358 -1.39938,0.0561 -0.10584,0.005 -0.16272,-0.008 -0.23522,-0.0187 -0.0249,-0.004 -0.046,-0.009 -0.0725,-0.0109 -0.0267,-10e-4 -0.0585,0.002 -0.0868,0.003 -0.46619,0.0183 -0.93451,0.0358 -1.39911,0.0561 -0.11139,0.005 -0.15928,-0.0123 -0.23178,-0.0211 -0.0249,-0.003 -0.0513,-0.009 -0.0743,-0.008 -0.14684,0.005 -0.29157,0.0111 -0.43815,0.0166 -0.34978,0.014 -0.69982,0.0272 -1.0496,0.0417 -0.13414,0.006 -0.19288,-0.0306 -0.30612,-0.0287 -0.14658,0.002 -0.29157,0.0107 -0.43815,0.0166 -0.11668,0.005 -0.2331,0.009 -0.34978,0.014 -0.11483,0.005 -0.11483,0.005 -0.40137,-0.0184 -0.0249,-0.002 -0.055,-0.005 -0.0796,-0.004 -0.40826,0.0158 -0.8181,0.0315 -1.2245,0.0485 -0.0937,0.004 -0.17145,0.002 -0.23865,-0.013 -0.0479,-0.0105 -0.0974,-0.0157 -0.15584,-0.0131 -0.61304,0.0242 -1.22423,0.0485 -1.83727,0.0723 -0.023,8.7e-4 -0.0532,-0.003 -0.0762,-0.006 -0.0495,-0.007 -0.0974,-0.0157 -0.14525,-0.0233 -0.0352,0.009 -0.081,0.018 -0.10398,0.0286 -0.0315,0.0143 -0.0738,0.0184 -0.14103,0.021 -0.0672,0.003 -0.10953,0.002 -0.16271,-0.009 -0.0638,-0.0129 -0.12939,-0.023 -0.23363,-0.0187 -0.64135,0.0267 -1.2827,0.051 -1.92405,0.0773 -0.10584,0.004 -0.15558,-0.0135 -0.22992,-0.0228 -0.0249,-0.003 -0.0532,-0.007 -0.0762,-0.006 -0.26327,0.01 -0.52467,0.0204 -0.78793,0.0306 -0.72972,0.0289 -1.45918,0.0566 -2.18731,0.0871 -0.1323,0.005 -0.22278,-0.005 -0.31645,-0.0218 -0.0196,-0.004 -0.0532,-0.006 -0.0781,-0.005 -1.02103,0.04 -2.04232,0.0803 -3.06176,0.12076 -0.0548,0.002 -0.10768,-0.004 -0.15213,-0.0148 -0.046,-0.0109 -0.0974,-0.0161 -0.15399,-0.014 -0.46646,0.0183 -0.93266,0.0366 -1.39912,0.0553 -0.11668,0.005 -0.11853,0.005 -0.23891,-0.0142 -0.0249,-0.004 -0.0513,-0.0117 -0.0709,-0.0109 -0.0405,0.002 -0.0794,0.0123 -0.10742,0.0262 -0.0281,0.0147 -0.0722,0.0188 -0.13759,0.0218 -0.0672,0.003 -0.11139,0.002 -0.16272,-0.008 -0.0656,-0.0121 -0.12567,-0.0238 -0.23177,-0.0195 -1.34091,0.0543 -2.68208,0.10668 -4.02299,0.16063 -0.10769,0.004 -0.15743,-0.0127 -0.23178,-0.022 -0.0249,-0.003 -0.0495,-0.007 -0.0759,-0.008 -0.0283,-7.6e-4 -0.0585,0.002 -0.0868,0.003 -2.18705,0.0863 -4.37436,0.17304 -6.56167,0.25937 -0.1307,0.005 -0.12885,0.005 -0.27173,0.0427 -0.0175,0.005 -0.0405,0.0106 -0.0651,0.0115 -0.66966,0.0272 -1.34117,0.0536 -2.01242,0.0799 -0.29157,0.0115 -0.58314,0.0234 -0.87444,0.0345 -0.10425,0.004 -0.10425,0.004 -0.35296,0.0482 -0.0212,0.004 -0.046,0.009 -0.0706,0.009 -1.16602,0.0463 -2.33204,0.0927 -3.49999,0.13819 -0.0919,0.003 -0.16603,0.0109 -0.2082,0.0304 -0.0299,0.0139 -0.0687,0.0221 -0.12697,0.0246 -0.81624,0.0323 -1.63246,0.065 -2.45047,0.0966 -0.0972,0.004 -0.15539,0.0153 -0.20291,0.0325 -0.0158,0.006 -0.0299,0.0122 -0.0528,0.0163 -0.0212,0.004 -0.0529,0.005 -0.0794,0.006 -0.69964,0.0277 -1.39925,0.0561 -2.10066,0.0825 -0.10424,0.004 -0.1465,0.0189 -0.19756,0.0349 -0.0176,0.005 -0.0299,0.0127 -0.0528,0.0164 -0.0229,0.003 -0.0565,0.003 -0.0848,0.004 -0.58301,0.023 -1.16602,0.0463 -1.74905,0.0693 -0.11317,-0.002 -0.13764,0.0218 -0.19225,0.0361 -0.0194,0.005 -0.0334,0.0115 -0.0564,0.0147 -0.0247,0.003 -0.0566,0.003 -0.0866,0.004 -0.46644,0.0183 -0.93285,0.0378 -1.40105,0.0549 -0.10777,0.004 -0.12875,0.0246 -0.1869,0.0389 -0.0194,0.004 -0.0387,0.0114 -0.0617,0.0127 -0.29152,0.0123 -0.58301,0.0238 -0.87453,0.0348 -0.0972,0.004 -0.0972,0.003 -0.26815,0.044 -0.0194,0.004 -0.0423,0.009 -0.0671,0.0107 -0.43637,0.0178 -0.87452,0.0348 -1.31267,0.0523 -0.0565,0.002 -0.0953,0.012 -0.12343,0.0258 -0.0281,0.0139 -0.0686,0.0229 -0.12518,0.025 -0.34983,0.014 -0.69966,0.0284 -1.04949,0.0412 -0.0972,0.003 -0.16066,0.0137 -0.20286,0.032 -0.0317,0.0139 -0.0705,0.0209 -0.13229,0.0234 -0.34983,0.0136 -0.69961,0.0284 -1.05122,0.0404 -0.1025,0.003 -0.15536,0.0173 -0.19759,0.0345 -0.0334,0.0139 -0.0722,0.0188 -0.13761,0.0214 -0.64135,0.0247 -1.28442,0.0494 -1.92397,0.0765 -0.10776,0.005 -0.16274,-0.009 -0.23357,-0.0195 -0.10091,-0.0141 -0.19476,-0.0293 -0.19516,-0.061 -5e-5,-0.005 -0.0302,-0.0105 -0.0514,-0.0145 -0.1577,-0.0302 -0.1577,-0.0302 -0.18283,-0.0627 -0.0144,-0.0199 -0.0306,-0.0402 -0.0432,-0.0605 -0.0234,-0.0333 -0.0801,-0.0417 -0.2426,-0.0353 -0.0583,0.002 -0.1166,0.005 -0.17491,0.007 -0.0866,0.003 -0.15214,-0.0103 -0.16833,-0.0347 -0.009,-0.0134 -0.0198,-0.0268 -0.0288,-0.0402 0.0883,-0.003 0.0865,-0.004 0.24148,-0.0533 0.0652,-0.0208 0.0652,-0.0208 -0.0606,-0.0414 -0.0478,-0.008 -0.0939,-0.0161 -0.14526,-0.0233 -0.023,-0.003 -0.0531,-0.005 -0.0778,-0.004 -0.14663,0.005 -0.29152,0.0111 -0.43638,0.017 -0.2332,0.009 -0.23323,0.009 -0.47058,-0.0317 -0.0195,-0.003 -0.0496,-0.009 -0.0461,-0.0125 0.0193,-0.0151 0.0669,-0.0217 0.12697,-0.0234 0.0883,-0.003 0.17492,-0.007 0.26149,-0.0102 0.0583,-0.002 0.1166,-0.005 0.17489,-0.007 0.0546,-0.0156 0.11102,-0.0307 0.16208,-0.0466 0.081,-0.0245 0.081,-0.0253 -0.0306,-0.0422 -0.0708,-0.0113 -0.14698,-0.0213 -0.21958,-0.0318 -0.0866,0.003 -0.17489,0.007 -0.26146,0.0102 -0.10954,0.004 -0.15383,-0.004 -0.18243,-0.0302 -0.025,-0.0231 0.005,-0.0431 0.0896,-0.0481 0.0865,-0.005 0.16785,-0.008 0.21177,-0.0292 0.0422,-0.02 0.11631,-0.0279 0.20823,-0.0296 0.0583,-10e-4 0.1166,-0.004 0.17489,-0.007 0.076,-0.003 0.11639,-0.0242 0.1002,-0.0473 -0.009,-0.015 -0.0269,-0.0276 -0.0958,-0.0307 -0.30596,-0.0137 -0.30951,-0.0133 -0.46185,-0.0406 -0.0142,-0.002 -0.0249,-0.01 -0.0196,-0.0134 0.009,-0.006 0.0281,-0.0151 0.0493,-0.0164 0.20317,-0.009 0.40632,-0.0178 0.60952,-0.0242 0.0671,-0.002 0.1166,-0.005 0.13941,-0.0202 0.0316,-0.0208 0.0172,-0.0399 -0.0448,-0.054 -0.0195,-0.004 -0.0514,-0.0101 -0.0726,-0.01 -0.23324,0.008 -0.46467,0.0175 -0.6979,0.0252 -0.0212,8.5e-4 -0.0601,-0.006 -0.0691,-0.0112 -0.0178,-0.01 0.009,-0.0228 0.0704,-0.0274 0.0812,-0.006 0.16431,-0.007 0.21886,-0.0272 0.0756,-0.029 0.16899,-0.0556 0.2535,-0.0833 0.0141,-0.005 0.037,-0.0143 0.0317,-0.0151 -0.0443,-0.009 -0.0957,-0.0157 -0.14171,-0.0241 -0.0779,-0.0141 -0.0782,-0.034 -0.0607,-0.0531 0.0139,-0.0155 0.0669,-0.0217 0.13229,-0.0218 0.0283,-5e-5 0.0636,-10e-5 0.0866,-0.004 0.06,-0.009 0.0793,-0.0204 0.0491,-0.0289 -0.0177,-0.005 -0.0496,-0.0117 -0.0708,-0.0109 -0.37812,0.0141 -0.75801,0.0277 -1.1343,0.0451 -0.11128,0.005 -0.16269,-0.0103 -0.23,-0.0211 -0.0514,-0.008 -0.0992,-0.0116 -0.16272,-0.005 -0.06,0.006 -0.11837,0.003 -0.15565,-0.0107 -0.0302,-0.0109 0.0227,-0.0204 0.16576,-0.0312 0.0265,-0.002 0.0565,-0.003 0.0759,-0.007 0.20449,-0.0443 0.20449,-0.0447 0.34581,-0.0506 0.13782,-0.005 0.13784,-0.006 0.21002,-0.0296 0.0334,-0.011 0.0704,-0.0221 0.10208,-0.0335 0.0123,-0.004 0.0335,-0.0127 0.0264,-0.0151 -0.0391,-0.0125 -0.0921,-0.0153 -0.15396,-0.0123 -0.1378,0.007 -0.30046,0.002 -0.37246,0.0405 -0.0281,0.0147 -0.0722,0.0188 -0.13583,0.0214 -0.63958,0.0247 -1.27916,0.051 -1.92051,0.0749 -0.10424,0.004 -0.15176,0.0189 -0.19219,0.0357 -0.0352,0.0139 -0.074,0.018 -0.14118,0.0206 -0.0671,0.003 -0.12018,0.004 -0.15923,-0.009 -0.0231,-0.008 -0.004,-0.0195 0.0491,-0.031 0.0758,-0.0164 0.0614,-0.0367 0.0364,-0.0557 -0.0178,-0.0126 -0.0727,-0.0214 -0.13105,-0.0205 -0.0866,0.002 -0.1696,0.006 -0.24228,-0.01 -0.0425,-0.009 -0.0957,-0.0157 -0.14346,-0.0237 -0.0921,-0.0165 -0.18425,-0.0334 -0.31313,-0.0222 -0.0884,-0.004 -0.1505,-0.0185 -0.22133,-0.0297 -0.11865,-0.0185 -0.12929,-0.0213 -0.0447,-0.0414 0.0952,-0.0225 0.0206,-0.0517 0.0733,-0.0737 0.0563,-0.0237 0.13382,-0.0445 0.20248,-0.0666 0.0176,-0.006 0.0335,-0.0111 0.0511,-0.0168 -0.0407,-0.008 -0.078,-0.0182 -0.12578,-0.0238 -0.0619,-0.007 -0.0939,-0.0161 -0.0906,-0.0413 -0.0124,-0.004 -0.007,0.006 0.007,0.008 0.0159,0.002 0.0548,3.1e-4 0.0742,-0.003 0.0494,-0.008 0.074,-0.018 0.0615,-0.0265 -0.007,-0.004 -0.0408,-0.0101 -0.062,-0.01 -0.0389,8e-5 -0.0724,0.009 -0.0827,0.031 -0.19777,0.017 -0.40274,0.0255 -0.6077,0.0324 -0.0212,8.5e-4 -0.0478,-0.007 -0.0726,-0.0112 -0.0815,-0.0137 -0.0815,-0.0133 -0.32015,-0.0169 -0.0248,-3.7e-4 -0.0584,-0.006 -0.0708,-0.0117 -0.0516,-0.0247 -0.0501,-0.0519 -0.0752,-0.0783 0.0457,-0.0172 0.0915,-0.0339 0.13899,-0.0506 0.095,-0.0339 0.21843,-0.0638 0.29222,-0.10091 -0.0161,-0.0199 -0.0376,-0.0398 0.04,-0.0562 0.2207,-0.0207 0.21894,-0.0207 0.2788,-0.0403 0.17078,-0.0556 0.33978,-0.11155 0.51764,-0.16634 0.0475,-0.0143 0.0475,-0.022 -0.0375,-0.028 -0.0265,-0.002 -0.0548,-0.002 -0.0831,-0.001 -0.0884,0.003 -0.17664,0.0105 -0.26327,0.009 -0.0866,-10e-4 -0.15048,-0.0188 -0.22132,-0.0297 -0.0726,-0.0112 -0.14522,-0.0229 -0.21783,-0.0346 -0.0831,10e-4 -0.16598,0.0129 -0.24928,-0.005 -0.0638,-0.0141 -0.14346,-0.0242 -0.21608,-0.0358 0.0544,-0.031 0.15667,-0.0547 0.23588,-0.0821 0.0722,-0.0249 0.0739,-0.0245 0.2681,-0.0439 0.0918,-0.009 0.12306,-0.0551 0.0451,-0.0684 -0.0939,-0.0161 -0.19303,-0.031 -0.28867,-0.0463 -0.0831,0.001 -0.16775,0.0125 -0.24751,-0.006 -0.062,-0.0137 -0.13287,-0.0229 -0.23532,-0.0175 -0.17311,0.009 -0.34981,0.014 -0.52471,0.0216 -0.0601,0.003 -0.12551,10e-4 -0.15219,-0.0127 -0.0178,-0.01 0.0333,-0.0232 0.0916,-0.0262 0.0883,-0.004 0.1678,-0.009 0.21175,-0.0296 0.0422,-0.0204 0.11986,-0.0266 0.21174,-0.0296 0.0247,-8.5e-4 0.053,-0.006 0.0653,-0.0107 0.0633,-0.0237 0.13381,-0.0441 0.26992,-0.0435 0.0565,-0.008 0.0864,-0.0184 0.0686,-0.0282 -0.0107,-0.005 -0.0479,-0.0121 -0.0691,-0.0112 -0.14666,0.004 -0.29331,0.009 -0.4364,0.0162 -0.0671,0.003 -0.1184,0.004 -0.16097,-0.008 -0.0302,-0.008 -0.0144,-0.0191 0.042,-0.031 0.0494,-0.0102 0.0634,-0.0221 0.0597,-0.0359 -0.009,-0.0321 -0.0624,-0.0413 -0.23204,-0.039 -0.12194,0.002 -0.15206,-0.003 -0.17891,-0.031 -0.007,-0.006 -0.0249,-0.0154 -0.0126,-0.0199 0.0757,-0.0278 0.12475,-0.062 0.26776,-0.0752 0.0565,-0.005 0.11658,-0.005 0.1518,-0.0157 0.0352,-0.0106 0.0669,-0.0229 0.1039,-0.0331 0.0458,-0.0123 0.0774,-0.0237 0.0562,-0.0314 -0.0355,-0.0138 -0.0921,-0.0149 -0.15742,-0.01 -0.0565,0.004 -0.1166,0.005 -0.1749,0.007 -0.10423,0.005 -0.18919,-0.006 -0.20178,-0.0236 -0.0342,-0.0471 -0.0701,-0.0938 -0.10071,-0.14089 -0.004,-0.006 0.005,-0.013 0.0192,-0.0179 0.0493,-0.0172 0.10214,-0.0335 0.15319,-0.0503 0.0599,-0.0192 0.15538,-0.0157 0.23664,-0.0195 0.11483,-0.005 0.11479,-0.005 0.2681,-0.0444 0.0599,-0.0156 0.16427,-0.01 0.22597,-0.0236 0.0194,-0.004 0.0493,-0.0118 0.044,-0.0159 -0.007,-0.005 -0.0425,-0.009 -0.0691,-0.0117 -0.0248,-0.002 -0.0548,-0.004 -0.0813,-0.002 -0.32155,0.0124 -0.64132,0.0255 -0.96288,0.0375 -0.0548,0.002 -0.11497,-0.007 -0.13457,-0.0193 -0.0196,-0.0117 -0.0145,-0.026 -0.0182,-0.0394 0.0511,-0.0167 0.10917,-0.0323 0.15314,-0.0503 0.0334,-0.0139 0.0722,-0.02 0.1394,-0.021 0.0884,-0.001 0.17492,-0.006 0.27386,-0.0102 0.1831,-0.0597 0.36263,-0.12219 0.55987,-0.18188 0.0793,-0.0241 0.0595,-0.0485 0.0751,-0.0741 0.0156,-0.0236 0.13408,-0.0201 0.21354,-0.0272 0.0636,-0.006 0.0846,-0.0188 0.0597,-0.0277 -0.0142,-0.005 -0.0461,-0.0113 -0.0708,-0.0113 -0.0583,10e-5 -0.11662,0.004 -0.17492,0.006 -0.0583,0.002 -0.12549,10e-4 -0.17312,0.008 -0.0459,0.007 -0.0758,0.0204 -0.10569,0.0323 -0.0334,0.0131 -0.0775,0.0176 -0.14468,0.0186 -0.0866,9.5e-4 -0.17316,0.005 -0.25974,0.008 -0.0956,-0.0157 -0.19483,-0.031 -0.28695,-0.0475 -0.0177,-0.003 -0.0214,-0.0126 -0.0197,-0.0187 0.003,-0.0159 -0.0233,-0.0256 -0.0817,-0.0332 -0.0496,-0.006 -0.0903,-0.0157 -0.13639,-0.0237 0.0352,-0.011 0.074,-0.0217 0.10212,-0.0335 0.0616,-0.0249 0.13913,-0.0429 0.27347,-0.0423 0.0528,-0.016 0.095,-0.0355 0.16381,-0.0466 0.0653,-0.0107 0.17676,-3.2e-4 0.22596,-0.0244 0.0246,-0.0118 0.0616,-0.0253 0.10925,-0.0303 0.0759,-0.008 0.17494,-0.004 0.21885,-0.0268 0.0264,-0.0131 0.0651,-0.0249 0.11631,-0.0283 0.0583,-0.004 0.11835,-0.005 0.16068,-0.0125 0.0229,-0.004 0.0476,-0.0106 0.0475,-0.0163 -5e-5,-0.004 -0.0354,-0.009 -0.0602,-0.0117 -0.023,-0.003 -0.0531,-0.005 -0.0796,-0.004 -0.0883,0.003 -0.1749,0.007 -0.26325,0.01 -0.0247,8.7e-4 -0.053,-0.002 -0.0796,-0.004 -0.0778,-0.006 -0.0726,-0.0145 -0.011,-0.0293 0.0617,-0.0144 0.10568,-0.0327 0.15674,-0.0495 0.0565,-0.003 0.12723,-0.002 0.16603,-0.01 0.0652,-0.0127 0.11096,-0.0311 0.1638,-0.047 0.0583,-0.003 0.11838,-0.003 0.17312,-0.008 0.023,-0.002 0.0335,-0.0106 0.0529,-0.0159 0.0352,-0.0102 0.0651,-0.0249 0.11278,-0.0299 0.0777,-0.007 0.17317,-0.005 0.21885,-0.0272 0.0264,-0.0131 0.0668,-0.0269 0.11631,-0.0278 0.13785,-0.002 0.19591,-0.0243 0.26635,-0.0456 0.0528,-0.016 0.16607,-0.008 0.2242,-0.024 0.0388,-0.0102 0.0669,-0.0229 0.10567,-0.0327 0.0159,-0.004 0.0494,-0.006 0.0759,-0.007 0.14486,-0.006 0.29152,-0.0111 0.43638,-0.0178 0.023,-10e-4 0.0441,-0.007 0.0617,-0.0123 0.037,-0.0106 0.0598,-0.0253 0.10565,-0.0323 0.0459,-0.007 0.11126,-0.007 0.1678,-0.009 0.18198,-0.006 0.19616,-0.005 0.27882,-0.0395 0.0668,-0.0282 0.23146,-0.009 0.28588,-0.0395 0.0316,-0.0179 0.0897,-0.0327 0.19399,-0.0349 0.14666,-0.003 0.29152,-0.0111 0.43815,-0.0166 0.13076,-0.005 0.12899,-0.005 0.26993,-0.0431 0.0634,-0.0172 0.15716,-0.0149 0.24019,-0.0183 0.0884,-0.003 0.16957,-0.008 0.21175,-0.0288 0.0422,-0.02 0.11988,-0.0267 0.20997,-0.0296 0.083,-0.003 0.17677,-10e-4 0.24199,-0.0175 0.15859,-0.0393 0.15682,-0.0397 0.26813,-0.044 0.17491,-0.007 0.34983,-0.0136 0.52472,-0.0208 0.1166,-0.005 0.23855,-0.006 0.34803,-0.0148 0.0795,-0.007 0.11454,-0.0294 0.1656,-0.0454 0.14486,-0.006 0.28972,-0.0127 0.43461,-0.0186 0.20315,-0.008 0.40809,-0.0161 0.61304,-0.0242 0.0882,-0.0156 0.10017,-0.0498 0.24863,-0.0517 0.0884,-9.5e-4 0.17491,-0.006 0.26326,-0.01 0.14663,-0.006 0.29149,-0.0135 0.43815,-0.0166 0.11133,-0.002 0.13049,-0.0242 0.18865,-0.0381 0.0194,-0.005 0.037,-0.0119 0.06,-0.0131 0.22963,-0.0118 0.46646,-0.0146 0.69072,-0.0317 0.023,-0.002 0.0441,-0.0102 0.0493,-0.0164 0.003,-0.003 -0.0266,-0.009 -0.0461,-0.0121 -0.023,-0.003 -0.0531,-0.006 -0.0778,-0.006 -0.72967,0.0285 -1.45931,0.0574 -2.18897,0.0859 -0.10248,0.004 -0.10248,0.004 -0.35116,0.049 -0.0212,0.004 -0.0459,0.008 -0.0724,0.009 -0.1166,0.005 -0.235,0.008 -0.34981,0.0144 -0.0936,0.005 -0.17145,3.1e-4 -0.23878,-0.0142 -0.0478,-0.0105 -0.0974,-0.0136 -0.15748,-0.0127 -0.0672,0.001 -0.11129,0.006 -0.15002,0.0169 -0.0511,0.0151 -0.0774,0.0347 -0.18513,0.0389 -0.49649,0.0183 -0.99295,0.0387 -1.48765,0.0583 -0.069,-0.006 -0.10268,-0.014 -0.0851,-0.0243 0.0105,-0.006 0.0316,-0.0143 0.0528,-0.0151 0.20317,-0.009 0.40812,-0.0165 0.61129,-0.025 0.0283,-10e-4 0.0671,-5.3e-4 0.083,-0.005 0.0776,-0.0184 0.10549,-0.0481 0.25217,-0.0504 0.0848,-0.001 0.17135,-0.008 0.2526,-0.0134 0.0229,-0.002 0.044,-0.0102 0.0493,-0.0164 0.002,-0.003 -0.0266,-0.009 -0.0479,-0.0121 -0.0779,-0.0116 -0.16785,0.003 -0.24572,-0.005 -0.0266,-0.003 -0.0637,-0.007 -0.0691,-0.0117 -0.004,-0.004 0.0264,-0.0118 0.0475,-0.0163 0.0194,-0.004 0.0459,-0.008 0.0724,-0.009 0.2332,-0.01 0.46643,-0.0199 0.69966,-0.0276 0.0954,-0.003 0.16243,-0.0133 0.20463,-0.0321 0.0316,-0.0139 0.0705,-0.0213 0.13052,-0.0234 0.40812,-0.0158 0.81621,-0.0331 1.22613,-0.0477 0.10247,-0.003 0.15536,-0.0169 0.19757,-0.0345 0.0334,-0.0139 0.0722,-0.0188 0.13761,-0.0214 0.5848,-0.0221 1.16604,-0.0467 1.75085,-0.0681 0.10779,-0.004 0.13941,-0.0214 0.19402,-0.0365 0.0194,-0.005 0.0316,-0.0118 0.0564,-0.0151 0.0247,-0.003 0.0565,-0.003 0.0865,-0.004 0.46643,-0.0183 0.93287,-0.0378 1.40107,-0.0549 0.10957,-0.004 0.1305,-0.0242 0.18688,-0.0386 0.0194,-0.004 0.037,-0.0118 0.0599,-0.0131 0.34981,-0.0144 0.69962,-0.028 1.04945,-0.0421 0.2332,-0.009 0.4664,-0.0187 0.69961,-0.0276 0.11485,-0.004 0.11485,-0.005 0.26993,-0.0436 0.0176,-0.004 0.0423,-0.01 0.0653,-0.0111 0.67138,-0.0272 1.34096,-0.0531 2.01231,-0.0799 0.0565,-0.002 0.0971,-0.0116 0.12518,-0.0254 0.0281,-0.0139 0.0687,-0.0233 0.12348,-0.0254 0.52469,-0.0212 1.04942,-0.042 1.57591,-0.0621 0.0954,-0.003 0.16245,-0.0133 0.20466,-0.0317 0.0316,-0.0139 0.0704,-0.0212 0.13051,-0.0234 0.52473,-0.0204 1.04947,-0.0421 1.57597,-0.0617 0.10073,-0.004 0.15002,-0.0177 0.19931,-0.0341 0.0176,-0.006 0.0316,-0.0151 0.0528,-0.016 0.26146,-0.0118 0.52115,-0.0241 0.78441,-0.0323 0.10956,-0.003 0.14647,-0.0206 0.19047,-0.0369 0.0352,-0.0131 0.0758,-0.0176 0.14296,-0.0194 0.14665,-0.004 0.29151,-0.0111 0.4346,-0.0182 0.0212,-10e-4 0.0476,-0.0102 0.0493,-0.0159 0.003,-0.0106 -0.0373,-0.0178 -0.10456,-0.0213 -0.69964,0.0276 -1.40102,0.0553 -2.10063,0.0829 -0.11486,0.005 -0.11486,0.005 -0.26993,0.0436 -0.0176,0.005 -0.0423,0.01 -0.0671,0.0111 -0.67136,0.0268 -1.34094,0.0531 -2.01229,0.0799 -0.0565,0.002 -0.0971,0.0116 -0.1252,0.0254 -0.0281,0.0139 -0.0687,0.0233 -0.12346,0.0254 -0.64132,0.0255 -1.28262,0.0514 -1.92574,0.0757 -0.0954,0.003 -0.16246,0.0129 -0.20463,0.0316 -0.0317,0.0139 -0.0705,0.0212 -0.13052,0.0234 -0.61307,0.0238 -1.22439,0.0489 -1.83922,0.0719 -0.0619,0.002 -0.10793,-0.01 -0.10451,-0.0205 0.002,-0.006 0.028,-0.0151 0.0492,-0.016 0.31978,-0.014 0.63781,-0.0283 0.95938,-0.0391 0.10777,-0.003 0.13936,-0.0214 0.19397,-0.0365 0.0176,-0.005 0.0317,-0.0122 0.0546,-0.0151 0.0247,-0.003 0.0565,-0.003 0.0866,-0.004 0.75793,-0.0302 1.51588,-0.0608 2.2756,-0.0893 0.10954,-0.004 0.1305,-0.0242 0.18688,-0.0385 0.0194,-0.005 0.037,-0.0123 0.0599,-0.0131 0.23321,-0.0102 0.46641,-0.0191 0.69961,-0.0281 0.40812,-0.0161 0.81624,-0.0323 1.22614,-0.0485 0.11837,-0.005 0.11837,-0.005 0.2699,-0.0431 0.0176,-0.005 0.0423,-0.0102 0.0653,-0.0111 1.07947,-0.043 2.15897,-0.0859 3.23847,-0.12841 0.0565,-0.002 0.0971,-0.0115 0.12517,-0.0254 0.0281,-0.0134 0.0687,-0.0233 0.12341,-0.0258 1.45936,-0.0578 2.91692,-0.11562 4.37618,-0.17261 0.0955,-0.004 0.16245,-0.0125 0.20479,-0.0317 0.0299,-0.0139 0.0704,-0.0213 0.13044,-0.0238 1.60416,-0.0634 3.20833,-0.12671 4.81435,-0.19047 1.0795,-0.0425 2.159,-0.0859 3.2385,-0.12758 0.099,-0.004 0.15187,-0.0165 0.20109,-0.0333 0.0159,-0.006 0.0317,-0.0151 0.0529,-0.016 0.23151,-0.0105 0.46276,-0.0203 0.69427,-0.03 0.0725,0.0108 0.14526,0.0213 0.21775,0.0321 0.0548,-0.0155 0.10742,-0.0315 0.16219,-0.047 0.34978,-0.0124 0.69427,-0.0313 1.04775,-0.0376 0.0228,-4.5e-4 0.0476,0.007 0.0725,0.0113 0.16457,0.0253 0.25823,0.0231 0.36221,-0.0112 0.037,-0.0123 0.0685,-0.0233 0.12515,-0.0254 0.17489,-0.008 0.35163,-0.0128 0.52467,-0.0216 0.0937,-0.005 0.17145,-7.1e-4 0.23892,0.0138 0.0479,0.0105 0.0974,0.0149 0.15557,0.0123 0.32174,-0.0128 0.64135,-0.0251 0.96309,-0.0387 0.0228,-8.7e-4 0.0439,-0.008 0.0616,-0.0127 0.037,-0.0106 0.0685,-0.0221 0.10372,-0.0331 0.0479,0.007 0.10107,0.012 0.13997,0.0209 0.0497,0.0105 0.0955,0.0104 0.16271,0.007 1.2827,-0.0514 2.56726,-0.1016 3.84969,-0.15343 0.10954,-0.004 0.15769,0.0127 0.23204,0.0216 0.0246,0.003 0.0495,0.007 0.0759,0.008 0.0283,7.7e-4 0.0585,-0.002 0.0865,-0.003 0.96308,-0.0383 1.9259,-0.0761 2.88872,-0.11438 0.12726,-0.005 0.12726,-0.005 0.3167,0.0198 0.023,0.003 0.0532,0.007 0.0778,0.006 0.43815,-0.0166 0.8763,-0.0344 1.3126,-0.0515 0.0566,-0.002 0.10451,0.004 0.15584,0.0136 0.10107,0.0181 0.10795,0.0181 0.18203,-0.009 0.0352,-0.0127 0.0722,-0.0204 0.13044,-0.0242 0.0635,-0.004 0.11483,-0.003 0.16431,0.004 0.0709,0.0101 0.1225,0.027 0.23018,0.0224 0.46646,-0.0199 0.93451,-0.0366 1.39912,-0.0569 0.1061,-0.005 0.16298,0.009 0.23363,0.0191 0.0249,0.004 0.0479,0.009 0.0743,0.0104 0.0267,10e-4 0.0585,-0.002 0.0865,-0.003 0.58315,-0.023 1.16788,-0.0455 1.74916,-0.0701 0.10954,-0.005 0.15743,0.0127 0.23178,0.0215 0.0249,0.003 0.0532,0.009 0.0762,0.008 0.34978,-0.0132 0.70141,-0.0272 1.05119,-0.0413 0.12541,-0.005 0.12541,-0.005 0.31671,0.0198 0.023,0.003 0.0532,0.006 0.0778,0.006 0.40826,-0.0157 0.81809,-0.0319 1.22608,-0.048 0.12541,-0.005 0.12541,-0.005 0.48816,0.0154 0.0265,0.002 0.0548,0.004 0.0812,0.003 0.46646,-0.0183 0.93477,-0.0362 1.40096,-0.0557 0.0937,-0.004 0.17172,-6.9e-4 0.23892,0.0138 0.0479,0.0105 0.0974,0.0149 0.15558,0.0123 0.52493,-0.0208 1.05145,-0.0408 1.57427,-0.0629 0.10081,-0.004 0.16616,0.005 0.23707,0.0163 0.023,0.004 0.046,0.01 0.0728,0.0112 0.0264,0.002 0.0563,-1.1e-4 0.0847,-0.001 0.52467,-0.0208 1.05119,-0.0404 1.57427,-0.0629 0.10584,-0.005 0.16272,0.009 0.23363,0.0191 0.0246,0.004 0.0513,0.0109 0.0725,0.0105 0.20478,-0.007 0.40984,-0.0137 0.61304,-0.0242 0.10953,-0.006 0.15742,0.0127 0.23177,0.0215 0.0249,0.003 0.0532,0.009 0.0762,0.008 0.43815,-0.0166 0.8763,-0.0341 1.3126,-0.0519 0.0619,-0.003 0.10795,10e-4 0.15743,0.0115 0.0656,0.0141 0.14181,0.0197 0.23706,0.015 0.2032,-0.01 0.40825,-0.0166 0.61304,-0.0246 0.12012,-0.005 0.12012,-0.005 0.48816,0.0158 0.0265,0.002 0.0548,0.004 0.0812,0.003 0.34977,-0.0136 0.70141,-0.0268 1.0496,-0.0417 0.0937,-0.004 0.17145,-6.9e-4 0.23865,0.0138 0.0479,0.0105 0.0958,0.0149 0.15584,0.0123 0.32147,-0.0127 0.64135,-0.0255 0.96282,-0.0383 0.11668,-0.005 0.2331,-0.0126 0.34978,-0.0128 0.0849,2.6e-4 0.14711,0.0197 0.22304,0.0293 0.0214,0.003 0.0566,-5.1e-4 0.0849,-0.001 0.40799,-0.0162 0.8181,-0.0311 1.22423,-0.0493 0.1061,-0.005 0.16272,0.009 0.23363,0.0191 0.0249,0.004 0.0513,0.0109 0.0725,0.0104 0.14685,-0.005 0.29157,-0.0111 0.43815,-0.0166 0.17516,-0.007 0.35164,-0.012 0.52494,-0.0212 0.14128,-0.008 0.19473,0.0277 0.30771,0.0287 0.0868,0.001 0.17515,-0.006 0.26167,-0.009 0.17489,-0.007 0.34978,-0.0144 0.52467,-0.0204 0.0619,-0.002 0.10954,-0.009 0.12885,-0.0234 0.003,-0.003 -0.0267,-0.009 -0.0463,-0.0125 -0.23548,-0.041 -0.23548,-0.041 -0.47228,-0.0317 -0.14658,0.006 -0.29157,0.0119 -0.43815,0.017 -0.0246,8.7e-4 -0.0529,-0.002 -0.0778,-0.005 -0.0709,-0.007 -0.0638,-0.0149 -0.004,-0.0297 0.0601,-0.0147 0.10557,-0.0327 0.15664,-0.0495 0.0728,0.0104 0.14366,0.0209 0.21616,0.0313 0.0582,-0.002 0.11668,-0.005 0.17489,-0.007 0.29157,-0.0111 0.58314,-0.0226 0.87471,-0.0328 0.0212,-8.4e-4 0.0476,0.007 0.0725,0.0113 0.0709,0.0117 0.13467,0.0217 0.23706,0.0171 0.26141,-0.0123 0.52467,-0.0212 0.78608,-0.0319 0.11483,-0.005 0.11483,-0.005 0.31671,0.0202 0.023,0.003 0.0532,0.006 0.0778,0.005 0.26326,-0.01 0.52493,-0.0204 0.78792,-0.0306 0.0566,-0.002 0.11166,0.003 0.1524,0.0148 0.0159,0.005 0.0124,0.013 0.0804,0.0795 0.20928,0.0537 0.35242,0.0478 0.49715,0.0426 0.0619,-0.002 0.11668,-0.004 0.15716,-0.0125 0.0212,-0.005 0.0476,-0.0111 0.0476,-0.0164 0,-0.004 -0.0389,-0.0105 -0.0638,-0.0113 -0.17515,-0.008 -0.34105,0.01 -0.5125,0.0135 -0.0794,0.002 -0.14869,-0.0124 -0.16298,-0.0355 -0.004,-0.007 -0.009,-0.0134 -0.0145,-0.0199 -0.005,-0.007 -0.009,-0.0134 -0.0143,-0.0199 -0.0688,-0.002 -0.10954,0.005 -0.13943,0.0193 -0.0246,0.0114 -0.0598,0.0245 -0.10742,0.0307 -0.0476,0.007 -0.11298,0.005 -0.17145,0.008 -0.0564,0.002 -0.11827,0.008 -0.17119,0.005 -0.0532,-0.003 -0.0958,-0.0149 -0.14526,-0.0221 -0.023,-0.004 -0.0513,-0.009 -0.0743,-0.008 -0.2032,0.007 -0.40455,0.0145 -0.6059,0.0238 -0.1061,0.005 -0.15928,-0.0119 -0.22675,-0.0224 -0.0529,-0.008 -0.1061,-0.006 -0.11456,0.0128 -0.0225,0.0448 0.059,0.0633 0.23918,0.0545 0.14843,-0.008 0.28284,-0.009 0.39979,0.0184 0.0159,0.004 0.0529,0.005 0.0759,0.004 0.14499,-0.005 0.28813,-0.0115 0.43286,-0.0166 0.0265,-8.8e-4 0.0548,7.1e-4 0.0796,0.002 0.36089,0.0213 0.36089,0.0217 0.48286,0.0166 0.0582,-0.003 0.11483,-0.005 0.10875,-0.0665 0.11059,-0.0664 0.28707,-0.0712 0.45852,-0.0813 0.11139,-0.006 0.15928,0.0115 0.23178,0.0207 0.0249,0.003 0.0513,0.01 0.0743,0.009 0.37995,-0.0141 0.75804,-0.029 1.13612,-0.0447 0.0635,-0.003 0.10954,-1.8e-4 0.15902,0.0103 0.0638,0.0133 0.13467,0.0217 0.23548,0.0167 0.20135,-0.0101 0.4064,-0.0166 0.61119,-0.025 0.10424,-0.004 0.10424,-0.004 0.31485,0.0206 0.023,0.003 0.0532,0.006 0.0778,0.005 0.20505,-0.007 0.40825,-0.0161 0.61145,-0.0238 0.0566,-0.002 0.10795,0.003 0.15214,0.0144 0.0444,0.0109 0.0974,0.0165 0.15213,0.0144 0.20505,-0.008 0.40825,-0.0161 0.61145,-0.0238 0.0246,-8.7e-4 0.0548,0.002 0.0778,0.005 0.2159,0.0248 0.2159,0.0248 0.31485,0.0206 0.145,-0.006 0.29343,-0.009 0.4363,-0.0178 0.1397,-0.008 0.21246,0.0151 0.30798,0.0279 0.26141,-0.01 0.52467,-0.018 0.78449,-0.0298 0.10583,-0.005 0.16272,0.008 0.23362,0.0187 0.0246,0.004 0.0495,0.0113 0.0725,0.0108 0.0884,-0.002 0.17489,-0.006 0.26141,-0.01 0.0868,-0.003 0.17489,-0.007 0.26167,-0.0102 0.099,0.0116 0.16484,0.0391 0.30612,0.0296 0.0847,-0.006 0.17489,-0.007 0.26141,-0.0106 0.0865,-0.003 0.17489,-0.007 0.26141,-0.0102 0.0585,-0.002 0.11853,-0.003 0.17489,-0.007 0.10425,-0.006 0.15584,0.0135 0.23019,0.0224 0.0249,0.003 0.0532,0.008 0.0759,0.007 0.17489,-0.006 0.35163,-0.0112 0.52308,-0.0208 0.13256,-0.008 0.22278,0.005 0.31671,0.0214 0.0193,0.004 0.0529,0.006 0.0778,0.005 0.20505,-0.007 0.40799,-0.0161 0.61119,-0.0238 0.0548,-0.002 0.10795,0.004 0.1524,0.0148 0.046,0.0109 0.0974,0.0161 0.15372,0.014 0.2032,-0.008 0.40825,-0.0162 0.61145,-0.0238 0.0246,-8.5e-4 0.0548,0.002 0.0778,0.006 0.19817,0.0249 0.19844,0.0253 0.31485,0.0202 0.0283,-0.001 0.0585,-0.002 0.0865,-0.003 0.14499,-0.006 0.29528,-0.008 0.43656,-0.0183 0.16246,-0.0112 0.28099,0.002 0.39608,0.0254 0.145,-0.005 0.29343,-0.008 0.43472,-0.0166 0.10609,-0.006 0.16271,0.009 0.23362,0.0191 0.0246,0.004 0.0513,0.0109 0.0725,0.01 0.20505,-0.007 0.40984,-0.0137 0.61119,-0.0242 0.10953,-0.006 0.15769,0.0123 0.23204,0.0215 0.0246,0.003 0.0513,0.009 0.0743,0.008 0.11642,-0.003 0.2331,-0.009 0.34978,-0.0132 0.136,-0.006 0.136,-0.005 0.31644,0.0194 0.0852,0.0116 0.16987,0.002 0.25295,-8.5e-4 0.0884,-0.003 0.17145,-0.006 0.24235,0.0106 0.0442,0.0105 0.0974,0.0169 0.15214,0.0152 0.11668,-0.004 0.23495,-0.008 0.34978,-0.014 0.0918,-0.005 0.17145,-0.002 0.23865,0.013 0.0479,0.0105 0.0976,0.0157 0.15584,0.0131 0.26141,-0.0102 0.52467,-0.0208 0.78608,-0.0306 0.023,-8.4e-4 0.055,0.003 0.0762,0.006 0.0495,0.007 0.0974,0.0153 0.14526,0.0233 0.11482,-0.004 0.23309,-0.006 0.34634,-0.0116 0.12012,-0.006 0.22965,-0.008 0.32358,0.0141 0.0196,0.005 0.0479,0.0117 0.0709,0.0112 0.0884,-0.002 0.17489,-0.006 0.26141,-0.009 0.0865,-0.003 0.17489,-0.007 0.26141,-0.0102 0.10107,0.01 0.1651,0.0392 0.30638,0.0296 0.0847,-0.006 0.17489,-0.007 0.26141,-0.0106 0.0865,-0.003 0.17489,-0.007 0.26141,-0.0102 0.0283,-8.7e-4 0.0601,-0.003 0.0849,-0.001 0.0265,0.002 0.0495,0.007 0.0725,0.0113 0.0709,0.0117 0.13652,0.0233 0.23706,0.0162 0.0847,-0.006 0.17489,-0.007 0.26141,-0.011 0.11854,-0.005 0.11854,-0.005 0.31486,0.0206 0.0796,0.0104 0.16986,-0.004 0.24579,0.005 0.0513,0.006 0.0958,0.0161 0.14526,0.0229 0.0212,0.003 0.0548,0.004 0.0796,0.003 0.11668,-0.004 0.23495,-0.008 0.34978,-0.014 0.0937,-0.005 0.17145,-3.2e-4 0.23707,0.0142 0.0479,0.0105 0.0955,0.0149 0.15557,0.0123 0.29157,-0.0119 0.58314,-0.0221 0.87286,-0.0352 0.099,-0.005 0.17859,0.002 0.23363,0.0167 0.0939,0.025 0.22622,-0.005 0.32358,0.0153 0.0603,0.0125 0.12039,0.027 0.22993,0.0207 0.20134,-0.0109 0.4064,-0.017 0.6096,-0.0246 0.0725,0.0108 0.14525,0.0217 0.2196,0.0325 0.11668,-0.005 0.2331,-0.009 0.34978,-0.0136 0.0865,-0.003 0.17489,-0.007 0.26141,-0.0102 0.0283,-8.7e-4 0.0585,-0.003 0.0849,-5.5e-4 0.0265,0.002 0.0479,0.007 0.0728,0.0112 0.12197,0.0197 0.12197,0.0201 0.32332,0.0116 0.0868,-0.004 0.16986,-0.006 0.24236,0.01 0.0675,0.0149 0.14684,0.0176 0.23892,0.013 0.17303,-0.008 0.34792,-0.0148 0.52467,-0.0208 0.0548,-0.002 0.10609,0.005 0.15213,0.0152 0.0691,0.0165 0.15399,0.0148 0.24051,0.0102 0.11483,-0.006 0.2278,-0.0118 0.32544,0.0108 0.0196,0.005 0.0497,0.0117 0.0709,0.0112 0.14473,-0.003 0.29157,-0.006 0.43286,-0.0142 0.14129,-0.008 0.21061,0.0171 0.30798,0.0291 0.14472,-0.006 0.2913,-0.0111 0.43629,-0.0166 0.0283,-0.001 0.0619,-0.005 0.0865,-0.003 0.10451,0.008 0.16484,0.0387 0.30798,0.0291 0.0831,-0.005 0.17304,-0.007 0.25982,-0.009 0.0228,-4.5e-4 0.0529,0.006 0.0691,0.0117 0.009,0.003 0,0.0105 -0.0106,0.0147 -0.0315,0.0114 -0.0704,0.0221 -0.0984,0.0339 -0.004,0.002 0.0302,0.009 0.0495,0.0121 0.0479,0.007 0.10266,0.006 0.16616,0.003 0.0548,-0.003 0.11166,0.003 0.15055,0.0148 0.0159,0.005 0.0109,0.013 -0.0225,0.0399 2.7e-4,0.0199 0.0373,0.0109 0.0495,-0.002 0.0193,-0.0187 -0.018,-0.0248 -0.0886,-0.0145 -0.0492,0.007 -0.0738,0.018 -0.0614,0.0265 0.007,0.004 0.0408,0.0101 0.10054,-0.01 0.15531,-0.0247 0.27199,-0.0293 0.38841,-0.034 0.0302,-10e-4 0.0653,-0.005 0.0865,-0.003 0.0762,0.01 0.14711,0.0213 0.22145,0.0321 0.0849,-0.003 0.16431,-0.009 0.24765,0.007 0.11695,0.0222 0.12224,0.0201 0.23522,0.0155 0.0582,-0.003 0.11668,-0.005 0.17489,-0.007 0.0582,-0.002 0.10424,0.004 0.15557,0.0131 0.10451,0.0189 0.11351,0.0189 0.18204,-0.007 0.0405,-0.0159 0.0688,-0.0213 0.12012,-0.014 0.16986,0.0245 0.17171,0.0261 0.3167,0.0186 0.12012,-0.006 0.2331,-0.008 0.32174,0.0149 0.0603,0.0162 0.0796,0.0125 0.12726,-0.005 0.12674,-0.0453 0.18495,-0.0446 0.42413,-0.0125 0.11139,0.0152 0.22622,-0.002 0.33919,-0.004 0.0955,-0.002 0.16272,0.008 0.17013,0.0335 0.006,0.0158 0.0217,0.0272 0.0852,0.0324 0.0249,0.002 0.055,0.005 0.0796,0.004 0.14658,-0.005 0.29157,-0.0111 0.43815,-0.017 0.0744,-0.003 0.11456,-0.0221 0.10027,-0.0473 -0.0164,-0.0268 0.0119,-0.0366 0.11774,-0.0445 0.0638,-0.005 0.11483,-0.004 0.16643,0.003 0.0566,0.008 0.0407,0.0154 -0.009,0.0301 -0.11774,0.036 -0.10346,0.0579 0.0489,0.0824 0.0529,0.008 0.0955,0.0161 0.10795,0.0287 0.007,0.006 2.7e-4,0.015 0.0164,0.0199 0.0868,0.0271 0.20717,0.0443 0.34157,0.0571 0.12912,-0.0112 0.21776,0.007 0.31671,0.0214 0.0781,0.0112 0.16986,10e-4 0.25294,-0.003 0.0934,-0.005 0.17145,-0.002 0.23866,0.0134 0.0479,0.0105 0.0974,0.0153 0.15584,0.0131 0.11641,-0.005 0.23495,-0.008 0.34978,-0.0144 0.0987,-0.006 0.17303,0.002 0.23521,0.0159 0.078,0.0174 0.16457,0.005 0.2458,0.008 0.10954,0.003 0.16483,0.0387 0.30797,0.0287 0.0847,-0.006 0.17304,-0.008 0.26141,-0.01 0.023,-4.5e-4 0.0513,0.006 0.0709,0.0112 0.0939,0.0222 0.20346,0.0208 0.32359,0.0141 0.0831,-0.005 0.1643,-0.009 0.24579,0.006 0.13468,0.0258 0.28337,0.0483 0.42519,0.072 0.0196,0.0187 0.006,0.0406 0.10663,0.0514 0.0529,0.006 0.10265,0.014 0.1434,0.0233 0.0497,0.0109 0.0955,0.0136 0.15928,0.0107 0.11483,-0.006 0.23495,-0.007 0.34793,-0.0149 0.10424,-0.007 0.16986,0.007 0.23362,0.0191 0.0513,0.0101 0.0992,0.0149 0.16087,0.007 0.0635,-0.007 0.10954,-0.003 0.16087,0.008 0.0728,0.0149 0.0781,0.0133 0.31855,0.0173 0.0246,3.7e-4 0.0548,0.006 0.0691,0.0117 0.007,0.003 -0.009,0.011 -0.0212,0.0151 -0.0156,0.005 -0.0405,0.0106 -0.0635,0.0119 -0.2614,0.011 -0.52466,0.0208 -0.78607,0.0319 -0.0265,10e-4 -0.0548,0.004 -0.0741,0.008 -0.0212,0.004 -0.0476,0.0106 -0.0476,0.0164 0,0.004 0.0354,0.009 0.0603,0.0117 0.0778,0.009 0.1696,-0.005 0.2458,0.005 0.0513,0.007 0.0937,0.0165 0.14526,0.0229 0.0212,0.003 0.0548,0.002 0.0812,0.001 0.0884,-0.003 0.17488,-0.007 0.26326,-0.01 0.0249,-4.5e-4 0.0532,0.004 0.0762,0.007 0.16986,0.0241 0.16986,0.0241 0.31644,0.0186 0.0585,-0.002 0.12012,-0.008 0.17489,-0.006 0.0532,0.002 0.0992,0.0132 0.14711,0.0201 0.0992,0.0145 0.19288,0.0285 0.20028,0.0602 0.004,0.0122 0.0622,0.0226 0.12065,0.0234 0.0566,7.1e-4 0.11669,-0.004 0.17489,-0.006 0.13785,-0.005 0.13785,-0.005 0.31671,0.0194 0.0495,0.007 0.10239,0.008 0.16616,0.003 0.0246,-0.002 0.0548,-1.1e-4 0.0812,0.002 0.0868,0.006 0.0868,0.0137 0.0304,0.0284 -0.0794,0.0217 -0.0722,0.0237 0.15082,0.0416 0.0849,0.007 0.15054,0.0197 0.22119,0.0309 0.11509,0.0181 0.1135,0.0181 0.0378,0.0422 -0.0177,0.005 -0.0336,0.011 -0.0511,0.0168 -0.0511,0.016 -0.0916,0.0331 -0.19765,0.0349 -0.11668,0.002 -0.23336,0.009 -0.34977,0.0132 -0.11325,0.005 -0.14314,0.0145 -0.13203,0.0421 0.0127,0.0333 0.0357,0.0369 0.23892,0.0362 0.0585,-8e-5 0.1098,0.003 0.15398,0.014 -0.0209,0.0131 -0.0598,0.0233 -0.11641,0.0258 -0.14473,0.006 -0.29131,0.0119 -0.4363,0.0174 -0.11668,0.005 -0.2331,0.009 -0.34978,0.014 -0.0725,0.003 -0.11827,0.0242 -0.0984,0.0477 0.0108,0.0134 0.0198,0.0268 0.0288,0.0402 0.0196,0.0268 0.0569,0.0336 0.17541,0.0322 0.0299,-4.8e-4 0.0582,-0.004 0.0865,-0.003 0.11483,0.003 0.17013,0.0363 0.30798,0.0292 0.11483,-0.006 0.23495,-0.007 0.34792,-0.0148 0.10425,-0.007 0.16272,0.008 0.23522,0.0187 0.0249,0.004 0.0516,0.0113 0.0728,0.0108 0.14658,-0.005 0.29316,-0.009 0.4363,-0.0174 0.0672,-0.003 0.10795,-9.8e-4 0.16086,0.009 0.1278,0.0233 0.13124,0.0221 0.32015,0.0145 0.13785,-0.006 0.1397,-0.005 0.31671,0.0194 0.0497,0.007 0.10265,0.007 0.16615,0.003 0.0831,-0.004 0.1696,-0.0109 0.25639,-0.005 0.0264,0.002 0.0601,0.006 0.0691,0.0117 0.005,0.004 -0.0193,0.0126 -0.0405,0.0155 -0.15531,0.0214 -0.33734,0.0181 -0.50694,0.0269 -0.0532,0.003 -0.1061,-0.005 -0.15055,-0.016 -0.046,-0.0109 -0.0955,-0.0153 -0.15557,-0.0131 -0.11668,0.005 -0.23522,0.008 -0.34978,0.0144 -0.099,0.006 -0.16801,-0.003 -0.23707,-0.0158 -0.023,-0.004 -0.0497,-0.0117 -0.0728,-0.0113 -0.26141,0.009 -0.52467,0.0172 -0.78449,0.029 -0.10425,0.005 -0.16431,-0.008 -0.23521,-0.0187 -0.0249,-0.004 -0.0498,-0.0113 -0.0725,-0.0108 -0.0884,0.002 -0.17515,0.006 -0.26326,0.01 -0.32173,0.0127 -0.64135,0.0255 -0.96308,0.0375 -0.0212,8.5e-4 -0.0479,-0.008 -0.0725,-0.0113 -0.0479,-0.007 -0.0974,-0.014 -0.14711,-0.0209 -0.0884,0.003 -0.17489,0.008 -0.26326,0.0102 -0.0635,0.002 -0.12012,0.008 -0.12859,0.023 -0.005,0.0102 0.0532,0.0194 0.1151,0.0185 0.0601,-9.2e-4 0.12012,-0.006 0.1696,-7.1e-4 0.24606,0.0256 0.24606,0.026 0.39978,0.0205 0.13415,-0.005 0.12012,-0.009 0.23866,0.013 0.0516,0.01 0.0976,0.0153 0.15584,0.0127 0.14499,-0.006 0.29157,-0.0119 0.43815,-0.017 0.023,-8.5e-4 0.0529,0.003 0.0759,0.006 0.17357,0.0241 0.17357,0.0249 0.31671,0.0186 0.18732,-0.008 0.19447,-0.01 0.32014,0.0149 0.0868,0.0169 0.16616,0.005 0.24924,0.004 0.0958,0.0157 0.20029,0.0297 0.28707,0.0475 0.10266,0.0209 0.21035,0.0171 0.32703,0.0108 0.0865,-0.005 0.17145,-0.006 0.24236,0.0101 0.0675,0.0153 0.14869,0.0168 0.2405,0.0126 0.0831,-0.004 0.16775,-0.0117 0.25453,-0.003 0.023,0.002 0.0585,0.008 0.0566,0.0121 -0.002,0.006 -0.0246,0.0139 -0.0474,0.0164 -0.16245,0.017 -0.34105,0.0169 -0.5125,0.0249 -0.0228,0.001 -0.0529,-0.003 -0.0759,-0.006 -0.0497,-0.007 -0.0974,-0.0157 -0.14526,-0.0233 -0.0865,0.003 -0.17489,0.004 -0.25982,0.009 -0.0653,0.004 -0.11483,0.003 -0.16272,-0.006 -0.0442,-0.009 -0.0921,-0.0198 -0.14499,-0.0225 -0.0532,-0.003 -0.11509,0.003 -0.1733,0.006 -0.0582,0.003 -0.12541,0.001 -0.17145,0.008 -0.0458,0.007 -0.0738,0.0208 -0.10372,0.0323 -0.0336,0.0127 -0.0794,0.0168 -0.14658,0.0181 -0.0619,10e-4 -0.11139,-2.1e-4 -0.15742,-0.0115 -0.0196,-0.005 -0.046,-0.008 -0.0728,-0.0117 -0.0246,-0.003 -0.0529,-0.007 -0.0759,-0.006 -0.26326,0.01 -0.52467,0.0204 -0.78793,0.0306 -0.1307,0.005 -0.12912,0.005 -0.40164,-0.0184 -0.0246,-0.002 -0.0548,-0.005 -0.0794,-0.004 -0.14684,0.005 -0.29157,0.0111 -0.43815,0.017 -0.14843,0.006 -0.14684,0.005 -0.39979,-0.02 -0.046,-0.005 -0.11324,0.002 -0.16801,10e-4 -0.11483,-0.002 -0.17171,-0.0359 -0.30612,-0.0292 -0.11483,0.006 -0.23495,0.007 -0.34978,0.0148 -0.10424,0.007 -0.16457,-0.007 -0.23521,-0.0183 -0.0249,-0.004 -0.0516,-0.0117 -0.0728,-0.0108 -0.26326,0.009 -0.52467,0.02 -0.87472,0.0218 -0.0865,1.5e-4 -0.0476,0.009 0.009,0.0114 0.0815,0.004 0.10795,-0.004 0.0635,-0.0204 -0.032,-0.0113 -0.0781,-0.0169 -0.11509,-0.014 -0.0196,0.002 -0.0442,0.009 0.0426,0.0231 0.0921,0.0153 0.0871,0.0238 0.10293,0.0287 0.0392,0.0117 0.0939,0.0165 0.15054,0.0148 0.0884,-0.003 0.17489,-0.007 0.26326,-0.01 0.0246,-8.5e-4 0.0548,0.002 0.0778,0.005 0.19474,0.0248 0.19659,0.0265 0.40323,0.0164 0.0653,-0.003 0.11297,-0.003 0.1643,0.005 0.0709,0.0105 0.12251,0.0282 0.23019,0.0224 0.14314,-0.008 0.28972,-0.0127 0.4363,-0.0174 0.023,-8.4e-4 0.0479,0.006 0.0744,0.01 0.0725,0.01 0.12594,0.0278 0.23362,0.0199 0.0831,-0.006 0.17304,-0.008 0.26141,-0.009 0.023,-4.5e-4 0.0585,0.006 0.0691,0.0113 0.0214,0.009 -0.005,0.0203 -0.0651,0.0281 -0.0246,0.003 -0.0582,0.003 -0.0865,0.004 -0.11668,0.005 -0.2331,0.01 -0.34978,0.0136 -0.0619,0.002 -0.12012,0.008 -0.127,0.0234 -0.005,0.0102 0.0585,0.019 0.1188,0.0181 0.0881,-10e-4 0.17648,-0.005 0.26141,-0.0102 0.15002,-0.009 0.28099,-0.007 0.40322,0.0184 0.0868,0.0177 0.0815,0.0112 0.17384,0.0639 0.0233,0.0134 0.0923,0.0145 0.1524,0.0135 0.14472,-0.002 0.21219,0.004 0.19976,0.0163 -0.0156,0.0155 -0.0669,0.0205 -0.1323,0.0226 -0.11641,0.003 -0.23309,0.009 -0.34977,0.0136 -0.0283,10e-4 -0.0601,0.004 -0.0865,0.003 -0.0265,-7.7e-4 -0.0513,-0.006 -0.0743,-0.009 -0.0495,-0.008 -0.0921,-0.0193 -0.14526,-0.0221 -0.0529,-0.003 -0.11483,0.003 -0.17304,0.006 -0.0585,0.002 -0.12012,0.008 -0.1733,0.006 -0.0529,-0.003 -0.0974,-0.0149 -0.14525,-0.0221 -0.023,-0.004 -0.0513,-0.009 -0.0744,-0.009 -0.11642,0.003 -0.2331,0.009 -0.34978,0.0132 -0.14314,0.006 -0.14314,0.006 -0.31644,-0.0194 -0.0497,-0.007 -0.10107,-0.007 -0.16643,-0.003 -0.14128,0.007 -0.14287,0.006 -0.40137,-0.0176 -0.0249,-0.002 -0.0548,-0.005 -0.0796,-0.004 -0.26326,0.01 -0.52467,0.0204 -0.78607,0.0306 -0.22437,0.009 -0.22437,0.009 -0.34767,0.0498 -0.0915,0.0302 -0.0934,0.0302 -0.003,0.0439 0.0728,0.0113 0.13837,0.0278 0.21801,0.0338 0.0743,0.006 0.1659,-0.0129 0.24739,0.006 0.041,0.009 0.0939,0.0193 0.14526,0.0209 0.0812,0.002 0.16774,-0.0101 0.24579,0.008 0.0392,0.009 0.0974,0.0181 0.14711,0.0184 0.0865,6.6e-4 0.17489,-0.006 0.26141,-0.009 0.0265,-8.4e-4 0.0566,-9e-4 0.0812,0.001 0.0267,0.002 0.0497,0.007 0.0728,0.0113 0.0706,0.0137 0.14684,0.02 0.23865,0.013 0.15002,-0.0116 0.28443,-0.006 0.40164,0.0196 0.0159,0.004 0.0548,0.004 0.0794,0.002 0.0638,-0.004 0.11854,-0.005 0.16616,0.003 0.0196,0.003 0.0479,0.009 0.0444,0.0125 -0.005,0.006 -0.0265,0.0143 -0.0492,0.0164 -0.16616,0.0141 -0.34449,0.016 -0.51594,0.0237 -0.023,8.4e-4 -0.0513,-0.004 -0.0743,-0.008 -0.0495,-0.007 -0.0921,-0.0193 -0.14526,-0.0221 -0.0529,-0.003 -0.11483,0.003 -0.17304,0.005 -0.0585,0.002 -0.12012,0.008 -0.1733,0.006 -0.0529,-0.003 -0.10266,-0.0128 -0.14526,-0.0217 -0.0495,-0.0101 -0.0971,-0.0112 -0.16245,-0.007 -0.0849,0.005 -0.1733,0.006 -0.25982,0.009 -0.0479,-0.008 -0.0958,-0.0161 -0.14526,-0.0233 -0.023,-0.004 -0.0513,-0.008 -0.0762,-0.008 -0.11641,0.003 -0.2331,0.009 -0.34978,0.0132 -0.11668,0.005 -0.11641,0.005 -0.31485,-0.0202 -0.023,-0.003 -0.0532,-0.006 -0.0778,-0.005 -0.14658,0.005 -0.29157,0.0115 -0.43815,0.0166 -0.0566,0.002 -0.10795,-0.003 -0.15399,-0.0144 -0.0445,-0.0109 -0.0974,-0.0169 -0.15213,-0.0148 -0.23336,0.009 -0.46646,0.0175 -0.69982,0.028 -0.0934,0.004 -0.17304,6.9e-4 -0.23681,-0.0138 -0.0746,-0.0165 -0.15769,-0.0123 -0.24421,-0.009 -0.19605,0.008 -0.19791,0.008 -0.32358,-0.0124 -0.0249,-0.004 -0.0495,-0.0117 -0.0725,-0.0113 -0.2032,0.006 -0.40825,0.0125 -0.6096,0.0226 -0.1061,0.005 -0.16272,-0.009 -0.23363,-0.0191 -0.0249,-0.004 -0.0513,-0.0113 -0.0725,-0.0104 -0.14658,0.005 -0.29342,0.009 -0.43656,0.0174 -0.14288,0.008 -0.19818,-0.0293 -0.30613,-0.0287 -0.14658,6.6e-4 -0.29157,0.0103 -0.43629,0.0162 -0.11669,0.005 -0.2331,0.009 -0.34978,0.014 -0.11669,0.005 -0.23337,0.009 -0.34978,0.014 -0.0619,0.003 -0.10795,-6.4e-4 -0.15928,-0.0107 -0.0656,-0.0133 -0.14341,-0.0237 -0.21431,-0.0358 -0.10795,-0.0173 -0.10795,-0.0173 -0.23892,-0.0122 -0.0281,10e-4 -0.0582,0.002 -0.0865,0.003 -0.21379,0.009 -0.21379,0.008 -0.48631,-0.0166 -0.0122,-10e-4 -0.0442,0.003 -0.0564,0.007 -0.037,0.0106 -0.0704,0.0221 -0.10398,0.0331 -0.0476,-0.006 -0.1061,-0.01 -0.13812,-0.0193 -0.0905,-0.0263 -0.23124,0.0102 -0.32358,-0.0157 -0.0336,-0.01 -0.0921,-0.0181 -0.14526,-0.0205 -0.0548,-0.002 -0.11668,0.003 -0.17304,0.006 -0.14657,0.006 -0.14684,0.006 -0.27172,0.0423 -0.0635,0.018 -0.15531,0.0149 -0.23839,0.0191 -0.0865,0.005 -0.1696,0.007 -0.24236,-0.009 -0.0656,-0.0149 -0.14499,-0.0184 -0.23865,-0.0134 -0.11483,0.006 -0.23337,0.0102 -0.34978,0.014 -0.0249,8.5e-4 -0.055,-0.001 -0.0796,-0.004 -0.27094,-0.0235 -0.27094,-0.0239 -0.40164,-0.0184 -0.0582,0.003 -0.11827,0.003 -0.17489,0.007 -0.0952,0.007 -0.16775,-0.002 -0.23707,-0.0146 -0.023,-0.004 -0.0495,-0.0117 -0.0725,-0.0113 -0.11668,0.002 -0.23151,0.006 -0.34634,0.01 -0.0884,0.003 -0.17674,0.005 -0.26141,0.0106 -0.14129,0.01 -0.21061,-0.0167 -0.30798,-0.0287 -0.14499,0.006 -0.29157,0.009 -0.43629,0.017 -0.0672,0.003 -0.11139,0.002 -0.16272,-0.007 -0.0656,-0.0121 -0.12594,-0.0258 -0.23178,-0.0195 -0.14129,0.008 -0.28972,0.0115 -0.43471,0.0166 -0.0974,-0.0124 -0.16827,-0.0379 -0.30797,-0.0283 -0.0847,0.006 -0.17489,0.007 -0.26141,0.0106 -0.11668,0.005 -0.2331,0.009 -0.34978,0.014 -0.12541,0.005 -0.12383,0.004 -0.31671,-0.0198 -0.11139,-0.014 -0.22622,0.002 -0.33946,0.005 -0.0881,0.002 -0.13229,0.021 -0.11059,0.0449 0.0214,0.0239 -0.0262,0.0427 -0.10742,0.0461 -0.2032,0.008 -0.40799,0.0165 -0.61119,0.0238 -0.0249,8.5e-4 -0.0548,-0.002 -0.0778,-0.005 -0.21775,-0.0252 -0.21775,-0.0248 -0.31485,-0.021 -0.14499,0.006 -0.29343,0.01 -0.43657,0.0178 -0.099,0.005 -0.17145,-0.003 -0.23521,-0.0167 -0.0497,-0.0105 -0.0955,-0.0128 -0.15928,-0.0103 -0.69956,0.0285 -1.39912,0.0549 -2.09709,0.0841 -0.10424,0.004 -0.1643,-0.007 -0.23521,-0.0183 -0.0249,-0.004 -0.0479,-0.0113 -0.0728,-0.0113 -0.0582,1.1e-4 -0.11642,0.004 -0.17489,0.006 -0.26141,0.0102 -0.52282,0.0225 -0.78608,0.0303 -0.11139,0.003 -0.14129,0.0222 -0.18865,0.0377 -0.037,0.0118 -0.0794,0.0168 -0.14472,0.0185 -0.0638,0.002 -0.10981,-2.2e-4 -0.15928,-0.0107 -0.0638,-0.0137 -0.13626,-0.0221 -0.23522,-0.0163 -0.11483,0.007 -0.23151,0.01 -0.35004,0.0144 -0.0601,0.002 -0.10583,0.01 -0.12515,0.0242 -0.003,0.002 0.0339,0.008 0.055,0.0121 0.0709,0.0121 0.13812,0.0262 0.21776,0.0346 0.0815,0.008 0.16959,-0.002 0.25453,-0.004 0.0302,-8.7e-4 0.0582,-0.003 0.0865,-0.003 0.0265,3.7e-4 0.0585,0.002 0.0781,0.006 0.0921,0.0181 0.18944,0.0306 0.31644,0.0194 0.1098,0.005 0.16669,0.0387 0.30612,0.0296 0.0849,-0.005 0.1733,-0.008 0.26167,-0.0102 0.023,-4.5e-4 0.0476,0.007 0.0725,0.0104 0.0709,0.01 0.12753,0.0262 0.23363,0.0191 0.11297,-0.008 0.2331,-0.009 0.34792,-0.0148 0.0638,-0.003 0.10954,-6e-4 0.15928,0.01 0.0638,0.0133 0.13626,0.0233 0.23522,0.0166 0.0849,-0.006 0.17489,-0.007 0.26141,-0.011 0.11324,-0.005 0.11324,-0.004 0.31512,0.0206 0.023,0.003 0.0529,0.006 0.0778,0.005 0.14658,-0.005 0.29131,-0.0115 0.43815,-0.0166 0.0564,-0.002 0.11139,0.003 0.15029,0.0148 0.0161,0.005 0.0108,0.013 0.0161,0.0199 -0.29131,0.0115 -0.58288,0.0213 -0.8726,0.0353 -0.10954,0.005 -0.15928,-0.0111 -0.23178,-0.0203 -0.0249,-0.003 -0.0516,-0.0101 -0.0743,-0.009 -0.20506,0.007 -0.40826,0.0149 -0.61146,0.0242 -0.0635,0.003 -0.11138,0.001 -0.15901,-0.0103 -0.1225,-0.0311 -0.27067,-0.0138 -0.40852,-0.009 -0.10609,0.003 -0.13943,0.0161 -0.12673,0.0429 0.0161,0.0317 0.0799,0.0413 0.24262,0.0354 0.0582,-0.002 0.11642,-0.005 0.17489,-0.007 0.0564,-0.002 0.10769,0.003 0.15399,0.0144 0.0442,0.0109 0.0974,0.0165 0.15213,0.0148 0.11668,-0.004 0.23495,-0.008 0.34793,-0.014 0.0937,-0.005 0.17145,-10e-4 0.23707,0.0138 0.0728,0.0166 0.15742,0.0128 0.24236,0.009 0.1979,-0.008 0.19949,-0.008 0.32358,0.012 0.0249,0.004 0.0497,0.0117 0.0725,0.0113 0.2032,-0.006 0.40825,-0.0121 0.60774,-0.0222 0.10425,-0.005 0.16458,0.008 0.23363,0.0183 0.0249,0.004 0.0497,0.0117 0.0728,0.0109 0.14658,-0.005 0.29316,-0.009 0.4363,-0.0174 0.0672,-0.004 0.10769,-0.001 0.16272,0.008 0.13097,0.0238 0.13467,0.0229 0.32014,0.0149 0.0564,-0.003 0.11827,-0.007 0.17145,-0.004 0.0529,0.003 0.0955,0.0149 0.145,0.0221 0.023,0.003 0.0516,0.008 0.0762,0.007 0.11668,-0.003 0.23309,-0.009 0.34978,-0.0132 0.10953,-0.005 0.10953,-0.004 0.31485,0.0206 0.0833,0.0104 0.16986,10e-4 0.25294,-0.002 0.09,-0.004 0.17119,-0.004 0.24051,0.0118 0.0691,0.0157 0.15213,0.0148 0.2405,0.0114 0.0831,-0.003 0.16775,-0.0125 0.25268,-0.002 0.19473,0.0249 0.19473,0.0252 0.31485,0.0202 0.17489,-0.007 0.3482,-0.014 0.52467,-0.0204 0.023,-8.5e-4 0.0532,0.004 0.0762,0.007 0.0495,0.007 0.0921,0.0193 0.14526,0.0221 0.0529,0.003 0.11483,-0.002 0.17145,-0.004 0.18177,-0.008 0.1942,-0.0109 0.31644,0.0157 0.10292,0.0218 0.22966,-0.0102 0.32544,0.0149 0.055,0.0141 0.12938,0.0254 0.23177,0.0183 0.0849,-0.006 0.17304,-0.008 0.26141,-0.011 0.1397,-0.006 0.1397,-0.005 0.31671,0.0189 0.023,0.003 0.0532,0.007 0.0762,0.006 0.11642,-0.003 0.23495,-0.007 0.34793,-0.014 0.13255,-0.009 0.21748,0.007 0.3167,0.0214 0.0778,0.0117 0.1696,0.002 0.25268,-0.002 0.0902,-0.004 0.17145,-0.003 0.23892,0.0126 0.0709,0.0161 0.15399,0.0139 0.24209,0.0105 0.0831,-0.003 0.16801,-0.0125 0.25294,-10e-4 0.1823,0.0249 0.1823,0.0249 0.31486,0.0198 0.11668,-0.005 0.2331,-0.01 0.34978,-0.0132 0.023,-8.7e-4 0.0513,0.004 0.0743,0.008 0.0495,0.007 0.0921,0.0193 0.14526,0.0221 0.0529,0.003 0.11483,-0.003 0.17304,-0.005 0.0585,-0.002 0.12012,-0.008 0.1733,-0.006 0.0529,0.002 0.10266,0.0124 0.14499,0.0213 0.0497,0.0105 0.0958,0.0116 0.16272,0.007 0.0849,-0.005 0.1733,-0.007 0.25982,-0.01 0.0479,0.008 0.0974,0.0153 0.14341,0.0237 0.0479,0.009 0.0992,0.008 0.16457,0.005 0.21722,-0.0101 0.21907,-0.009 0.40137,0.016 0.0833,0.0112 0.16986,0.002 0.25268,-10e-4 0.0884,-0.003 0.17145,-0.005 0.2405,0.011 0.0675,0.0153 0.15055,0.0172 0.23892,0.0122 0.0566,-0.003 0.11668,-0.005 0.17489,-0.007 0.0265,-4.5e-4 0.0582,0.001 0.0778,0.004 0.0939,0.0169 0.186,0.0322 0.31485,0.021 0.11324,0.003 0.17013,0.0363 0.30613,0.0296 0.11482,-0.006 0.23521,-0.007 0.34819,-0.0148 0.10424,-0.007 0.17859,0.005 0.23177,0.0187 0.0958,0.025 0.22966,-0.009 0.32544,0.0153 0.055,0.0141 0.12568,0.0254 0.23177,0.0191 0.11642,-0.007 0.15373,0.002 0.18759,0.0273 0.0196,0.0146 0.0164,0.0264 -0.0188,0.0378 -0.0352,0.0118 -0.0744,0.01 -0.13097,-0.003 -0.0656,-0.0149 -0.1434,-0.0176 -0.23707,-0.0142 -0.0918,0.003 -0.14869,-0.0176 -0.22489,-0.0256 -0.0759,-0.008 -0.1659,0.006 -0.24554,-0.005 -0.18785,-0.0253 -0.18785,-0.0253 -0.31485,-0.0202 -0.0868,0.003 -0.17674,0.005 -0.26167,0.011 -0.10054,0.007 -0.16616,-0.005 -0.23522,-0.0166 -0.0249,-0.004 -0.0497,-0.0117 -0.0709,-0.0113 -0.2032,0.006 -0.40798,0.0125 -0.6096,0.023 -0.10583,0.005 -0.16245,-0.009 -0.23336,-0.0191 -0.0249,-0.004 -0.0516,-0.0109 -0.0728,-0.01 -0.17489,0.006 -0.34793,0.0136 -0.52282,0.0208 -0.0336,0.011 -0.0704,0.0217 -0.10212,0.0335 -0.0336,0.0122 -0.0794,0.0176 -0.14658,0.0173 -0.11139,1.9e-4 -0.22067,0.0175 -0.33232,-0.004 -0.11509,-0.0217 -0.12383,-0.0205 -0.23521,-0.0151 -0.14129,0.007 -0.29158,0.006 -0.42413,0.0219 -0.0228,0.003 -0.0474,0.0106 -0.0474,0.0164 -0.002,0.004 0.0354,0.009 0.0585,0.0121 0.0778,0.01 0.16775,-0.005 0.2458,0.005 0.0513,0.006 0.0939,0.0161 0.14525,0.0229 0.0212,0.003 0.0529,0.002 0.0812,0.002 0.0302,-4.5e-4 0.0582,-0.003 0.0865,-0.003 0.0265,3.7e-4 0.055,0.003 0.0762,0.006 0.0974,0.0153 0.20003,0.0293 0.28681,0.0475 0.0852,0.0177 0.16457,0.005 0.24924,0.004 0.33972,0.0279 0.33972,0.0282 0.56779,0.0189 0.0566,-0.002 0.11483,-0.005 0.17304,-0.004 0.0249,-3e-5 0.0479,0.007 0.0728,0.0113 0.0709,0.0121 0.13811,0.0229 0.23707,0.0162 0.0847,-0.006 0.17489,-0.007 0.26141,-0.011 0.11668,-0.005 0.11668,-0.005 0.31485,0.0206 0.0495,0.006 0.10266,0.006 0.16616,0.002 0.0548,-0.003 0.11139,0.003 0.15055,0.0148 0.0159,0.005 0.0106,0.013 0.0161,0.0199 -0.17489,0.007 -0.35164,0.0116 -0.52123,0.0216 -0.10954,0.006 -0.15928,-0.0111 -0.23178,-0.0203 -0.0249,-0.003 -0.0513,-0.0101 -0.0744,-0.009 -0.1733,0.006 -0.34634,0.0136 -0.51937,0.022 -0.0212,8.5e-4 -0.0476,0.0102 -0.0495,0.016 -0.003,0.0106 0.041,0.0206 0.10451,0.0201 0.0849,-5.5e-4 0.16801,-0.008 0.24421,0.009 0.0638,0.0145 0.1434,0.0209 0.23707,0.0142 0.0564,-0.004 0.11641,-0.004 0.17303,-0.007 0.15002,-0.01 0.28628,-0.008 0.39979,0.0192 0.0865,0.007 0.17145,1e-4 0.25453,-0.004 0.0617,-0.003 0.12171,-0.006 0.16616,0.002 0.0937,0.0161 0.186,0.0322 0.31485,0.021 0.1397,0.0111 0.24606,0.0349 0.36301,0.0542 0.0548,0.009 0.0974,0.0145 0.16087,0.008 0.0264,-0.002 0.0582,-0.003 0.0865,-0.004 0.0585,-0.002 0.12013,-0.008 0.17331,-0.006 0.0529,0.003 0.0974,0.0144 0.14525,0.0217 0.023,0.004 0.0495,0.01 0.0725,0.009 0.0884,-0.002 0.17489,-0.006 0.26141,-0.01 0.0865,-0.003 0.1733,-0.006 0.25982,-0.009 0.0725,0.0105 0.14684,0.0209 0.2196,0.0313 0.11642,-0.005 0.2331,-0.009 0.34793,-0.0136 0.12912,-0.005 0.12912,-0.005 0.31485,0.0202 0.0833,0.0112 0.17172,0.004 0.25109,-0.002 0.13256,-0.009 0.22093,0.007 0.31486,0.0226 0.0196,0.003 0.0548,0.005 0.0778,0.004 0.0918,-0.006 0.17145,-0.002 0.23892,0.0134 0.0476,0.0105 0.0955,0.0153 0.15399,0.0132 0.20294,-0.008 0.40614,-0.0166 0.60934,-0.0238 0.0249,-8.4e-4 0.0532,0.003 0.0762,0.006 0.18044,0.0245 0.18229,0.0257 0.31485,0.019 0.11827,-0.006 0.22781,-0.009 0.32173,0.0137 0.0196,0.005 0.0497,0.0117 0.0709,0.0113 0.14499,-0.004 0.29157,-0.009 0.43471,-0.0162 0.0653,-0.003 0.11139,-0.002 0.16272,0.007 0.0656,0.0117 0.12409,0.0258 0.23178,0.0203 0.29845,-0.0156 0.3003,-0.0131 0.65405,0.0143 0.0249,0.002 0.0585,-0.001 0.0868,-0.003 0.0601,-0.004 0.10425,0.001 0.15743,0.0107 0.11853,0.0209 0.12223,0.0197 0.23521,0.015 0.0865,-0.004 0.17674,-0.005 0.26141,-0.011 0.1307,-0.009 0.21749,0.007 0.31485,0.0214 0.0781,0.0117 0.16801,0.002 0.25109,-0.002 0.09,-0.004 0.17145,-0.003 0.23866,0.0122 0.0463,0.0105 0.0958,0.0161 0.15399,0.014 0.2032,-0.008 0.4064,-0.0162 0.6096,-0.0238 0.0246,-8.5e-4 0.0548,0.002 0.0778,0.005 0.20188,0.0248 0.20188,0.0261 0.40138,0.0164 0.0638,-0.003 0.11668,-0.004 0.16457,0.005 0.046,0.008 0.0955,0.0157 0.1434,0.0233 0.0865,-0.003 0.17489,-0.004 0.25982,-0.009 0.0653,-0.004 0.11139,-0.002 0.16272,0.006 0.0672,0.0108 0.12409,0.0298 0.22992,0.0203 0.0548,-0.005 0.11854,-0.003 0.17304,-0.008 0.0653,-0.005 0.1098,-0.002 0.16113,0.008 0.0638,0.0125 0.12938,0.0254 0.23178,0.0187 0.11297,-0.008 0.23309,-0.009 0.34792,-0.0148 0.0638,-0.003 0.10795,-1.9e-4 0.15928,0.0103 0.0638,0.0133 0.13626,0.0217 0.23522,0.0163 0.20135,-0.0105 0.2032,-0.008 0.39978,0.0168 0.0495,0.006 0.10266,0.006 0.16616,0.002 0.0548,-0.003 0.11139,0.003 0.15028,0.0148 0.0373,0.0129 0.0339,0.0211 0.0376,0.028 z M 151.422,85.758239 c -0.0582,0.002 -0.11669,0.005 -0.20188,-0.0306 -0.006,-0.006 -0.002,-0.0134 -0.0143,-0.0186 -0.0286,-0.0109 -0.0728,-0.0186 -0.12594,-0.0197 -0.0953,-0.001 -0.21008,0.0126 -0.20823,0.0231 0.002,0.009 0.032,0.0166 0.0905,0.0238 0.0249,0.003 0.0442,0.008 0.0672,0.0109 0.0675,0.009 0.12065,0.0274 0.21776,0.0179 -0.009,-0.0126 -0.018,-0.0252 0,0 -0.009,0.0155 0.018,0.0264 0.0817,0.0307 0.0175,0.001 0.0442,3.5e-4 0.0582,-0.002 0.0548,-0.009 0.0632,-0.0212 0.0222,-0.0533 -0.007,0.005 -0.002,0.0146 0.0145,0.017 0.0159,0.002 0.0548,3.2e-4 0.0741,-0.003 0.0495,-0.008 0.0741,-0.018 0.0616,-0.0265 -0.007,-0.004 -0.041,-0.0101 -0.0622,-0.0101 -0.037,8e-5 -0.0704,0.009 -0.0754,0.04 z m 14.34994,4.68911 c -0.12912,0.008 -0.27755,0.005 -0.4064,0.0214 -0.0228,0.003 -0.0458,0.0102 -0.0474,0.016 -0.002,0.004 0.0336,0.009 0.0548,0.0117 0.0479,0.006 0.1008,0.004 0.16271,0.002 0.0937,-0.003 0.1487,0.0156 0.2212,0.0248 0.023,0.003 0.0532,0.005 0.0778,0.004 0.14314,-0.005 0.28443,-0.0106 0.42757,-0.0166 0.0249,-0.001 0.0513,-0.004 0.0725,-0.008 0.0706,-0.0119 0.0632,-0.0196 -0.006,-0.0284 -0.0762,-0.01 -0.13653,-0.0258 -0.21431,-0.0334 -0.11166,-0.0108 -0.22463,0.004 -0.3429,0.006 z m -10.03433,0.31416 c -0.0868,0.003 -0.17145,0.007 -0.25796,0.0102 -0.0283,0.001 -0.0585,0.002 -0.0849,0.003 -0.0548,0.003 -0.0953,0.0115 -0.1217,0.025 0.0407,0.0105 0.0905,0.0165 0.14525,0.0152 0.0865,-0.003 0.17119,-0.008 0.25797,-0.009 0.0937,-0.002 0.1487,0.0164 0.22119,0.0256 0.023,0.003 0.0513,0.003 0.0778,0.004 0.13097,0.001 0.21008,-0.0199 0.18494,-0.0495 -0.018,-0.0231 -0.0852,-0.0368 -0.16642,-0.0338 -0.0849,0.003 -0.17145,0.006 -0.25612,0.01 z m 10.63149,-0.91599 c 0.0212,-0.007 0.0439,-0.0119 0.0545,-0.018 0.0317,-0.0208 0.019,-0.0362 -0.0394,-0.0524 -0.0709,-0.0198 -0.15742,-0.006 -0.23706,-0.004 -0.0193,4.3e-4 -0.0405,0.009 -0.0511,0.0143 -0.007,0.004 -0.007,0.0114 0.004,0.0134 0.0868,0.0161 0.17912,0.031 0.26934,0.0467 z m -15.34821,-1.17411 c -0.0849,0.003 -0.17145,0.006 -0.25612,0.0106 -0.0212,0.001 -0.0408,0.009 -0.0529,0.0143 -0.023,0.01 0.002,0.0232 0.0746,0.0243 0.0831,0.001 0.16959,-0.006 0.25611,-0.009 0.10954,-0.004 0.17463,-0.0194 0.13388,-0.0324 -0.0392,-0.0125 -0.0921,-0.0149 -0.15557,-0.008 z m -93.053564,-0.70705 c 0.0565,-0.002 0.11483,-0.004 0.17137,-0.007 0.053,-0.003 0.0935,-0.012 0.11991,-0.0254 -0.0443,-0.0105 -0.0939,-0.0161 -0.14867,-0.0148 -0.0866,0.003 -0.17137,0.006 -0.25617,0.0102 -0.053,0.003 -0.10414,0.0116 -0.11634,0.0254 -0.0122,0.0106 0.10623,0.0165 0.2299,0.0114 z m 85.567174,-0.21121 c 0.023,0.004 0.046,0.0109 0.0691,0.0108 0.0566,-8e-5 0.11483,-0.003 0.16774,-0.007 0.023,-0.002 0.0405,-0.009 0.0511,-0.0147 0.007,-0.004 0.005,-0.0102 -0.005,-0.0134 -0.0516,-0.0194 -0.25665,-0.0122 -0.28999,0.0102 -0.003,0.004 0.006,0.009 0.007,0.0138 z m -5.60387,-2.21621 c 0.006,0.007 0.007,0.013 0.0146,0.0195 0.0143,0.0122 0.0532,0.021 0.1098,0.027 0.0442,-0.0102 0.0669,-0.0216 0.0651,-0.0338 -0.002,-0.007 -0.007,-0.013 -0.0146,-0.0195 -0.0143,-0.0122 -0.0532,-0.021 -0.10981,-0.027 -0.0442,0.01 -0.0651,0.0213 -0.0651,0.0338 z m 32.53502,5.26971 c -0.0159,0.005 -0.0317,0.0106 -0.0492,0.0155 0.0479,0.0117 0.0921,0.0153 0.12568,0.009 0.0212,-0.004 0.0333,-0.0102 0.0492,-0.0155 -0.0479,-0.0117 -0.0902,-0.0149 -0.12567,-0.009 z m -1.09882,0.0572 c 0.023,0.004 0.0445,0.008 0.0693,0.0108 0.0405,0.004 0.0775,-0.003 0.10583,-0.0176 -0.023,-0.004 -0.0445,-0.008 -0.0691,-0.0109 -0.0408,-0.004 -0.0778,0.003 -0.1061,0.0177 z m 0.69559,-0.0756 c -0.0122,0.01 0.0127,0.0179 0.078,0.0247 0.0159,-0.005 0.037,-0.0102 0.0476,-0.0159 0.0175,-0.009 -0.0127,-0.0179 -0.0762,-0.0243 -0.0177,0.005 -0.0336,0.0102 -0.0495,0.0155 z m -3.73671,-0.43172 c -0.0122,0.01 0.0127,0.0179 0.0781,0.0247 0.0159,-0.005 0.037,-0.0102 0.0476,-0.0159 0.0175,-0.009 -0.0124,-0.0179 -0.0762,-0.0243 -0.0177,0.005 -0.0336,0.0102 -0.0495,0.0155 z m -5.11836,-2.8674 c -0.0159,0.005 -0.0317,0.0106 -0.0495,0.0155 0.0479,0.0117 0.0921,0.0153 0.12568,0.009 0.0212,-0.004 0.0336,-0.0102 0.0492,-0.0155 -0.0476,-0.0117 -0.0902,-0.0149 -0.12541,-0.009 z m -4.88818,-1.51746 c 0.0423,0.003 0.0775,-0.003 0.10742,-0.0181 -0.023,-0.004 -0.0442,-0.008 -0.0691,-0.0109 -0.0407,-0.004 -0.0778,0.003 -0.10583,0.0177 0.023,0.004 0.046,0.008 0.0675,0.0113 z m -2.5871,-0.091 c -0.0159,0.005 -0.0317,0.0106 -0.0495,0.0155 0.0479,0.0117 0.0921,0.0153 0.12567,0.009 0.0212,-0.004 0.0333,-0.0102 0.0492,-0.0155 -0.0479,-0.0117 -0.0902,-0.0145 -0.12541,-0.009 z m -17.54055,-0.34108 c -0.0159,0.005 -0.0318,0.0106 -0.0495,0.0155 0.0479,0.0117 0.0921,0.0153 0.12568,0.009 0.0212,-0.004 0.0333,-0.0102 0.0492,-0.0155 -0.0479,-0.0117 -0.0902,-0.0145 -0.12541,-0.009 z m -87.275894,3.45877 c -0.023,-0.004 -0.046,-0.007 -0.0673,-0.0113 -0.0511,0.0111 -0.0669,0.0212 -0.0385,0.0289 0.0177,0.005 0.0443,0.008 0.0673,0.0113 0.0529,-0.0111 0.0651,-0.0208 0.0385,-0.0289 z"
       fill="#ffe492"
       id="path1"
       style="stroke-width:0.264583" />
  </g>
</svg>
